<svg xmlns="http://www.w3.org/2000/svg" xmlns:xlink="http://www.w3.org/1999/xlink" width="500" zoomAndPan="magnify" viewBox="0 0 375 374.999991" height="500" preserveAspectRatio="xMidYMid meet" version="1.0"><defs><clipPath id="d1727bfd97"><path d="M 121.492188 121.492188 L 253.507812 121.492188 L 253.507812 253.507812 L 121.492188 253.507812 Z M 121.492188 121.492188 " clip-rule="nonzero"/></clipPath><clipPath id="b1c0e5de4c"><path d="M 187.5 121.492188 C 151.042969 121.492188 121.492188 151.042969 121.492188 187.5 C 121.492188 223.957031 151.042969 253.507812 187.5 253.507812 C 223.957031 253.507812 253.507812 223.957031 253.507812 187.5 C 253.507812 151.042969 223.957031 121.492188 187.5 121.492188 Z M 187.5 121.492188 " clip-rule="nonzero"/></clipPath></defs><path stroke-linecap="butt" transform="matrix(0, -0.75, 0.75, 0, 187.517027, 374.337866)" fill="none" stroke-linejoin="miter" d="M 0.00257109 3.49813 L 498.242187 3.49813 " stroke="#ffffff" stroke-width="7" stroke-opacity="1" stroke-miterlimit="4"/><path stroke-linecap="butt" transform="matrix(0.75, 0, 0, 0.75, 0.658598, 187.520539)" fill="none" stroke-linejoin="miter" d="M 0.00207762 3.498657 L 498.241694 3.498657 " stroke="#ffffff" stroke-width="7" stroke-opacity="1" stroke-miterlimit="4"/><path stroke-linecap="butt" transform="matrix(-0.521835, -0.538691, 0.538691, -0.521835, 333.509368, 231.04185)" fill="none" stroke-linejoin="miter" d="M 1.29876 77.05385 C 118.955518 -23.016982 236.615294 -23.015923 354.274347 77.053402 " stroke="#ffffff" stroke-width="4" stroke-opacity="1" stroke-miterlimit="4"/><path stroke-linecap="butt" transform="matrix(0.537785, 0.522768, -0.522768, 0.537785, 40.23852, 148.028222)" fill="none" stroke-linejoin="miter" d="M 1.298341 77.052269 C 118.747681 -23.018863 236.194403 -23.01702 353.642243 77.054169 " stroke="#ffffff" stroke-width="4" stroke-opacity="1" stroke-miterlimit="4"/><g clip-path="url(#d1727bfd97)"><g clip-path="url(#b1c0e5de4c)"><path fill="#a3cef1" d="M 121.492188 121.492188 L 253.507812 121.492188 L 253.507812 253.507812 L 121.492188 253.507812 Z M 121.492188 121.492188 " fill-opacity="1" fill-rule="nonzero"/></g></g></svg>