<svg xmlns="http://www.w3.org/2000/svg" xmlns:xlink="http://www.w3.org/1999/xlink" width="1920" zoomAndPan="magnify" viewBox="0 0 1440 809.999993" height="1080" preserveAspectRatio="xMidYMid meet" version="1.0"><defs><g/></defs><g fill="#ffffff" fill-opacity="1"><g transform="translate(127.71901, 442.499998)"><g><path d="M 35.25 -0.15625 L 32.546875 0 L 17.25 0 C 16.644531 0 16.039062 -0.046875 15.4375 -0.140625 C 14.84375 -0.242188 14.25 -0.347656 13.65625 -0.453125 C 13.445312 -2.648438 13.289062 -4.820312 13.1875 -6.96875 C 13.09375 -9.125 13.046875 -11.300781 13.046875 -13.5 L 13.046875 -87 C 13.046875 -89.300781 13.117188 -91.597656 13.265625 -93.890625 C 13.421875 -96.191406 13.550781 -98.492188 13.65625 -100.796875 C 15.445312 -100.992188 17.242188 -101.144531 19.046875 -101.25 C 20.847656 -101.351562 22.648438 -101.40625 24.453125 -101.40625 L 33.90625 -101.09375 C 34.195312 -101.09375 34.617188 -100.992188 35.171875 -100.796875 C 35.722656 -100.597656 36 -100.5 36 -100.5 C 36 -84.195312 36.046875 -67.46875 36.140625 -50.3125 C 36.242188 -33.164062 35.945312 -16.445312 35.25 -0.15625 Z M 35.25 -0.15625 "/></g></g></g><g fill="#ffffff" fill-opacity="1"><g transform="translate(169.119022, 442.499998)"><g><path d="M 69.15625 -40.65625 C 66.550781 -41.445312 63.722656 -41.71875 60.671875 -41.46875 C 57.617188 -41.21875 54.695312 -41.296875 51.90625 -41.703125 C 51.601562 -43.296875 51.398438 -45.09375 51.296875 -47.09375 C 51.203125 -49.09375 51.15625 -50.894531 51.15625 -52.5 C 51.15625 -54.300781 51.378906 -55.425781 51.828125 -55.875 C 52.273438 -56.320312 53.398438 -56.546875 55.203125 -56.546875 C 61.296875 -56.546875 67.492188 -56.59375 73.796875 -56.6875 C 80.097656 -56.789062 86.25 -56.546875 92.25 -55.953125 C 92.445312 -54.648438 92.59375 -53.347656 92.6875 -52.046875 C 92.789062 -50.742188 92.84375 -49.394531 92.84375 -48 C 92.84375 -41.394531 92.039062 -35.144531 90.4375 -29.25 C 88.84375 -23.351562 86.34375 -18.078125 82.9375 -13.421875 C 79.539062 -8.773438 75.21875 -5.125 69.96875 -2.46875 C 64.71875 0.175781 58.492188 1.5 51.296875 1.5 C 41.898438 1.5 34 -0.722656 27.59375 -5.171875 C 21.195312 -9.617188 16.375 -15.539062 13.125 -22.9375 C 9.875 -30.34375 8.25 -38.445312 8.25 -47.25 C 8.25 -54.445312 9.046875 -61.367188 10.640625 -68.015625 C 12.242188 -74.671875 14.796875 -80.625 18.296875 -85.875 C 21.796875 -91.125 26.367188 -95.273438 32.015625 -98.328125 C 37.671875 -101.378906 44.550781 -102.90625 52.65625 -102.90625 C 57.15625 -102.90625 61.703125 -102.300781 66.296875 -101.09375 C 70.898438 -99.894531 74.953125 -97.867188 78.453125 -95.015625 C 81.953125 -92.171875 84.203125 -88.25 85.203125 -83.25 C 82.703125 -81.144531 80.023438 -79.394531 77.171875 -78 C 74.328125 -76.601562 71.15625 -75.65625 67.65625 -75.15625 C 66.050781 -78.65625 64 -80.878906 61.5 -81.828125 C 59 -82.773438 55.945312 -83.25 52.34375 -83.25 C 48.34375 -83.25 44.894531 -82.273438 42 -80.328125 C 39.101562 -78.378906 36.78125 -75.828125 35.03125 -72.671875 C 33.28125 -69.523438 31.976562 -66.148438 31.125 -62.546875 C 30.269531 -58.953125 29.84375 -55.503906 29.84375 -52.203125 C 29.84375 -48.796875 30.144531 -45.144531 30.75 -41.25 C 31.351562 -37.351562 32.453125 -33.726562 34.046875 -30.375 C 35.648438 -27.019531 37.847656 -24.269531 40.640625 -22.125 C 43.441406 -19.976562 46.992188 -18.90625 51.296875 -18.90625 C 57.796875 -18.90625 62.644531 -20.78125 65.84375 -24.53125 C 69.050781 -28.28125 70.65625 -33.300781 70.65625 -39.59375 C 70.65625 -39.800781 70.425781 -40.003906 69.96875 -40.203125 C 69.519531 -40.398438 69.25 -40.550781 69.15625 -40.65625 Z M 69.15625 -40.65625 "/></g></g></g><g fill="#ffffff" fill-opacity="1"><g transform="translate(262.419042, 442.499998)"><g><path d="M 96.59375 -19.796875 L 97.203125 -18.59375 C 97.503906 -15.894531 97.90625 -13.21875 98.40625 -10.5625 C 98.90625 -7.914062 99.15625 -5.242188 99.15625 -2.546875 C 99.15625 -1.046875 98.253906 0 96.453125 0.59375 C 94.648438 1.195312 92.671875 1.546875 90.515625 1.640625 C 88.367188 1.742188 86.695312 1.796875 85.5 1.796875 C 80.101562 1.796875 75.476562 0.472656 71.625 -2.171875 C 67.769531 -4.828125 64.46875 -8.40625 61.71875 -12.90625 C 58.96875 -17.40625 56.59375 -22.300781 54.59375 -27.59375 L 51.296875 -37.34375 C 50.097656 -38.050781 48.847656 -38.425781 47.546875 -38.46875 C 46.242188 -38.519531 44.894531 -38.546875 43.5 -38.546875 C 42.300781 -38.546875 41.078125 -38.546875 39.828125 -38.546875 C 38.578125 -38.546875 37.351562 -38.445312 36.15625 -38.25 C 36.050781 -36.75 35.972656 -35.222656 35.921875 -33.671875 C 35.867188 -32.117188 35.84375 -30.59375 35.84375 -29.09375 C 35.945312 -24.5 36.097656 -19.800781 36.296875 -15 C 36.492188 -10.195312 36.34375 -5.445312 35.84375 -0.75 C 33.34375 -0.351562 30.914062 -0.0820312 28.5625 0.0625 C 26.21875 0.21875 23.796875 0.296875 21.296875 0.296875 L 15.15625 0.15625 C 14.75 -0.550781 14.394531 -2.503906 14.09375 -5.703125 C 13.800781 -8.898438 13.578125 -12.921875 13.421875 -17.765625 C 13.273438 -22.617188 13.175781 -27.945312 13.125 -33.75 C 13.070312 -39.550781 13.070312 -45.398438 13.125 -51.296875 C 13.175781 -57.203125 13.203125 -62.800781 13.203125 -68.09375 C 13.203125 -73.394531 13.222656 -78.019531 13.265625 -81.96875 C 13.316406 -85.925781 13.34375 -88.800781 13.34375 -90.59375 C 13.34375 -92.300781 13.367188 -94.03125 13.421875 -95.78125 C 13.472656 -97.53125 13.648438 -99.203125 13.953125 -100.796875 C 17.148438 -101.398438 20.472656 -101.648438 23.921875 -101.546875 C 27.367188 -101.453125 30.644531 -101.40625 33.75 -101.40625 C 38.445312 -101.40625 43.367188 -101.300781 48.515625 -101.09375 C 53.671875 -100.894531 58.671875 -100.296875 63.515625 -99.296875 C 68.367188 -98.296875 72.71875 -96.644531 76.5625 -94.34375 C 80.414062 -92.050781 83.492188 -88.90625 85.796875 -84.90625 C 88.097656 -80.90625 89.25 -75.703125 89.25 -69.296875 C 89.25 -62.898438 87.75 -57.625 84.75 -53.46875 C 81.75 -49.320312 77.195312 -45.347656 71.09375 -41.546875 C 72.09375 -38.046875 73.617188 -34.519531 75.671875 -30.96875 C 77.722656 -27.425781 80 -24.503906 82.5 -22.203125 C 85 -19.898438 87.347656 -18.800781 89.546875 -18.90625 C 90.453125 -19 91.453125 -19.019531 92.546875 -18.96875 C 93.648438 -18.925781 95 -19.203125 96.59375 -19.796875 Z M 35.84375 -65.09375 L 35.84375 -56.25 C 36.25 -55.75 36.75 -55.398438 37.34375 -55.203125 C 37.945312 -55.003906 38.550781 -54.90625 39.15625 -54.90625 C 41.851562 -54.90625 44.828125 -54.953125 48.078125 -55.046875 C 51.328125 -55.148438 54.398438 -55.597656 57.296875 -56.390625 C 60.203125 -57.191406 62.601562 -58.59375 64.5 -60.59375 C 66.394531 -62.59375 67.34375 -65.445312 67.34375 -69.15625 C 67.34375 -72.75 66.441406 -75.492188 64.640625 -77.390625 C 62.847656 -79.296875 60.523438 -80.625 57.671875 -81.375 C 54.828125 -82.125 51.851562 -82.546875 48.75 -82.640625 C 45.644531 -82.742188 42.796875 -82.796875 40.203125 -82.796875 C 37.703125 -82.796875 36.375 -82.242188 36.21875 -81.140625 C 36.070312 -80.046875 36 -78.445312 36 -76.34375 C 36 -74.445312 35.972656 -72.546875 35.921875 -70.640625 C 35.867188 -68.742188 35.84375 -66.894531 35.84375 -65.09375 Z M 35.84375 -65.09375 "/></g></g></g><g fill="#ffffff" fill-opacity="1"><g transform="translate(356.019063, 442.499998)"><g><path d="M 78.59375 0.15625 L 55.5 0.15625 C 49 0.15625 42.097656 0.328125 34.796875 0.671875 C 27.492188 1.023438 20.742188 0.601562 14.546875 -0.59375 C 13.847656 -7 13.398438 -13.925781 13.203125 -21.375 C 13.003906 -28.820312 13.003906 -36.421875 13.203125 -44.171875 C 13.398438 -51.921875 13.597656 -59.59375 13.796875 -67.1875 C 13.992188 -74.789062 14.09375 -81.945312 14.09375 -88.65625 L 14.40625 -100.796875 C 16.40625 -100.992188 18.40625 -101.117188 20.40625 -101.171875 C 22.40625 -101.222656 24.40625 -101.25 26.40625 -101.25 L 72 -101.25 L 79.203125 -100.953125 C 79.503906 -97.953125 79.65625 -94.898438 79.65625 -91.796875 C 79.65625 -90.398438 79.65625 -88.972656 79.65625 -87.515625 C 79.65625 -86.066406 79.550781 -84.644531 79.34375 -83.25 C 78.050781 -83.144531 76.703125 -83.019531 75.296875 -82.875 C 73.898438 -82.726562 72.550781 -82.65625 71.25 -82.65625 C 65.25 -82.65625 59.25 -82.753906 53.25 -82.953125 C 47.25 -83.148438 41.300781 -82.800781 35.40625 -81.90625 C 35.300781 -80.90625 35.222656 -79.925781 35.171875 -78.96875 C 35.117188 -78.019531 35.09375 -77.046875 35.09375 -76.046875 L 35.25 -61.046875 C 40.550781 -60.546875 45.75 -60.421875 50.84375 -60.671875 C 55.945312 -60.921875 61.695312 -61.046875 68.09375 -61.046875 C 68.300781 -61.046875 68.503906 -60.71875 68.703125 -60.0625 C 68.898438 -59.414062 69.050781 -58.695312 69.15625 -57.90625 L 68.25 -45.296875 C 68.25 -44.296875 67.320312 -43.695312 65.46875 -43.5 C 63.625 -43.300781 61.851562 -43.203125 60.15625 -43.203125 C 56.15625 -43.203125 52.03125 -43.222656 47.78125 -43.265625 C 43.53125 -43.316406 39.40625 -43.242188 35.40625 -43.046875 L 35.09375 -34.796875 L 35.09375 -21.296875 C 37 -20.203125 39.773438 -19.53125 43.421875 -19.28125 C 47.078125 -19.03125 51.050781 -18.976562 55.34375 -19.125 C 59.644531 -19.269531 63.867188 -19.441406 68.015625 -19.640625 C 72.171875 -19.847656 75.75 -19.800781 78.75 -19.5 C 79.050781 -17.894531 79.25 -16.242188 79.34375 -14.546875 C 79.445312 -12.847656 79.5 -11.148438 79.5 -9.453125 C 79.5 -7.847656 79.398438 -6.242188 79.203125 -4.640625 C 79.003906 -3.046875 78.800781 -1.445312 78.59375 0.15625 Z M 78.59375 0.15625 "/></g></g></g><g fill="#ffffff" fill-opacity="1"><g transform="translate(435.369072, 442.499998)"><g><path d="M 74.546875 -94.953125 L 74.546875 -79.046875 C 74.546875 -74.453125 74.617188 -69.253906 74.765625 -63.453125 C 74.921875 -57.648438 74.875 -51.722656 74.625 -45.671875 C 74.375 -39.617188 73.671875 -33.769531 72.515625 -28.125 C 71.367188 -22.476562 69.570312 -17.378906 67.125 -12.828125 C 64.675781 -8.273438 61.273438 -4.671875 56.921875 -2.015625 C 52.578125 0.628906 47.003906 1.953125 40.203125 1.953125 C 32.203125 1.953125 25.578125 0.300781 20.328125 -3 C 15.078125 -6.300781 11.175781 -10.875 8.625 -16.71875 C 6.070312 -22.570312 4.796875 -29.398438 4.796875 -37.203125 C 5.296875 -37.398438 6.144531 -37.570312 7.34375 -37.71875 C 8.550781 -37.875 9.300781 -37.953125 9.59375 -37.953125 C 10.894531 -37.953125 12.695312 -38.050781 15 -38.25 C 17.300781 -38.445312 19.550781 -38.546875 21.75 -38.546875 C 23.945312 -38.546875 25.445312 -38.144531 26.25 -37.34375 C 26.25 -34.050781 26.722656 -30.976562 27.671875 -28.125 C 28.617188 -25.269531 30.09375 -22.941406 32.09375 -21.140625 C 34.09375 -19.347656 36.59375 -18.453125 39.59375 -18.453125 C 42.59375 -18.453125 44.992188 -19.398438 46.796875 -21.296875 C 48.597656 -23.203125 50 -25.65625 51 -28.65625 C 52 -31.65625 52.671875 -34.878906 53.015625 -38.328125 C 53.367188 -41.773438 53.546875 -45.097656 53.546875 -48.296875 C 53.546875 -51.492188 53.546875 -54.195312 53.546875 -56.40625 C 53.546875 -58.195312 53.492188 -60.664062 53.390625 -63.8125 C 53.296875 -66.96875 53.195312 -70.394531 53.09375 -74.09375 C 53 -77.800781 52.953125 -81.476562 52.953125 -85.125 C 52.953125 -88.769531 53.078125 -92.019531 53.328125 -94.875 C 53.578125 -97.726562 54 -99.800781 54.59375 -101.09375 C 56.195312 -101.300781 57.75 -101.40625 59.25 -101.40625 C 60.75 -101.40625 62.300781 -101.40625 63.90625 -101.40625 C 66.300781 -101.40625 68.273438 -101.425781 69.828125 -101.46875 C 71.378906 -101.519531 72.550781 -101.117188 73.34375 -100.265625 C 74.144531 -99.421875 74.546875 -97.648438 74.546875 -94.953125 Z M 74.546875 -94.953125 "/></g></g></g><g fill="#ffffff" fill-opacity="1"><g transform="translate(514.569073, 442.499998)"><g><path d="M 85.65625 0.296875 L 70.34375 0.296875 C 68.550781 0.296875 66.753906 0.144531 64.953125 -0.15625 C 63.953125 -4.25 62.972656 -8.421875 62.015625 -12.671875 C 61.066406 -16.921875 60.046875 -21.097656 58.953125 -25.203125 L 48.59375 -25.203125 C 43.195312 -25.203125 37.695312 -25.050781 32.09375 -24.75 C 30.5 -16.644531 28.550781 -8.492188 26.25 -0.296875 L 21 0 L 11.40625 0 C 10.300781 0 9.148438 -0.0703125 7.953125 -0.21875 C 6.753906 -0.375 5.601562 -0.5 4.5 -0.59375 C 6.195312 -11.300781 8.570312 -22.328125 11.625 -33.671875 C 14.675781 -45.023438 17.875 -56.425781 21.21875 -67.875 C 24.570312 -79.320312 27.445312 -90.394531 29.84375 -101.09375 C 31.550781 -101.195312 33.28125 -101.296875 35.03125 -101.390625 C 36.78125 -101.492188 38.503906 -101.546875 40.203125 -101.546875 C 44.296875 -101.546875 48.414062 -101.546875 52.5625 -101.546875 C 56.71875 -101.546875 60.847656 -101.445312 64.953125 -101.25 C 65.648438 -98.644531 66.625 -94.691406 67.875 -89.390625 C 69.125 -84.097656 70.546875 -78.050781 72.140625 -71.25 C 73.742188 -64.445312 75.34375 -57.46875 76.9375 -50.3125 C 78.539062 -43.164062 80.019531 -36.34375 81.375 -29.84375 C 82.726562 -23.34375 83.828125 -17.742188 84.671875 -13.046875 C 85.523438 -8.347656 85.953125 -5.148438 85.953125 -3.453125 Z M 41.84375 -44.40625 L 43.953125 -44.40625 C 45.953125 -44.40625 48.097656 -44.40625 50.390625 -44.40625 C 52.691406 -44.40625 54.796875 -44.601562 56.703125 -45 C 56.398438 -48.300781 55.875 -51.550781 55.125 -54.75 C 54.375 -57.945312 53.695312 -61.144531 53.09375 -64.34375 C 52.5 -68.050781 52.050781 -70.976562 51.75 -73.125 C 51.445312 -75.269531 51.019531 -76.816406 50.46875 -77.765625 C 49.925781 -78.722656 48.90625 -79.203125 47.40625 -79.203125 C 47 -79.203125 46.59375 -79.203125 46.1875 -79.203125 C 45.789062 -79.203125 45.394531 -79.148438 45 -79.046875 C 44 -73.242188 42.546875 -67.519531 40.640625 -61.875 C 38.742188 -56.226562 37.546875 -50.453125 37.046875 -44.546875 C 37.847656 -44.453125 38.648438 -44.40625 39.453125 -44.40625 C 40.253906 -44.40625 41.050781 -44.40625 41.84375 -44.40625 Z M 41.84375 -44.40625 "/></g></g></g><g fill="#ffffff" fill-opacity="1"><g transform="translate(597.219077, 442.499998)"><g/></g></g><g fill="#ffffff" fill-opacity="1"><g transform="translate(626.919104, 442.499998)"><g><path d="M 14.09375 -0.453125 L 13.953125 -6.75 L 13.953125 -52.65625 C 13.953125 -57.851562 13.800781 -63.25 13.5 -68.84375 C 13.195312 -74.445312 13.144531 -79.972656 13.34375 -85.421875 C 13.550781 -90.867188 14.40625 -96.046875 15.90625 -100.953125 L 36.453125 -101.25 C 49.453125 -101.25 60.25 -99.648438 68.84375 -96.453125 C 77.445312 -93.253906 83.875 -87.675781 88.125 -79.71875 C 92.375 -71.769531 94.5 -60.644531 94.5 -46.34375 C 94.5 -37.75 93.296875 -30.625 90.890625 -24.96875 C 88.492188 -19.320312 85.144531 -14.796875 80.84375 -11.390625 C 76.550781 -7.992188 71.578125 -5.445312 65.921875 -3.75 C 60.273438 -2.050781 54.203125 -0.953125 47.703125 -0.453125 C 41.203125 0.046875 34.550781 0.296875 27.75 0.296875 C 25.550781 0.296875 23.300781 0.269531 21 0.21875 C 18.695312 0.175781 16.394531 -0.046875 14.09375 -0.453125 Z M 37.203125 -20.09375 C 38.296875 -19.695312 39.441406 -19.5 40.640625 -19.5 C 41.847656 -19.5 43 -19.5 44.09375 -19.5 C 53.59375 -19.5 60.691406 -22.097656 65.390625 -27.296875 C 70.097656 -32.492188 72.453125 -39.742188 72.453125 -49.046875 C 72.453125 -57.148438 71.453125 -63.5 69.453125 -68.09375 C 67.453125 -72.695312 64.203125 -75.945312 59.703125 -77.84375 C 55.203125 -79.75 49.101562 -80.703125 41.40625 -80.703125 C 40.695312 -80.703125 39.992188 -80.703125 39.296875 -80.703125 C 38.597656 -80.703125 37.898438 -80.601562 37.203125 -80.40625 C 36.398438 -71.300781 36.125 -62.046875 36.375 -52.640625 C 36.625 -43.242188 36.75 -33.945312 36.75 -24.75 C 36.75 -23.144531 36.898438 -21.59375 37.203125 -20.09375 Z M 37.203125 -20.09375 "/></g></g></g><g fill="#ffffff" fill-opacity="1"><g transform="translate(721.869127, 442.499998)"><g><path d="M 78.59375 0.15625 L 55.5 0.15625 C 49 0.15625 42.097656 0.328125 34.796875 0.671875 C 27.492188 1.023438 20.742188 0.601562 14.546875 -0.59375 C 13.847656 -7 13.398438 -13.925781 13.203125 -21.375 C 13.003906 -28.820312 13.003906 -36.421875 13.203125 -44.171875 C 13.398438 -51.921875 13.597656 -59.59375 13.796875 -67.1875 C 13.992188 -74.789062 14.09375 -81.945312 14.09375 -88.65625 L 14.40625 -100.796875 C 16.40625 -100.992188 18.40625 -101.117188 20.40625 -101.171875 C 22.40625 -101.222656 24.40625 -101.25 26.40625 -101.25 L 72 -101.25 L 79.203125 -100.953125 C 79.503906 -97.953125 79.65625 -94.898438 79.65625 -91.796875 C 79.65625 -90.398438 79.65625 -88.972656 79.65625 -87.515625 C 79.65625 -86.066406 79.550781 -84.644531 79.34375 -83.25 C 78.050781 -83.144531 76.703125 -83.019531 75.296875 -82.875 C 73.898438 -82.726562 72.550781 -82.65625 71.25 -82.65625 C 65.25 -82.65625 59.25 -82.753906 53.25 -82.953125 C 47.25 -83.148438 41.300781 -82.800781 35.40625 -81.90625 C 35.300781 -80.90625 35.222656 -79.925781 35.171875 -78.96875 C 35.117188 -78.019531 35.09375 -77.046875 35.09375 -76.046875 L 35.25 -61.046875 C 40.550781 -60.546875 45.75 -60.421875 50.84375 -60.671875 C 55.945312 -60.921875 61.695312 -61.046875 68.09375 -61.046875 C 68.300781 -61.046875 68.503906 -60.71875 68.703125 -60.0625 C 68.898438 -59.414062 69.050781 -58.695312 69.15625 -57.90625 L 68.25 -45.296875 C 68.25 -44.296875 67.320312 -43.695312 65.46875 -43.5 C 63.625 -43.300781 61.851562 -43.203125 60.15625 -43.203125 C 56.15625 -43.203125 52.03125 -43.222656 47.78125 -43.265625 C 43.53125 -43.316406 39.40625 -43.242188 35.40625 -43.046875 L 35.09375 -34.796875 L 35.09375 -21.296875 C 37 -20.203125 39.773438 -19.53125 43.421875 -19.28125 C 47.078125 -19.03125 51.050781 -18.976562 55.34375 -19.125 C 59.644531 -19.269531 63.867188 -19.441406 68.015625 -19.640625 C 72.171875 -19.847656 75.75 -19.800781 78.75 -19.5 C 79.050781 -17.894531 79.25 -16.242188 79.34375 -14.546875 C 79.445312 -12.847656 79.5 -11.148438 79.5 -9.453125 C 79.5 -7.847656 79.398438 -6.242188 79.203125 -4.640625 C 79.003906 -3.046875 78.800781 -1.445312 78.59375 0.15625 Z M 78.59375 0.15625 "/></g></g></g><g fill="#ffffff" fill-opacity="1"><g transform="translate(801.219159, 442.499998)"><g/></g></g><g fill="#ffffff" fill-opacity="1"><g transform="translate(830.919186, 442.499998)"><g><path d="M 8.25 -49.046875 C 8.25 -56.148438 9.125 -62.953125 10.875 -69.453125 C 12.625 -75.953125 15.273438 -81.722656 18.828125 -86.765625 C 22.378906 -91.816406 26.828125 -95.816406 32.171875 -98.765625 C 37.523438 -101.722656 43.800781 -103.203125 51 -103.203125 C 55.800781 -103.203125 60.675781 -102.472656 65.625 -101.015625 C 70.570312 -99.566406 75.070312 -97.394531 79.125 -94.5 C 83.175781 -91.601562 86.300781 -87.90625 88.5 -83.40625 C 85.894531 -80 82.867188 -77.367188 79.421875 -75.515625 C 75.972656 -73.671875 73.347656 -72.050781 71.546875 -70.65625 C 69.648438 -74.945312 67.125 -77.816406 63.96875 -79.265625 C 60.820312 -80.722656 57.398438 -81.453125 53.703125 -81.453125 C 48.003906 -81.453125 43.550781 -80.097656 40.34375 -77.390625 C 37.144531 -74.691406 34.921875 -70.96875 33.671875 -66.21875 C 32.421875 -61.46875 31.796875 -55.992188 31.796875 -49.796875 C 31.796875 -46.703125 32.019531 -43.40625 32.46875 -39.90625 C 32.925781 -36.40625 33.851562 -33.128906 35.25 -30.078125 C 36.644531 -27.023438 38.742188 -24.523438 41.546875 -22.578125 C 44.347656 -20.628906 48.148438 -19.65625 52.953125 -19.65625 C 56.347656 -19.65625 59.144531 -20.203125 61.34375 -21.296875 C 63.550781 -22.398438 65.550781 -24.078125 67.34375 -26.328125 C 69.144531 -28.578125 71.144531 -31.300781 73.34375 -34.5 C 76.25 -34.394531 79.222656 -33.519531 82.265625 -31.875 C 85.316406 -30.226562 88.046875 -28.703125 90.453125 -27.296875 C 89.046875 -22.097656 86.617188 -17.296875 83.171875 -12.890625 C 79.722656 -8.492188 75.320312 -4.96875 69.96875 -2.3125 C 64.625 0.332031 58.300781 1.65625 51 1.65625 C 41.695312 1.65625 33.867188 -0.539062 27.515625 -4.9375 C 21.171875 -9.34375 16.375 -15.367188 13.125 -23.015625 C 9.875 -30.671875 8.25 -39.347656 8.25 -49.046875 Z M 8.25 -49.046875 "/></g></g></g><g fill="#ffffff" fill-opacity="1"><g transform="translate(919.56919, 442.499998)"><g><path d="M 96.59375 -19.796875 L 97.203125 -18.59375 C 97.503906 -15.894531 97.90625 -13.21875 98.40625 -10.5625 C 98.90625 -7.914062 99.15625 -5.242188 99.15625 -2.546875 C 99.15625 -1.046875 98.253906 0 96.453125 0.59375 C 94.648438 1.195312 92.671875 1.546875 90.515625 1.640625 C 88.367188 1.742188 86.695312 1.796875 85.5 1.796875 C 80.101562 1.796875 75.476562 0.472656 71.625 -2.171875 C 67.769531 -4.828125 64.46875 -8.40625 61.71875 -12.90625 C 58.96875 -17.40625 56.59375 -22.300781 54.59375 -27.59375 L 51.296875 -37.34375 C 50.097656 -38.050781 48.847656 -38.425781 47.546875 -38.46875 C 46.242188 -38.519531 44.894531 -38.546875 43.5 -38.546875 C 42.300781 -38.546875 41.078125 -38.546875 39.828125 -38.546875 C 38.578125 -38.546875 37.351562 -38.445312 36.15625 -38.25 C 36.050781 -36.75 35.972656 -35.222656 35.921875 -33.671875 C 35.867188 -32.117188 35.84375 -30.59375 35.84375 -29.09375 C 35.945312 -24.5 36.097656 -19.800781 36.296875 -15 C 36.492188 -10.195312 36.34375 -5.445312 35.84375 -0.75 C 33.34375 -0.351562 30.914062 -0.0820312 28.5625 0.0625 C 26.21875 0.21875 23.796875 0.296875 21.296875 0.296875 L 15.15625 0.15625 C 14.75 -0.550781 14.394531 -2.503906 14.09375 -5.703125 C 13.800781 -8.898438 13.578125 -12.921875 13.421875 -17.765625 C 13.273438 -22.617188 13.175781 -27.945312 13.125 -33.75 C 13.070312 -39.550781 13.070312 -45.398438 13.125 -51.296875 C 13.175781 -57.203125 13.203125 -62.800781 13.203125 -68.09375 C 13.203125 -73.394531 13.222656 -78.019531 13.265625 -81.96875 C 13.316406 -85.925781 13.34375 -88.800781 13.34375 -90.59375 C 13.34375 -92.300781 13.367188 -94.03125 13.421875 -95.78125 C 13.472656 -97.53125 13.648438 -99.203125 13.953125 -100.796875 C 17.148438 -101.398438 20.472656 -101.648438 23.921875 -101.546875 C 27.367188 -101.453125 30.644531 -101.40625 33.75 -101.40625 C 38.445312 -101.40625 43.367188 -101.300781 48.515625 -101.09375 C 53.671875 -100.894531 58.671875 -100.296875 63.515625 -99.296875 C 68.367188 -98.296875 72.71875 -96.644531 76.5625 -94.34375 C 80.414062 -92.050781 83.492188 -88.90625 85.796875 -84.90625 C 88.097656 -80.90625 89.25 -75.703125 89.25 -69.296875 C 89.25 -62.898438 87.75 -57.625 84.75 -53.46875 C 81.75 -49.320312 77.195312 -45.347656 71.09375 -41.546875 C 72.09375 -38.046875 73.617188 -34.519531 75.671875 -30.96875 C 77.722656 -27.425781 80 -24.503906 82.5 -22.203125 C 85 -19.898438 87.347656 -18.800781 89.546875 -18.90625 C 90.453125 -19 91.453125 -19.019531 92.546875 -18.96875 C 93.648438 -18.925781 95 -19.203125 96.59375 -19.796875 Z M 35.84375 -65.09375 L 35.84375 -56.25 C 36.25 -55.75 36.75 -55.398438 37.34375 -55.203125 C 37.945312 -55.003906 38.550781 -54.90625 39.15625 -54.90625 C 41.851562 -54.90625 44.828125 -54.953125 48.078125 -55.046875 C 51.328125 -55.148438 54.398438 -55.597656 57.296875 -56.390625 C 60.203125 -57.191406 62.601562 -58.59375 64.5 -60.59375 C 66.394531 -62.59375 67.34375 -65.445312 67.34375 -69.15625 C 67.34375 -72.75 66.441406 -75.492188 64.640625 -77.390625 C 62.847656 -79.296875 60.523438 -80.625 57.671875 -81.375 C 54.828125 -82.125 51.851562 -82.546875 48.75 -82.640625 C 45.644531 -82.742188 42.796875 -82.796875 40.203125 -82.796875 C 37.703125 -82.796875 36.375 -82.242188 36.21875 -81.140625 C 36.070312 -80.046875 36 -78.445312 36 -76.34375 C 36 -74.445312 35.972656 -72.546875 35.921875 -70.640625 C 35.867188 -68.742188 35.84375 -66.894531 35.84375 -65.09375 Z M 35.84375 -65.09375 "/></g></g></g><g fill="#ffffff" fill-opacity="1"><g transform="translate(1013.169222, 442.499998)"><g><path d="M 35.25 -0.15625 L 32.546875 0 L 17.25 0 C 16.644531 0 16.039062 -0.046875 15.4375 -0.140625 C 14.84375 -0.242188 14.25 -0.347656 13.65625 -0.453125 C 13.445312 -2.648438 13.289062 -4.820312 13.1875 -6.96875 C 13.09375 -9.125 13.046875 -11.300781 13.046875 -13.5 L 13.046875 -87 C 13.046875 -89.300781 13.117188 -91.597656 13.265625 -93.890625 C 13.421875 -96.191406 13.550781 -98.492188 13.65625 -100.796875 C 15.445312 -100.992188 17.242188 -101.144531 19.046875 -101.25 C 20.847656 -101.351562 22.648438 -101.40625 24.453125 -101.40625 L 33.90625 -101.09375 C 34.195312 -101.09375 34.617188 -100.992188 35.171875 -100.796875 C 35.722656 -100.597656 36 -100.5 36 -100.5 C 36 -84.195312 36.046875 -67.46875 36.140625 -50.3125 C 36.242188 -33.164062 35.945312 -16.445312 35.25 -0.15625 Z M 35.25 -0.15625 "/></g></g></g><g fill="#ffffff" fill-opacity="1"><g transform="translate(1054.569275, 442.499998)"><g><path d="M 7.203125 -20.546875 C 7.503906 -20.847656 8.203125 -21.847656 9.296875 -23.546875 C 10.398438 -25.242188 12 -27.019531 14.09375 -28.875 C 16.195312 -30.726562 18.898438 -31.953125 22.203125 -32.546875 C 23.898438 -27.847656 26.921875 -24.148438 31.265625 -21.453125 C 35.617188 -18.753906 40.097656 -17.40625 44.703125 -17.40625 C 48.898438 -17.40625 52.070312 -18.476562 54.21875 -20.625 C 56.375 -22.769531 57.453125 -25.394531 57.453125 -28.5 C 57.453125 -31.800781 56.300781 -34.550781 54 -36.75 C 51.695312 -38.945312 48.769531 -40.867188 45.21875 -42.515625 C 41.675781 -44.171875 37.878906 -45.875 33.828125 -47.625 C 29.773438 -49.375 25.945312 -51.398438 22.34375 -53.703125 C 18.75 -56.003906 15.828125 -58.925781 13.578125 -62.46875 C 11.328125 -66.019531 10.203125 -70.445312 10.203125 -75.75 C 10.203125 -80.644531 11.175781 -84.84375 13.125 -88.34375 C 15.070312 -91.84375 17.644531 -94.71875 20.84375 -96.96875 C 24.050781 -99.21875 27.601562 -100.894531 31.5 -102 C 35.394531 -103.101562 39.296875 -103.65625 43.203125 -103.65625 C 46.796875 -103.65625 50.46875 -103.175781 54.21875 -102.21875 C 57.96875 -101.269531 61.441406 -99.84375 64.640625 -97.9375 C 67.847656 -96.039062 70.425781 -93.59375 72.375 -90.59375 C 74.320312 -87.59375 75.296875 -83.992188 75.296875 -79.796875 C 74.898438 -79.597656 74.023438 -79.171875 72.671875 -78.515625 C 71.328125 -77.867188 69.78125 -77.171875 68.03125 -76.421875 C 66.28125 -75.671875 64.675781 -75.019531 63.21875 -74.46875 C 61.769531 -73.925781 60.796875 -73.703125 60.296875 -73.796875 C 58.097656 -77.398438 55.5 -80.25 52.5 -82.34375 C 49.5 -84.445312 46.097656 -85.5 42.296875 -85.5 C 38.597656 -85.5 35.921875 -84.570312 34.265625 -82.71875 C 32.617188 -80.875 31.796875 -78.800781 31.796875 -76.5 C 31.796875 -73.601562 32.921875 -71.15625 35.171875 -69.15625 C 37.421875 -67.15625 40.34375 -65.300781 43.9375 -63.59375 C 47.539062 -61.894531 51.316406 -60.144531 55.265625 -58.34375 C 59.222656 -56.550781 63 -54.351562 66.59375 -51.75 C 70.195312 -49.144531 73.125 -45.941406 75.375 -42.140625 C 77.625 -38.347656 78.75 -33.648438 78.75 -28.046875 C 78.75 -22.046875 77.347656 -16.769531 74.546875 -12.21875 C 71.742188 -7.675781 67.789062 -4.128906 62.6875 -1.578125 C 57.59375 0.972656 51.597656 2.25 44.703125 2.25 C 39.203125 2.25 34.425781 1.523438 30.375 0.078125 C 26.320312 -1.367188 22.867188 -3.164062 20.015625 -5.3125 C 17.171875 -7.46875 14.847656 -9.671875 13.046875 -11.921875 C 11.242188 -14.171875 9.867188 -16.09375 8.921875 -17.6875 C 7.972656 -19.289062 7.398438 -20.242188 7.203125 -20.546875 Z M 7.046875 -20.546875 L 7.203125 -20.546875 C 7.097656 -20.453125 7.046875 -20.453125 7.046875 -20.546875 Z M 7.046875 -20.546875 "/></g></g></g><g fill="#ffffff" fill-opacity="1"><g transform="translate(1134.069271, 442.499998)"><g><path d="M 37.046875 0.15625 L 31.65625 -0.15625 C 31.351562 -2.851562 31.203125 -5.550781 31.203125 -8.25 C 31.203125 -20.351562 31.273438 -32.425781 31.421875 -44.46875 C 31.578125 -56.519531 31.253906 -68.546875 30.453125 -80.546875 C 26.253906 -80.742188 22.050781 -80.867188 17.84375 -80.921875 C 13.644531 -80.972656 9.445312 -81.097656 5.25 -81.296875 C 5.050781 -83.597656 4.875 -85.847656 4.71875 -88.046875 C 4.570312 -90.242188 4.5 -92.445312 4.5 -94.65625 C 4.5 -95.75 4.523438 -96.796875 4.578125 -97.796875 C 4.628906 -98.796875 4.753906 -99.796875 4.953125 -100.796875 C 13.453125 -101.296875 21.953125 -101.546875 30.453125 -101.546875 C 38.953125 -101.546875 47.453125 -101.546875 55.953125 -101.546875 C 59.546875 -101.546875 63.144531 -101.46875 66.75 -101.3125 C 70.351562 -101.164062 73.953125 -100.84375 77.546875 -100.34375 C 78.148438 -98.050781 78.472656 -95.675781 78.515625 -93.21875 C 78.566406 -90.769531 78.59375 -88.394531 78.59375 -86.09375 L 78.296875 -81.453125 L 71.84375 -81.15625 C 68.445312 -81.15625 65.070312 -81.203125 61.71875 -81.296875 C 58.375 -81.398438 54.953125 -81.300781 51.453125 -81 C 50.953125 -72.195312 50.875 -63.269531 51.21875 -54.21875 C 51.570312 -45.175781 51.847656 -36.15625 52.046875 -27.15625 C 52.242188 -18.15625 51.796875 -9.253906 50.703125 -0.453125 C 48.503906 -0.046875 46.253906 0.15625 43.953125 0.15625 C 41.648438 0.15625 39.347656 0.15625 37.046875 0.15625 Z M 37.046875 0.15625 "/></g></g></g><g fill="#ffffff" fill-opacity="1"><g transform="translate(1209.519249, 442.499998)"><g><path d="M 52.65625 1.796875 C 44.65625 1.796875 37.828125 0.347656 32.171875 -2.546875 C 26.523438 -5.453125 21.953125 -9.40625 18.453125 -14.40625 C 14.953125 -19.40625 12.375 -25.128906 10.71875 -31.578125 C 9.070312 -38.023438 8.25 -44.800781 8.25 -51.90625 C 8.25 -57.800781 9.148438 -63.722656 10.953125 -69.671875 C 12.753906 -75.617188 15.40625 -81.09375 18.90625 -86.09375 C 22.40625 -91.09375 26.703125 -95.117188 31.796875 -98.171875 C 36.898438 -101.222656 42.75 -102.75 49.34375 -102.75 C 59.34375 -102.75 67.664062 -100.398438 74.3125 -95.703125 C 80.96875 -91.003906 85.992188 -84.78125 89.390625 -77.03125 C 92.796875 -69.28125 94.5 -60.703125 94.5 -51.296875 C 94.5 -44.992188 93.648438 -38.71875 91.953125 -32.46875 C 90.253906 -26.21875 87.675781 -20.492188 84.21875 -15.296875 C 80.769531 -10.097656 76.421875 -5.945312 71.171875 -2.84375 C 65.921875 0.25 59.75 1.796875 52.65625 1.796875 Z M 51.453125 -19.5 C 55.847656 -19.5 59.492188 -20.472656 62.390625 -22.421875 C 65.296875 -24.367188 67.570312 -26.914062 69.21875 -30.0625 C 70.875 -33.21875 72.050781 -36.695312 72.75 -40.5 C 73.445312 -44.300781 73.796875 -48 73.796875 -51.59375 C 73.796875 -55 73.46875 -58.523438 72.8125 -62.171875 C 72.164062 -65.828125 71.066406 -69.203125 69.515625 -72.296875 C 67.972656 -75.398438 65.800781 -77.898438 63 -79.796875 C 60.195312 -81.703125 56.644531 -82.65625 52.34375 -82.65625 C 47.445312 -82.65625 43.472656 -81.476562 40.421875 -79.125 C 37.367188 -76.769531 35.039062 -73.71875 33.4375 -69.96875 C 31.84375 -66.21875 30.769531 -62.191406 30.21875 -57.890625 C 29.675781 -53.597656 29.40625 -49.550781 29.40625 -45.75 C 29.40625 -41.351562 30.253906 -37.15625 31.953125 -33.15625 C 33.648438 -29.15625 36.125 -25.878906 39.375 -23.328125 C 42.625 -20.773438 46.648438 -19.5 51.453125 -19.5 Z M 51.453125 -19.5 "/></g></g></g></svg>