<svg xmlns="http://www.w3.org/2000/svg" xmlns:xlink="http://www.w3.org/1999/xlink" width="3860" zoomAndPan="magnify" viewBox="0 0 2895 899.99999" height="1200" preserveAspectRatio="xMidYMid meet" version="1.0"><defs><g/></defs><g fill="#274c77" fill-opacity="1"><g transform="translate(3.994935, 540.535626)"><g><path d="M 85.90625 -0.359375 L 79.328125 0 L 42.046875 0 C 40.578125 0 39.113281 -0.117188 37.65625 -0.359375 C 36.195312 -0.609375 34.734375 -0.851562 33.265625 -1.09375 C 32.773438 -6.457031 32.410156 -11.757812 32.171875 -17 C 31.929688 -22.238281 31.8125 -27.539062 31.8125 -32.90625 L 31.8125 -212.03125 C 31.8125 -217.632812 31.992188 -223.238281 32.359375 -228.84375 C 32.722656 -234.457031 33.023438 -240.066406 33.265625 -245.671875 C 37.648438 -246.160156 42.035156 -246.523438 46.421875 -246.765625 C 50.816406 -247.003906 55.207031 -247.125 59.59375 -247.125 L 82.625 -246.40625 C 83.351562 -246.40625 84.382812 -246.160156 85.71875 -245.671875 C 87.0625 -245.179688 87.734375 -244.9375 87.734375 -244.9375 C 87.734375 -205.207031 87.851562 -164.441406 88.09375 -122.640625 C 88.34375 -80.847656 87.613281 -40.085938 85.90625 -0.359375 Z M 85.90625 -0.359375 "/></g></g></g><g fill="#274c77" fill-opacity="1"><g transform="translate(104.894775, 540.535626)"><g><path d="M 168.53125 -99.078125 C 162.195312 -101.023438 155.3125 -101.691406 147.875 -101.078125 C 140.4375 -100.472656 133.304688 -100.65625 126.484375 -101.625 C 125.753906 -105.53125 125.265625 -109.921875 125.015625 -114.796875 C 124.773438 -119.671875 124.65625 -124.054688 124.65625 -127.953125 C 124.65625 -132.335938 125.203125 -135.078125 126.296875 -136.171875 C 127.398438 -137.273438 130.144531 -137.828125 134.53125 -137.828125 C 149.394531 -137.828125 164.503906 -137.945312 179.859375 -138.1875 C 195.210938 -138.425781 210.203125 -137.816406 224.828125 -136.359375 C 225.316406 -133.191406 225.679688 -130.023438 225.921875 -126.859375 C 226.171875 -123.691406 226.296875 -120.398438 226.296875 -116.984375 C 226.296875 -100.898438 224.34375 -85.664062 220.4375 -71.28125 C 216.539062 -56.90625 210.445312 -44.050781 202.15625 -32.71875 C 193.875 -21.382812 183.332031 -12.488281 170.53125 -6.03125 C 157.738281 0.425781 142.570312 3.65625 125.03125 3.65625 C 102.113281 3.65625 82.859375 -1.765625 67.265625 -12.609375 C 51.671875 -23.453125 39.910156 -37.890625 31.984375 -55.921875 C 24.066406 -73.960938 20.109375 -93.707031 20.109375 -115.15625 C 20.109375 -132.707031 22.054688 -149.582031 25.953125 -165.78125 C 29.859375 -181.988281 36.070312 -196.488281 44.59375 -209.28125 C 53.125 -222.082031 64.273438 -232.195312 78.046875 -239.625 C 91.816406 -247.0625 108.570312 -250.78125 128.3125 -250.78125 C 139.28125 -250.78125 150.367188 -249.316406 161.578125 -246.390625 C 172.796875 -243.472656 182.671875 -238.539062 191.203125 -231.59375 C 199.734375 -224.644531 205.210938 -215.078125 207.640625 -202.890625 C 201.554688 -197.773438 195.039062 -193.507812 188.09375 -190.09375 C 181.144531 -186.6875 173.40625 -184.375 164.875 -183.15625 C 160.976562 -191.6875 155.984375 -197.109375 149.890625 -199.421875 C 143.796875 -201.734375 136.363281 -202.890625 127.59375 -202.890625 C 117.84375 -202.890625 109.429688 -200.515625 102.359375 -195.765625 C 95.296875 -191.015625 89.628906 -184.800781 85.359375 -177.125 C 81.097656 -169.445312 77.929688 -161.21875 75.859375 -152.4375 C 73.785156 -143.664062 72.75 -135.257812 72.75 -127.21875 C 72.75 -118.9375 73.476562 -110.039062 74.9375 -100.53125 C 76.40625 -91.03125 79.085938 -82.195312 82.984375 -74.03125 C 86.878906 -65.863281 92.238281 -59.160156 99.0625 -53.921875 C 105.894531 -48.679688 114.550781 -46.0625 125.03125 -46.0625 C 140.875 -46.0625 152.691406 -50.628906 160.484375 -59.765625 C 168.285156 -68.910156 172.1875 -81.160156 172.1875 -96.515625 C 172.1875 -97.003906 171.632812 -97.488281 170.53125 -97.96875 C 169.4375 -98.457031 168.769531 -98.828125 168.53125 -99.078125 Z M 168.53125 -99.078125 "/></g></g></g><g fill="#274c77" fill-opacity="1"><g transform="translate(332.285066, 540.535626)"><g><path d="M 235.4375 -48.25 L 236.890625 -45.328125 C 237.617188 -38.753906 238.59375 -32.234375 239.8125 -25.765625 C 241.03125 -19.304688 241.640625 -12.789062 241.640625 -6.21875 C 241.640625 -2.5625 239.445312 -0.00390625 235.0625 1.453125 C 230.675781 2.921875 225.863281 3.773438 220.625 4.015625 C 215.382812 4.265625 211.300781 4.390625 208.375 4.390625 C 195.21875 4.390625 183.945312 1.160156 174.5625 -5.296875 C 165.175781 -11.753906 157.128906 -20.46875 150.421875 -31.4375 C 143.722656 -42.40625 137.941406 -54.347656 133.078125 -67.265625 L 125.03125 -91.03125 C 122.101562 -92.738281 119.054688 -93.648438 115.890625 -93.765625 C 112.722656 -93.890625 109.429688 -93.953125 106.015625 -93.953125 C 103.085938 -93.953125 100.097656 -93.953125 97.046875 -93.953125 C 94.003906 -93.953125 91.023438 -93.707031 88.109375 -93.21875 C 87.859375 -89.5625 87.671875 -85.84375 87.546875 -82.0625 C 87.429688 -78.289062 87.375 -74.578125 87.375 -70.921875 C 87.613281 -59.710938 87.976562 -48.257812 88.46875 -36.5625 C 88.957031 -24.863281 88.59375 -13.285156 87.375 -1.828125 C 81.28125 -0.847656 75.367188 -0.175781 69.640625 0.1875 C 63.910156 0.550781 58 0.734375 51.90625 0.734375 L 36.921875 0.359375 C 35.953125 -1.335938 35.097656 -6.085938 34.359375 -13.890625 C 33.628906 -21.691406 33.082031 -31.5 32.71875 -43.3125 C 32.351562 -55.132812 32.109375 -68.113281 31.984375 -82.25 C 31.867188 -96.382812 31.867188 -110.640625 31.984375 -125.015625 C 32.109375 -139.398438 32.171875 -153.050781 32.171875 -165.96875 C 32.171875 -178.882812 32.226562 -190.15625 32.34375 -199.78125 C 32.46875 -209.414062 32.53125 -216.425781 32.53125 -220.8125 C 32.53125 -224.957031 32.59375 -229.160156 32.71875 -233.421875 C 32.84375 -237.679688 33.269531 -241.765625 34 -245.671875 C 41.800781 -247.128906 49.90625 -247.734375 58.3125 -247.484375 C 66.71875 -247.242188 74.695312 -247.125 82.25 -247.125 C 93.707031 -247.125 105.710938 -246.878906 118.265625 -246.390625 C 130.816406 -245.910156 143 -244.453125 154.8125 -242.015625 C 166.632812 -239.578125 177.238281 -235.554688 186.625 -229.953125 C 196.007812 -224.347656 203.503906 -216.671875 209.109375 -206.921875 C 214.710938 -197.171875 217.515625 -184.492188 217.515625 -168.890625 C 217.515625 -153.296875 213.859375 -140.441406 206.546875 -130.328125 C 199.234375 -120.210938 188.144531 -110.523438 173.28125 -101.265625 C 175.71875 -92.734375 179.429688 -84.140625 184.421875 -75.484375 C 189.421875 -66.835938 194.96875 -59.710938 201.0625 -54.109375 C 207.15625 -48.503906 212.882812 -45.820312 218.25 -46.0625 C 220.445312 -46.300781 222.882812 -46.359375 225.5625 -46.234375 C 228.238281 -46.117188 231.53125 -46.789062 235.4375 -48.25 Z M 87.375 -158.65625 L 87.375 -137.09375 C 88.34375 -135.875 89.554688 -135.019531 91.015625 -134.53125 C 92.484375 -134.039062 93.953125 -133.796875 95.421875 -133.796875 C 101.992188 -133.796875 109.238281 -133.914062 117.15625 -134.15625 C 125.082031 -134.40625 132.578125 -135.503906 139.640625 -137.453125 C 146.710938 -139.398438 152.5625 -142.8125 157.1875 -147.6875 C 161.820312 -152.5625 164.140625 -159.507812 164.140625 -168.53125 C 164.140625 -177.300781 161.945312 -184 157.5625 -188.625 C 153.175781 -193.257812 147.507812 -196.488281 140.5625 -198.3125 C 133.613281 -200.144531 126.363281 -201.179688 118.8125 -201.421875 C 111.257812 -201.671875 104.3125 -201.796875 97.96875 -201.796875 C 91.875 -201.796875 88.644531 -200.453125 88.28125 -197.765625 C 87.914062 -195.085938 87.734375 -191.191406 87.734375 -186.078125 C 87.734375 -181.453125 87.671875 -176.820312 87.546875 -172.1875 C 87.429688 -167.550781 87.375 -163.039062 87.375 -158.65625 Z M 87.375 -158.65625 "/></g></g></g><g fill="#274c77" fill-opacity="1"><g transform="translate(560.406546, 540.535626)"><g><path d="M 191.5625 0.359375 L 135.265625 0.359375 C 119.421875 0.359375 102.601562 0.785156 84.8125 1.640625 C 67.019531 2.492188 50.570312 1.457031 35.46875 -1.46875 C 33.757812 -17.0625 32.660156 -33.9375 32.171875 -52.09375 C 31.679688 -70.25 31.679688 -88.769531 32.171875 -107.65625 C 32.660156 -126.550781 33.144531 -145.257812 33.625 -163.78125 C 34.113281 -182.300781 34.359375 -199.726562 34.359375 -216.0625 L 35.09375 -245.671875 C 39.96875 -246.160156 44.84375 -246.460938 49.71875 -246.578125 C 54.59375 -246.703125 59.46875 -246.765625 64.34375 -246.765625 L 175.484375 -246.765625 L 193.03125 -246.03125 C 193.757812 -238.71875 194.125 -231.285156 194.125 -223.734375 C 194.125 -220.316406 194.125 -216.84375 194.125 -213.3125 C 194.125 -209.78125 193.878906 -206.304688 193.390625 -202.890625 C 190.222656 -202.648438 186.929688 -202.347656 183.515625 -201.984375 C 180.109375 -201.617188 176.820312 -201.4375 173.65625 -201.4375 C 159.03125 -201.4375 144.40625 -201.675781 129.78125 -202.15625 C 115.15625 -202.644531 100.65625 -201.796875 86.28125 -199.609375 C 86.03125 -197.171875 85.84375 -194.789062 85.71875 -192.46875 C 85.601562 -190.15625 85.546875 -187.78125 85.546875 -185.34375 L 85.90625 -148.796875 C 98.820312 -147.578125 111.492188 -147.269531 123.921875 -147.875 C 136.359375 -148.488281 150.375 -148.796875 165.96875 -148.796875 C 166.457031 -148.796875 166.945312 -148 167.4375 -146.40625 C 167.925781 -144.820312 168.289062 -143.054688 168.53125 -141.109375 L 166.34375 -110.40625 C 166.34375 -107.96875 164.085938 -106.503906 159.578125 -106.015625 C 155.066406 -105.523438 150.738281 -105.28125 146.59375 -105.28125 C 136.84375 -105.28125 126.789062 -105.34375 116.4375 -105.46875 C 106.082031 -105.59375 96.03125 -105.410156 86.28125 -104.921875 L 85.546875 -84.8125 L 85.546875 -51.90625 C 90.171875 -49.226562 96.929688 -47.582031 105.828125 -46.96875 C 114.722656 -46.363281 124.410156 -46.242188 134.890625 -46.609375 C 145.378906 -46.972656 155.679688 -47.398438 165.796875 -47.890625 C 175.910156 -48.378906 184.617188 -48.257812 191.921875 -47.53125 C 192.660156 -43.625 193.148438 -39.597656 193.390625 -35.453125 C 193.628906 -31.316406 193.75 -27.175781 193.75 -23.03125 C 193.75 -19.132812 193.503906 -15.234375 193.015625 -11.328125 C 192.535156 -7.429688 192.050781 -3.535156 191.5625 0.359375 Z M 191.5625 0.359375 "/></g></g></g><g fill="#274c77" fill-opacity="1"><g transform="translate(753.797951, 540.535626)"><g><path d="M 181.6875 -231.40625 L 181.6875 -192.65625 C 181.6875 -181.445312 181.867188 -168.773438 182.234375 -154.640625 C 182.609375 -140.503906 182.488281 -126.0625 181.875 -111.3125 C 181.269531 -96.570312 179.5625 -82.316406 176.75 -68.546875 C 173.945312 -54.773438 169.5625 -42.34375 163.59375 -31.25 C 157.625 -20.164062 149.335938 -11.394531 138.734375 -4.9375 C 128.128906 1.519531 114.539062 4.75 97.96875 4.75 C 78.476562 4.75 62.332031 0.726562 49.53125 -7.3125 C 36.738281 -15.351562 27.234375 -26.5 21.015625 -40.75 C 14.804688 -55.007812 11.703125 -71.644531 11.703125 -90.65625 C 12.921875 -91.144531 14.988281 -91.570312 17.90625 -91.9375 C 20.832031 -92.300781 22.660156 -92.484375 23.390625 -92.484375 C 26.566406 -92.484375 30.957031 -92.726562 36.5625 -93.21875 C 42.164062 -93.707031 47.644531 -93.953125 53 -93.953125 C 58.363281 -93.953125 62.019531 -92.976562 63.96875 -91.03125 C 63.96875 -82.988281 65.125 -75.492188 67.4375 -68.546875 C 69.757812 -61.597656 73.359375 -55.929688 78.234375 -51.546875 C 83.109375 -47.160156 89.203125 -44.96875 96.515625 -44.96875 C 103.828125 -44.96875 109.675781 -47.28125 114.0625 -51.90625 C 118.445312 -56.539062 121.859375 -62.515625 124.296875 -69.828125 C 126.734375 -77.140625 128.378906 -85 129.234375 -93.40625 C 130.085938 -101.8125 130.515625 -109.914062 130.515625 -117.71875 C 130.515625 -125.519531 130.515625 -132.097656 130.515625 -137.453125 C 130.515625 -141.835938 130.390625 -147.867188 130.140625 -155.546875 C 129.898438 -163.222656 129.65625 -171.570312 129.40625 -180.59375 C 129.164062 -189.613281 129.046875 -198.570312 129.046875 -207.46875 C 129.046875 -216.363281 129.347656 -224.28125 129.953125 -231.21875 C 130.566406 -238.164062 131.609375 -243.226562 133.078125 -246.40625 C 136.972656 -246.882812 140.75 -247.125 144.40625 -247.125 C 148.0625 -247.125 151.835938 -247.125 155.734375 -247.125 C 161.585938 -247.125 166.398438 -247.1875 170.171875 -247.3125 C 173.953125 -247.4375 176.816406 -246.460938 178.765625 -244.390625 C 180.710938 -242.316406 181.6875 -237.988281 181.6875 -231.40625 Z M 181.6875 -231.40625 "/></g></g></g><g fill="#274c77" fill-opacity="1"><g transform="translate(946.823791, 540.535626)"><g><path d="M 208.75 0.734375 L 171.453125 0.734375 C 167.066406 0.734375 162.679688 0.367188 158.296875 -0.359375 C 155.859375 -10.359375 153.476562 -20.535156 151.15625 -30.890625 C 148.84375 -41.242188 146.347656 -51.421875 143.671875 -61.421875 L 118.453125 -61.421875 C 105.285156 -61.421875 91.878906 -61.054688 78.234375 -60.328125 C 74.335938 -40.578125 69.582031 -20.710938 63.96875 -0.734375 L 51.1875 0 L 27.78125 0 C 25.101562 0 22.300781 -0.179688 19.375 -0.546875 C 16.445312 -0.910156 13.644531 -1.21875 10.96875 -1.46875 C 15.113281 -27.539062 20.898438 -54.40625 28.328125 -82.0625 C 35.765625 -109.726562 43.5625 -137.515625 51.71875 -165.421875 C 59.882812 -193.328125 66.894531 -220.320312 72.75 -246.40625 C 76.894531 -246.644531 81.097656 -246.882812 85.359375 -247.125 C 89.628906 -247.375 93.832031 -247.5 97.96875 -247.5 C 107.96875 -247.5 118.023438 -247.5 128.140625 -247.5 C 138.253906 -247.5 148.304688 -247.253906 158.296875 -246.765625 C 160.003906 -240.429688 162.378906 -230.804688 165.421875 -217.890625 C 168.472656 -204.972656 171.945312 -190.226562 175.84375 -173.65625 C 179.738281 -157.082031 183.632812 -140.082031 187.53125 -122.65625 C 191.4375 -105.226562 195.035156 -88.59375 198.328125 -72.75 C 201.617188 -56.90625 204.296875 -43.253906 206.359375 -31.796875 C 208.429688 -20.347656 209.46875 -12.550781 209.46875 -8.40625 Z M 102 -108.21875 L 107.109375 -108.21875 C 111.984375 -108.21875 117.222656 -108.21875 122.828125 -108.21875 C 128.441406 -108.21875 133.5625 -108.703125 138.1875 -109.671875 C 137.457031 -117.710938 136.175781 -125.632812 134.34375 -133.4375 C 132.519531 -141.238281 130.878906 -149.035156 129.421875 -156.828125 C 127.953125 -165.847656 126.851562 -172.976562 126.125 -178.21875 C 125.394531 -183.457031 124.359375 -187.234375 123.015625 -189.546875 C 121.671875 -191.867188 119.171875 -193.03125 115.515625 -193.03125 C 114.546875 -193.03125 113.570312 -193.03125 112.59375 -193.03125 C 111.625 -193.03125 110.648438 -192.90625 109.671875 -192.65625 C 107.234375 -178.519531 103.695312 -164.566406 99.0625 -150.796875 C 94.4375 -137.023438 91.515625 -122.953125 90.296875 -108.578125 C 92.242188 -108.335938 94.191406 -108.21875 96.140625 -108.21875 C 98.097656 -108.21875 100.050781 -108.21875 102 -108.21875 Z M 102 -108.21875 "/></g></g></g><g fill="#274c77" fill-opacity="1"><g transform="translate(1148.257926, 540.535626)"><g/></g></g><g fill="#274c77" fill-opacity="1"><g transform="translate(1220.642626, 540.535626)"><g><path d="M 34.359375 -1.09375 L 34 -16.453125 L 34 -128.3125 C 34 -140.988281 33.632812 -154.148438 32.90625 -167.796875 C 32.175781 -181.441406 32.050781 -194.90625 32.53125 -208.1875 C 33.019531 -221.476562 35.09375 -234.09375 38.75 -246.03125 L 88.828125 -246.765625 C 120.515625 -246.765625 146.835938 -242.863281 167.796875 -235.0625 C 188.753906 -227.269531 204.410156 -213.679688 214.765625 -194.296875 C 225.128906 -174.921875 230.3125 -147.8125 230.3125 -112.96875 C 230.3125 -92.007812 227.382812 -74.644531 221.53125 -60.875 C 215.6875 -47.101562 207.523438 -36.070312 197.046875 -27.78125 C 186.566406 -19.5 174.441406 -13.285156 160.671875 -9.140625 C 146.898438 -4.992188 132.09375 -2.3125 116.25 -1.09375 C 100.40625 0.125 84.195312 0.734375 67.625 0.734375 C 62.269531 0.734375 56.785156 0.671875 51.171875 0.546875 C 45.566406 0.421875 39.960938 -0.125 34.359375 -1.09375 Z M 90.65625 -48.984375 C 93.34375 -48.015625 96.144531 -47.53125 99.0625 -47.53125 C 101.988281 -47.53125 104.796875 -47.53125 107.484375 -47.53125 C 130.628906 -47.53125 147.929688 -53.863281 159.390625 -66.53125 C 170.847656 -79.207031 176.578125 -96.878906 176.578125 -119.546875 C 176.578125 -139.285156 174.140625 -154.757812 169.265625 -165.96875 C 164.390625 -177.1875 156.46875 -185.109375 145.5 -189.734375 C 134.53125 -194.367188 119.664062 -196.6875 100.90625 -196.6875 C 99.195312 -196.6875 97.488281 -196.6875 95.78125 -196.6875 C 94.070312 -196.6875 92.363281 -196.441406 90.65625 -195.953125 C 88.707031 -173.773438 88.035156 -151.226562 88.640625 -128.3125 C 89.253906 -105.40625 89.5625 -82.742188 89.5625 -60.328125 C 89.5625 -56.421875 89.925781 -52.640625 90.65625 -48.984375 Z M 90.65625 -48.984375 "/></g></g></g><g fill="#274c77" fill-opacity="1"><g transform="translate(1452.054236, 540.535626)"><g><path d="M 191.5625 0.359375 L 135.265625 0.359375 C 119.421875 0.359375 102.601562 0.785156 84.8125 1.640625 C 67.019531 2.492188 50.570312 1.457031 35.46875 -1.46875 C 33.757812 -17.0625 32.660156 -33.9375 32.171875 -52.09375 C 31.679688 -70.25 31.679688 -88.769531 32.171875 -107.65625 C 32.660156 -126.550781 33.144531 -145.257812 33.625 -163.78125 C 34.113281 -182.300781 34.359375 -199.726562 34.359375 -216.0625 L 35.09375 -245.671875 C 39.96875 -246.160156 44.84375 -246.460938 49.71875 -246.578125 C 54.59375 -246.703125 59.46875 -246.765625 64.34375 -246.765625 L 175.484375 -246.765625 L 193.03125 -246.03125 C 193.757812 -238.71875 194.125 -231.285156 194.125 -223.734375 C 194.125 -220.316406 194.125 -216.84375 194.125 -213.3125 C 194.125 -209.78125 193.878906 -206.304688 193.390625 -202.890625 C 190.222656 -202.648438 186.929688 -202.347656 183.515625 -201.984375 C 180.109375 -201.617188 176.820312 -201.4375 173.65625 -201.4375 C 159.03125 -201.4375 144.40625 -201.675781 129.78125 -202.15625 C 115.15625 -202.644531 100.65625 -201.796875 86.28125 -199.609375 C 86.03125 -197.171875 85.84375 -194.789062 85.71875 -192.46875 C 85.601562 -190.15625 85.546875 -187.78125 85.546875 -185.34375 L 85.90625 -148.796875 C 98.820312 -147.578125 111.492188 -147.269531 123.921875 -147.875 C 136.359375 -148.488281 150.375 -148.796875 165.96875 -148.796875 C 166.457031 -148.796875 166.945312 -148 167.4375 -146.40625 C 167.925781 -144.820312 168.289062 -143.054688 168.53125 -141.109375 L 166.34375 -110.40625 C 166.34375 -107.96875 164.085938 -106.503906 159.578125 -106.015625 C 155.066406 -105.523438 150.738281 -105.28125 146.59375 -105.28125 C 136.84375 -105.28125 126.789062 -105.34375 116.4375 -105.46875 C 106.082031 -105.59375 96.03125 -105.410156 86.28125 -104.921875 L 85.546875 -84.8125 L 85.546875 -51.90625 C 90.171875 -49.226562 96.929688 -47.582031 105.828125 -46.96875 C 114.722656 -46.363281 124.410156 -46.242188 134.890625 -46.609375 C 145.378906 -46.972656 155.679688 -47.398438 165.796875 -47.890625 C 175.910156 -48.378906 184.617188 -48.257812 191.921875 -47.53125 C 192.660156 -43.625 193.148438 -39.597656 193.390625 -35.453125 C 193.628906 -31.316406 193.75 -27.175781 193.75 -23.03125 C 193.75 -19.132812 193.503906 -15.234375 193.015625 -11.328125 C 192.535156 -7.429688 192.050781 -3.535156 191.5625 0.359375 Z M 191.5625 0.359375 "/></g></g></g><g fill="#274c77" fill-opacity="1"><g transform="translate(1645.445641, 540.535626)"><g/></g></g><g fill="#ffffff" fill-opacity="1"><g transform="translate(1717.838596, 540.535626)"><g><path d="M 20.109375 -119.546875 C 20.109375 -136.847656 22.238281 -153.421875 26.5 -169.265625 C 30.769531 -185.109375 37.226562 -199.179688 45.875 -211.484375 C 54.53125 -223.796875 65.375 -233.546875 78.40625 -240.734375 C 91.445312 -247.921875 106.742188 -251.515625 124.296875 -251.515625 C 135.992188 -251.515625 147.875 -249.75 159.9375 -246.21875 C 172 -242.6875 182.960938 -237.382812 192.828125 -230.3125 C 202.703125 -223.25 210.320312 -214.234375 215.6875 -203.265625 C 209.351562 -194.972656 201.984375 -188.570312 193.578125 -184.0625 C 185.171875 -179.5625 178.769531 -175.601562 174.375 -172.1875 C 169.75 -182.664062 163.597656 -189.671875 155.921875 -193.203125 C 148.242188 -196.742188 139.894531 -198.515625 130.875 -198.515625 C 116.976562 -198.515625 106.128906 -195.222656 98.328125 -188.640625 C 90.535156 -182.054688 85.113281 -172.972656 82.0625 -161.390625 C 79.019531 -149.816406 77.5 -136.476562 77.5 -121.375 C 77.5 -113.8125 78.046875 -105.765625 79.140625 -97.234375 C 80.242188 -88.710938 82.5 -80.734375 85.90625 -73.296875 C 89.320312 -65.859375 94.441406 -59.765625 101.265625 -55.015625 C 108.085938 -50.265625 117.347656 -47.890625 129.046875 -47.890625 C 137.335938 -47.890625 144.160156 -49.226562 149.515625 -51.90625 C 154.878906 -54.59375 159.753906 -58.675781 164.140625 -64.15625 C 168.523438 -69.644531 173.398438 -76.285156 178.765625 -84.078125 C 185.835938 -83.835938 193.085938 -81.707031 200.515625 -77.6875 C 207.953125 -73.664062 214.59375 -69.945312 220.4375 -66.53125 C 217.03125 -53.863281 211.117188 -42.164062 202.703125 -31.4375 C 194.296875 -20.71875 183.570312 -12.128906 170.53125 -5.671875 C 157.5 0.785156 142.085938 4.015625 124.296875 4.015625 C 101.628906 4.015625 82.554688 -1.34375 67.078125 -12.0625 C 51.609375 -22.789062 39.910156 -37.472656 31.984375 -56.109375 C 24.066406 -74.753906 20.109375 -95.898438 20.109375 -119.546875 Z M 20.109375 -119.546875 "/></g></g></g><g fill="#ffffff" fill-opacity="1"><g transform="translate(1933.895967, 540.535626)"><g><path d="M 235.4375 -48.25 L 236.890625 -45.328125 C 237.617188 -38.753906 238.59375 -32.234375 239.8125 -25.765625 C 241.03125 -19.304688 241.640625 -12.789062 241.640625 -6.21875 C 241.640625 -2.5625 239.445312 -0.00390625 235.0625 1.453125 C 230.675781 2.921875 225.863281 3.773438 220.625 4.015625 C 215.382812 4.265625 211.300781 4.390625 208.375 4.390625 C 195.21875 4.390625 183.945312 1.160156 174.5625 -5.296875 C 165.175781 -11.753906 157.128906 -20.46875 150.421875 -31.4375 C 143.722656 -42.40625 137.941406 -54.347656 133.078125 -67.265625 L 125.03125 -91.03125 C 122.101562 -92.738281 119.054688 -93.648438 115.890625 -93.765625 C 112.722656 -93.890625 109.429688 -93.953125 106.015625 -93.953125 C 103.085938 -93.953125 100.097656 -93.953125 97.046875 -93.953125 C 94.003906 -93.953125 91.023438 -93.707031 88.109375 -93.21875 C 87.859375 -89.5625 87.671875 -85.84375 87.546875 -82.0625 C 87.429688 -78.289062 87.375 -74.578125 87.375 -70.921875 C 87.613281 -59.710938 87.976562 -48.257812 88.46875 -36.5625 C 88.957031 -24.863281 88.59375 -13.285156 87.375 -1.828125 C 81.28125 -0.847656 75.367188 -0.175781 69.640625 0.1875 C 63.910156 0.550781 58 0.734375 51.90625 0.734375 L 36.921875 0.359375 C 35.953125 -1.335938 35.097656 -6.085938 34.359375 -13.890625 C 33.628906 -21.691406 33.082031 -31.5 32.71875 -43.3125 C 32.351562 -55.132812 32.109375 -68.113281 31.984375 -82.25 C 31.867188 -96.382812 31.867188 -110.640625 31.984375 -125.015625 C 32.109375 -139.398438 32.171875 -153.050781 32.171875 -165.96875 C 32.171875 -178.882812 32.226562 -190.15625 32.34375 -199.78125 C 32.46875 -209.414062 32.53125 -216.425781 32.53125 -220.8125 C 32.53125 -224.957031 32.59375 -229.160156 32.71875 -233.421875 C 32.84375 -237.679688 33.269531 -241.765625 34 -245.671875 C 41.800781 -247.128906 49.90625 -247.734375 58.3125 -247.484375 C 66.71875 -247.242188 74.695312 -247.125 82.25 -247.125 C 93.707031 -247.125 105.710938 -246.878906 118.265625 -246.390625 C 130.816406 -245.910156 143 -244.453125 154.8125 -242.015625 C 166.632812 -239.578125 177.238281 -235.554688 186.625 -229.953125 C 196.007812 -224.347656 203.503906 -216.671875 209.109375 -206.921875 C 214.710938 -197.171875 217.515625 -184.492188 217.515625 -168.890625 C 217.515625 -153.296875 213.859375 -140.441406 206.546875 -130.328125 C 199.234375 -120.210938 188.144531 -110.523438 173.28125 -101.265625 C 175.71875 -92.734375 179.429688 -84.140625 184.421875 -75.484375 C 189.421875 -66.835938 194.96875 -59.710938 201.0625 -54.109375 C 207.15625 -48.503906 212.882812 -45.820312 218.25 -46.0625 C 220.445312 -46.300781 222.882812 -46.359375 225.5625 -46.234375 C 228.238281 -46.117188 231.53125 -46.789062 235.4375 -48.25 Z M 87.375 -158.65625 L 87.375 -137.09375 C 88.34375 -135.875 89.554688 -135.019531 91.015625 -134.53125 C 92.484375 -134.039062 93.953125 -133.796875 95.421875 -133.796875 C 101.992188 -133.796875 109.238281 -133.914062 117.15625 -134.15625 C 125.082031 -134.40625 132.578125 -135.503906 139.640625 -137.453125 C 146.710938 -139.398438 152.5625 -142.8125 157.1875 -147.6875 C 161.820312 -152.5625 164.140625 -159.507812 164.140625 -168.53125 C 164.140625 -177.300781 161.945312 -184 157.5625 -188.625 C 153.175781 -193.257812 147.507812 -196.488281 140.5625 -198.3125 C 133.613281 -200.144531 126.363281 -201.179688 118.8125 -201.421875 C 111.257812 -201.671875 104.3125 -201.796875 97.96875 -201.796875 C 91.875 -201.796875 88.644531 -200.453125 88.28125 -197.765625 C 87.914062 -195.085938 87.734375 -191.191406 87.734375 -186.078125 C 87.734375 -181.453125 87.671875 -176.820312 87.546875 -172.1875 C 87.429688 -167.550781 87.375 -163.039062 87.375 -158.65625 Z M 87.375 -158.65625 "/></g></g></g><g fill="#ffffff" fill-opacity="1"><g transform="translate(2162.01747, 540.535626)"><g><path d="M 85.90625 -0.359375 L 79.328125 0 L 42.046875 0 C 40.578125 0 39.113281 -0.117188 37.65625 -0.359375 C 36.195312 -0.609375 34.734375 -0.851562 33.265625 -1.09375 C 32.773438 -6.457031 32.410156 -11.757812 32.171875 -17 C 31.929688 -22.238281 31.8125 -27.539062 31.8125 -32.90625 L 31.8125 -212.03125 C 31.8125 -217.632812 31.992188 -223.238281 32.359375 -228.84375 C 32.722656 -234.457031 33.023438 -240.066406 33.265625 -245.671875 C 37.648438 -246.160156 42.035156 -246.523438 46.421875 -246.765625 C 50.816406 -247.003906 55.207031 -247.125 59.59375 -247.125 L 82.625 -246.40625 C 83.351562 -246.40625 84.382812 -246.160156 85.71875 -245.671875 C 87.0625 -245.179688 87.734375 -244.9375 87.734375 -244.9375 C 87.734375 -205.207031 87.851562 -164.441406 88.09375 -122.640625 C 88.34375 -80.847656 87.613281 -40.085938 85.90625 -0.359375 Z M 85.90625 -0.359375 "/></g></g></g><g fill="#ffffff" fill-opacity="1"><g transform="translate(2262.917321, 540.535626)"><g><path d="M 17.546875 -50.078125 C 18.273438 -50.816406 19.976562 -53.253906 22.65625 -57.390625 C 25.34375 -61.535156 29.242188 -65.863281 34.359375 -70.375 C 39.484375 -74.882812 46.066406 -77.867188 54.109375 -79.328125 C 58.253906 -67.867188 65.625 -58.847656 76.21875 -52.265625 C 86.820312 -45.691406 97.726562 -42.40625 108.9375 -42.40625 C 119.175781 -42.40625 126.914062 -45.023438 132.15625 -50.265625 C 137.394531 -55.503906 140.015625 -61.898438 140.015625 -69.453125 C 140.015625 -77.503906 137.210938 -84.207031 131.609375 -89.5625 C 126.003906 -94.925781 118.875 -99.617188 110.21875 -103.640625 C 101.570312 -107.660156 92.3125 -111.800781 82.4375 -116.0625 C 72.5625 -120.332031 63.238281 -125.269531 54.46875 -130.875 C 45.695312 -136.476562 38.566406 -143.601562 33.078125 -152.25 C 27.597656 -160.90625 24.859375 -171.691406 24.859375 -184.609375 C 24.859375 -196.554688 27.234375 -206.796875 31.984375 -215.328125 C 36.734375 -223.859375 43.007812 -230.863281 50.8125 -236.34375 C 58.613281 -241.832031 67.265625 -245.914062 76.765625 -248.59375 C 86.273438 -251.269531 95.78125 -252.609375 105.28125 -252.609375 C 114.0625 -252.609375 123.019531 -251.453125 132.15625 -249.140625 C 141.289062 -246.828125 149.757812 -243.351562 157.5625 -238.71875 C 165.363281 -234.09375 171.640625 -228.125 176.390625 -220.8125 C 181.140625 -213.5 183.515625 -204.722656 183.515625 -194.484375 C 182.546875 -193.992188 180.414062 -192.957031 177.125 -191.375 C 173.832031 -189.789062 170.050781 -188.082031 165.78125 -186.25 C 161.519531 -184.425781 157.625 -182.84375 154.09375 -181.5 C 150.5625 -180.164062 148.1875 -179.617188 146.96875 -179.859375 C 141.601562 -188.640625 135.265625 -195.585938 127.953125 -200.703125 C 120.640625 -205.816406 112.351562 -208.375 103.09375 -208.375 C 94.070312 -208.375 87.550781 -206.117188 83.53125 -201.609375 C 79.507812 -197.109375 77.5 -192.050781 77.5 -186.4375 C 77.5 -179.375 80.238281 -173.40625 85.71875 -168.53125 C 91.207031 -163.65625 98.335938 -159.144531 107.109375 -155 C 115.890625 -150.863281 125.09375 -146.597656 134.71875 -142.203125 C 144.34375 -137.816406 153.539062 -132.457031 162.3125 -126.125 C 171.09375 -119.789062 178.222656 -111.988281 183.703125 -102.71875 C 189.179688 -93.457031 191.921875 -82.003906 191.921875 -68.359375 C 191.921875 -53.734375 188.507812 -40.875 181.6875 -29.78125 C 174.863281 -18.695312 165.238281 -10.046875 152.8125 -3.828125 C 140.382812 2.378906 125.757812 5.484375 108.9375 5.484375 C 95.53125 5.484375 83.890625 3.710938 74.015625 0.171875 C 64.148438 -3.359375 55.742188 -7.742188 48.796875 -12.984375 C 41.859375 -18.222656 36.191406 -23.582031 31.796875 -29.0625 C 27.410156 -34.539062 24.0625 -39.226562 21.75 -43.125 C 19.4375 -47.03125 18.035156 -49.347656 17.546875 -50.078125 Z M 17.1875 -50.078125 L 17.546875 -50.078125 C 17.304688 -49.835938 17.1875 -49.835938 17.1875 -50.078125 Z M 17.1875 -50.078125 "/></g></g></g><g fill="#ffffff" fill-opacity="1"><g transform="translate(2456.674343, 540.535626)"><g><path d="M 90.296875 0.359375 L 77.140625 -0.359375 C 76.410156 -6.941406 76.046875 -13.523438 76.046875 -20.109375 C 76.046875 -49.597656 76.226562 -79.023438 76.59375 -108.390625 C 76.957031 -137.765625 76.164062 -167.070312 74.21875 -196.3125 C 63.976562 -196.800781 53.738281 -197.101562 43.5 -197.21875 C 33.269531 -197.34375 23.035156 -197.648438 12.796875 -198.140625 C 12.304688 -203.742188 11.878906 -209.226562 11.515625 -214.59375 C 11.148438 -219.957031 10.96875 -225.320312 10.96875 -230.6875 C 10.96875 -233.363281 11.023438 -235.921875 11.140625 -238.359375 C 11.265625 -240.796875 11.570312 -243.234375 12.0625 -245.671875 C 32.78125 -246.890625 53.492188 -247.5 74.203125 -247.5 C 94.921875 -247.5 115.640625 -247.5 136.359375 -247.5 C 145.128906 -247.5 153.898438 -247.316406 162.671875 -246.953125 C 171.453125 -246.585938 180.226562 -245.796875 189 -244.578125 C 190.46875 -238.960938 191.257812 -233.171875 191.375 -227.203125 C 191.5 -221.234375 191.5625 -215.445312 191.5625 -209.84375 L 190.828125 -198.515625 L 175.109375 -197.78125 C 166.828125 -197.78125 158.601562 -197.898438 150.4375 -198.140625 C 142.269531 -198.390625 133.921875 -198.144531 125.390625 -197.40625 C 124.171875 -175.957031 123.988281 -154.207031 124.84375 -132.15625 C 125.695312 -110.101562 126.367188 -88.109375 126.859375 -66.171875 C 127.347656 -44.234375 126.25 -22.539062 123.5625 -1.09375 C 118.195312 -0.125 112.710938 0.359375 107.109375 0.359375 C 101.503906 0.359375 95.898438 0.359375 90.296875 0.359375 Z M 90.296875 0.359375 "/></g></g></g><g fill="#ffffff" fill-opacity="1"><g transform="translate(2640.560744, 540.535626)"><g><path d="M 128.3125 4.390625 C 108.820312 4.390625 92.191406 0.859375 78.421875 -6.203125 C 64.648438 -13.273438 53.5 -22.90625 44.96875 -35.09375 C 36.4375 -47.28125 30.160156 -61.234375 26.140625 -76.953125 C 22.117188 -92.671875 20.109375 -109.179688 20.109375 -126.484375 C 20.109375 -140.867188 22.300781 -155.3125 26.6875 -169.8125 C 31.070312 -184.3125 37.53125 -197.65625 46.0625 -209.84375 C 54.59375 -222.03125 65.070312 -231.835938 77.5 -239.265625 C 89.925781 -246.703125 104.1875 -250.421875 120.28125 -250.421875 C 144.644531 -250.421875 164.929688 -244.691406 181.140625 -233.234375 C 197.347656 -221.785156 209.59375 -206.613281 217.875 -187.71875 C 226.164062 -168.832031 230.3125 -147.9375 230.3125 -125.03125 C 230.3125 -109.675781 228.238281 -94.378906 224.09375 -79.140625 C 219.957031 -63.910156 213.679688 -49.957031 205.265625 -37.28125 C 196.859375 -24.613281 186.257812 -14.5 173.46875 -6.9375 C 160.675781 0.613281 145.625 4.390625 128.3125 4.390625 Z M 125.390625 -47.53125 C 136.117188 -47.53125 145.015625 -49.90625 152.078125 -54.65625 C 159.148438 -59.40625 164.695312 -65.617188 168.71875 -73.296875 C 172.738281 -80.972656 175.597656 -89.441406 177.296875 -98.703125 C 179.003906 -107.960938 179.859375 -116.984375 179.859375 -125.765625 C 179.859375 -134.046875 179.066406 -142.632812 177.484375 -151.53125 C 175.898438 -160.425781 173.21875 -168.648438 169.4375 -176.203125 C 165.664062 -183.765625 160.367188 -189.859375 153.546875 -194.484375 C 146.722656 -199.117188 138.070312 -201.4375 127.59375 -201.4375 C 115.644531 -201.4375 105.953125 -198.570312 98.515625 -192.84375 C 91.085938 -187.113281 85.421875 -179.675781 81.515625 -170.53125 C 77.617188 -161.394531 75 -151.585938 73.65625 -141.109375 C 72.320312 -130.628906 71.65625 -120.757812 71.65625 -111.5 C 71.65625 -100.78125 73.722656 -90.546875 77.859375 -80.796875 C 82.003906 -71.046875 88.035156 -63.0625 95.953125 -56.84375 C 103.878906 -50.632812 113.691406 -47.53125 125.390625 -47.53125 Z M 125.390625 -47.53125 "/></g></g></g></svg>