<svg xmlns="http://www.w3.org/2000/svg" xmlns:xlink="http://www.w3.org/1999/xlink" width="1920" zoomAndPan="magnify" viewBox="0 0 1440 809.999993" height="1080" preserveAspectRatio="xMidYMid meet" version="1.0"><defs><g/><clipPath id="9543601230"><path d="M 114 335.59375 L 311.664062 335.59375 L 311.664062 474.34375 L 114 474.34375 Z M 114 335.59375 " clip-rule="nonzero"/></clipPath></defs><g fill="#274c77" fill-opacity="1"><g transform="translate(330.241746, 427.878925)"><g><path d="M 22.71875 0.09375 L 19.40625 -0.09375 C 19.226562 -1.75 19.140625 -3.40625 19.140625 -5.0625 C 19.140625 -12.476562 19.179688 -19.878906 19.265625 -27.265625 C 19.359375 -34.660156 19.160156 -42.039062 18.671875 -49.40625 C 16.097656 -49.53125 13.519531 -49.609375 10.9375 -49.640625 C 8.363281 -49.671875 5.789062 -49.742188 3.21875 -49.859375 C 3.09375 -51.273438 2.984375 -52.65625 2.890625 -54 C 2.804688 -55.351562 2.765625 -56.703125 2.765625 -58.046875 C 2.765625 -58.722656 2.78125 -59.367188 2.8125 -59.984375 C 2.84375 -60.597656 2.914062 -61.210938 3.03125 -61.828125 C 8.25 -62.128906 13.460938 -62.28125 18.671875 -62.28125 C 23.890625 -62.28125 29.101562 -62.28125 34.3125 -62.28125 C 36.519531 -62.28125 38.726562 -62.234375 40.9375 -62.140625 C 43.144531 -62.054688 45.351562 -61.859375 47.5625 -61.546875 C 47.925781 -60.140625 48.125 -58.679688 48.15625 -57.171875 C 48.1875 -55.671875 48.203125 -54.21875 48.203125 -52.8125 L 48.03125 -49.953125 L 44.0625 -49.765625 C 41.976562 -49.765625 39.910156 -49.796875 37.859375 -49.859375 C 35.804688 -49.921875 33.707031 -49.863281 31.5625 -49.6875 C 31.25 -44.28125 31.195312 -38.800781 31.40625 -33.25 C 31.625 -27.707031 31.796875 -22.175781 31.921875 -16.65625 C 32.046875 -11.132812 31.769531 -5.675781 31.09375 -0.28125 C 29.75 -0.03125 28.367188 0.09375 26.953125 0.09375 C 25.546875 0.09375 24.132812 0.09375 22.71875 0.09375 Z M 22.71875 0.09375 "/></g></g></g><g fill="#274c77" fill-opacity="1"><g transform="translate(381.297443, 427.878925)"><g><path d="M 52.984375 0.28125 L 43.234375 0.28125 C 42.742188 -0.332031 42.128906 -1.359375 41.390625 -2.796875 C 40.660156 -4.242188 39.894531 -5.929688 39.09375 -7.859375 C 38.300781 -9.796875 37.519531 -11.742188 36.75 -13.703125 C 35.988281 -15.671875 35.300781 -17.484375 34.6875 -19.140625 C 34.070312 -20.796875 33.609375 -22.050781 33.296875 -22.90625 C 32.316406 -23.332031 31.242188 -23.5625 30.078125 -23.59375 C 28.921875 -23.625 27.789062 -23.640625 26.6875 -23.640625 C 25.945312 -23.640625 25.191406 -23.640625 24.421875 -23.640625 C 23.660156 -23.640625 22.910156 -23.578125 22.171875 -23.453125 C 22.109375 -22.535156 22.0625 -21.601562 22.03125 -20.65625 C 22 -19.707031 21.984375 -18.769531 21.984375 -17.84375 C 22.046875 -15.019531 22.140625 -12.132812 22.265625 -9.1875 C 22.390625 -6.25 22.296875 -3.335938 21.984375 -0.453125 C 20.453125 -0.210938 18.960938 -0.046875 17.515625 0.046875 C 16.078125 0.140625 14.59375 0.1875 13.0625 0.1875 L 9.296875 0.09375 C 9.046875 -0.332031 8.828125 -1.523438 8.640625 -3.484375 C 8.460938 -5.453125 8.328125 -7.921875 8.234375 -10.890625 C 8.140625 -13.867188 8.078125 -17.132812 8.046875 -20.6875 C 8.015625 -24.25 8.015625 -27.835938 8.046875 -31.453125 C 8.078125 -35.078125 8.09375 -38.515625 8.09375 -41.765625 C 8.09375 -45.015625 8.109375 -47.847656 8.140625 -50.265625 C 8.171875 -52.691406 8.1875 -54.457031 8.1875 -55.5625 C 8.1875 -56.601562 8.203125 -57.660156 8.234375 -58.734375 C 8.265625 -59.816406 8.375 -60.847656 8.5625 -61.828125 C 10.519531 -62.191406 12.554688 -62.34375 14.671875 -62.28125 C 16.785156 -62.21875 18.796875 -62.1875 20.703125 -62.1875 C 23.585938 -62.1875 26.609375 -62.125 29.765625 -62 C 32.921875 -61.882812 35.984375 -61.519531 38.953125 -60.90625 C 41.929688 -60.289062 44.601562 -59.273438 46.96875 -57.859375 C 49.332031 -56.453125 51.21875 -54.519531 52.625 -52.0625 C 54.03125 -49.613281 54.734375 -46.425781 54.734375 -42.5 C 54.734375 -38.570312 53.953125 -35.335938 52.390625 -32.796875 C 50.828125 -30.253906 48.515625 -27.816406 45.453125 -25.484375 C 46.242188 -22.722656 47.359375 -19.914062 48.796875 -17.0625 C 50.242188 -14.207031 51.609375 -11.367188 52.890625 -8.546875 C 54.179688 -5.734375 54.953125 -2.945312 55.203125 -0.1875 C 54.890625 -0.125 54.519531 -0.03125 54.09375 0.09375 C 53.664062 0.21875 53.296875 0.28125 52.984375 0.28125 Z M 21.984375 -39.921875 L 21.984375 -34.5 C 22.234375 -34.195312 22.539062 -33.984375 22.90625 -33.859375 C 23.269531 -33.734375 23.640625 -33.671875 24.015625 -33.671875 C 25.671875 -33.671875 27.492188 -33.703125 29.484375 -33.765625 C 31.472656 -33.828125 33.359375 -34.101562 35.140625 -34.59375 C 36.921875 -35.082031 38.394531 -35.941406 39.5625 -37.171875 C 40.726562 -38.398438 41.3125 -40.144531 41.3125 -42.40625 C 41.3125 -44.613281 40.757812 -46.300781 39.65625 -47.46875 C 38.550781 -48.632812 37.125 -49.445312 35.375 -49.90625 C 33.625 -50.363281 31.796875 -50.625 29.890625 -50.6875 C 27.992188 -50.75 26.25 -50.78125 24.65625 -50.78125 C 23.125 -50.78125 22.3125 -50.441406 22.21875 -49.765625 C 22.125 -49.097656 22.078125 -48.117188 22.078125 -46.828125 C 22.078125 -45.660156 22.0625 -44.492188 22.03125 -43.328125 C 22 -42.160156 21.984375 -41.023438 21.984375 -39.921875 Z M 21.984375 -39.921875 "/></g></g></g><g fill="#274c77" fill-opacity="1"><g transform="translate(441.552368, 427.878925)"><g><path d="M 52.53125 0.1875 L 43.140625 0.1875 C 42.035156 0.1875 40.9375 0.09375 39.84375 -0.09375 C 39.226562 -2.601562 38.628906 -5.160156 38.046875 -7.765625 C 37.460938 -10.378906 36.832031 -12.941406 36.15625 -15.453125 L 29.8125 -15.453125 C 26.5 -15.453125 23.125 -15.363281 19.6875 -15.1875 C 18.707031 -10.21875 17.507812 -5.21875 16.09375 -0.1875 L 12.875 0 L 6.984375 0 C 6.316406 0 5.613281 -0.046875 4.875 -0.140625 C 4.132812 -0.234375 3.429688 -0.3125 2.765625 -0.375 C 3.804688 -6.9375 5.257812 -13.695312 7.125 -20.65625 C 9 -27.613281 10.960938 -34.601562 13.015625 -41.625 C 15.066406 -48.644531 16.832031 -55.441406 18.3125 -62.015625 C 19.351562 -62.066406 20.410156 -62.125 21.484375 -62.1875 C 22.554688 -62.25 23.613281 -62.28125 24.65625 -62.28125 C 27.164062 -62.28125 29.691406 -62.28125 32.234375 -62.28125 C 34.785156 -62.28125 37.320312 -62.21875 39.84375 -62.09375 C 40.269531 -60.5 40.863281 -58.078125 41.625 -54.828125 C 42.394531 -51.578125 43.269531 -47.863281 44.25 -43.6875 C 45.226562 -39.519531 46.207031 -35.242188 47.1875 -30.859375 C 48.175781 -26.472656 49.082031 -22.285156 49.90625 -18.296875 C 50.738281 -14.316406 51.414062 -10.882812 51.9375 -8 C 52.457031 -5.125 52.71875 -3.160156 52.71875 -2.109375 Z M 25.671875 -27.234375 L 26.953125 -27.234375 C 28.179688 -27.234375 29.5 -27.234375 30.90625 -27.234375 C 32.320312 -27.234375 33.613281 -27.351562 34.78125 -27.59375 C 34.59375 -29.625 34.285156 -31.617188 33.859375 -33.578125 C 33.429688 -35.546875 33 -37.507812 32.5625 -39.46875 C 32.5 -39.957031 32.390625 -40.691406 32.234375 -41.671875 C 32.085938 -42.648438 31.890625 -43.675781 31.640625 -44.75 C 31.398438 -45.832031 31.078125 -46.738281 30.671875 -47.46875 C 30.273438 -48.207031 29.742188 -48.578125 29.078125 -48.578125 C 28.828125 -48.578125 28.578125 -48.578125 28.328125 -48.578125 C 28.085938 -48.578125 27.84375 -48.546875 27.59375 -48.484375 C 26.988281 -44.921875 26.101562 -41.40625 24.9375 -37.9375 C 23.769531 -34.476562 23.03125 -30.941406 22.71875 -27.328125 C 23.207031 -27.265625 23.695312 -27.234375 24.1875 -27.234375 C 24.6875 -27.234375 25.179688 -27.234375 25.671875 -27.234375 Z M 25.671875 -27.234375 "/></g></g></g><g fill="#274c77" fill-opacity="1"><g transform="translate(497.023698, 427.878925)"><g><path d="M 58.96875 -0.1875 L 53.359375 -0.09375 C 51.085938 -0.09375 48.800781 -0.140625 46.5 -0.234375 C 44.207031 -0.328125 41.894531 -0.492188 39.5625 -0.734375 C 36 -7.660156 32.65625 -14.515625 29.53125 -21.296875 C 26.40625 -28.078125 23.921875 -35.269531 22.078125 -42.875 L 21.53125 -42.875 L 21.4375 -31.46875 C 21.4375 -26.3125 21.554688 -21.109375 21.796875 -15.859375 C 22.046875 -10.617188 21.925781 -5.425781 21.4375 -0.28125 C 20.457031 -0.09375 19.472656 0 18.484375 0 L 9.75 0 L 8.375 -0.09375 C 8.3125 -2.664062 8.234375 -5.222656 8.140625 -7.765625 C 8.046875 -10.316406 8 -12.878906 8 -15.453125 L 8 -43.421875 C 8 -46.546875 8.015625 -49.65625 8.046875 -52.75 C 8.078125 -55.851562 8.15625 -58.96875 8.28125 -62.09375 L 13.703125 -62.1875 L 20.140625 -62.1875 C 21.191406 -62.1875 22.253906 -62.09375 23.328125 -61.90625 C 24.398438 -61.726562 25.457031 -61.578125 26.5 -61.453125 C 29.5625 -54.097656 32.835938 -46.707031 36.328125 -39.28125 C 39.828125 -31.863281 42.742188 -24.410156 45.078125 -16.921875 L 45.71875 -16.921875 C 45.78125 -19.066406 45.84375 -21.226562 45.90625 -23.40625 C 45.96875 -25.59375 46 -27.757812 46 -29.90625 C 46 -35.175781 45.890625 -40.476562 45.671875 -45.8125 C 45.460938 -51.144531 45.507812 -56.453125 45.8125 -61.734375 C 46.738281 -61.921875 47.765625 -62.039062 48.890625 -62.09375 C 50.023438 -62.15625 51.054688 -62.1875 51.984375 -62.1875 C 53.085938 -62.1875 54.191406 -62.171875 55.296875 -62.140625 C 56.398438 -62.109375 57.472656 -62.003906 58.515625 -61.828125 C 59.242188 -53.847656 59.515625 -45.582031 59.328125 -37.03125 C 59.148438 -28.476562 59.0625 -20.179688 59.0625 -12.140625 C 59.0625 -10.179688 59.0625 -8.1875 59.0625 -6.15625 C 59.0625 -4.132812 59.03125 -2.144531 58.96875 -0.1875 Z M 58.96875 -0.1875 "/></g></g></g><g fill="#274c77" fill-opacity="1"><g transform="translate(564.454023, 427.878925)"><g><path d="M 4.328125 -12.609375 C 4.453125 -12.847656 4.726562 -13.441406 5.15625 -14.390625 C 5.582031 -15.347656 6.191406 -16.363281 6.984375 -17.4375 C 7.785156 -18.507812 8.738281 -19.335938 9.84375 -19.921875 C 10.945312 -20.503906 12.203125 -20.519531 13.609375 -19.96875 C 14.660156 -17.082031 16.519531 -14.8125 19.1875 -13.15625 C 21.851562 -11.5 24.597656 -10.671875 27.421875 -10.671875 C 29.992188 -10.671875 31.9375 -11.328125 33.25 -12.640625 C 34.570312 -13.960938 35.234375 -15.578125 35.234375 -17.484375 C 35.234375 -19.503906 34.523438 -21.1875 33.109375 -22.53125 C 31.703125 -23.882812 29.910156 -25.066406 27.734375 -26.078125 C 25.554688 -27.085938 23.222656 -28.128906 20.734375 -29.203125 C 18.253906 -30.273438 15.910156 -31.515625 13.703125 -32.921875 C 11.492188 -34.335938 9.695312 -36.132812 8.3125 -38.3125 C 6.9375 -40.488281 6.25 -43.203125 6.25 -46.453125 C 6.25 -49.460938 6.847656 -52.039062 8.046875 -54.1875 C 9.242188 -56.332031 10.820312 -58.09375 12.78125 -59.46875 C 14.75 -60.851562 16.925781 -61.882812 19.3125 -62.5625 C 21.707031 -63.238281 24.101562 -63.578125 26.5 -63.578125 C 28.707031 -63.578125 30.957031 -63.285156 33.25 -62.703125 C 35.550781 -62.117188 37.679688 -61.242188 39.640625 -60.078125 C 41.609375 -58.910156 43.191406 -57.40625 44.390625 -55.5625 C 45.585938 -53.726562 46.1875 -51.519531 46.1875 -48.9375 C 45.9375 -48.820312 45.394531 -48.5625 44.5625 -48.15625 C 43.738281 -47.757812 42.789062 -47.332031 41.71875 -46.875 C 40.644531 -46.414062 39.660156 -46.015625 38.765625 -45.671875 C 37.878906 -45.335938 37.285156 -45.203125 36.984375 -45.265625 C 35.628906 -47.472656 34.03125 -49.21875 32.1875 -50.5 C 30.351562 -51.789062 28.269531 -52.4375 25.9375 -52.4375 C 23.675781 -52.4375 22.035156 -51.867188 21.015625 -50.734375 C 20.003906 -49.597656 19.5 -48.328125 19.5 -46.921875 C 19.5 -45.140625 20.1875 -43.632812 21.5625 -42.40625 C 22.945312 -41.1875 24.742188 -40.050781 26.953125 -39 C 29.160156 -37.957031 31.472656 -36.882812 33.890625 -35.78125 C 36.316406 -34.675781 38.632812 -33.328125 40.84375 -31.734375 C 43.050781 -30.140625 44.84375 -28.175781 46.21875 -25.84375 C 47.601562 -23.519531 48.296875 -20.640625 48.296875 -17.203125 C 48.296875 -13.523438 47.4375 -10.289062 45.71875 -7.5 C 44 -4.707031 41.578125 -2.53125 38.453125 -0.96875 C 35.328125 0.59375 31.648438 1.375 27.421875 1.375 C 24.046875 1.375 21.082031 0.914062 18.53125 0 C 15.988281 -0.914062 13.84375 -2.046875 12.09375 -3.390625 C 10.34375 -4.742188 8.914062 -6.109375 7.8125 -7.484375 C 6.707031 -8.867188 5.878906 -10.050781 5.328125 -11.03125 C 4.785156 -12.019531 4.453125 -12.546875 4.328125 -12.609375 Z M 4.328125 -12.609375 "/></g></g></g><g fill="#274c77" fill-opacity="1"><g transform="translate(617.99351, 427.878925)"><g><path d="M 72.953125 -5.421875 L 72.859375 -0.09375 C 71.753906 -0.03125 70.648438 0.015625 69.546875 0.046875 C 68.441406 0.078125 67.335938 0.09375 66.234375 0.09375 C 65.253906 0.09375 64.257812 0.078125 63.25 0.046875 C 62.238281 0.015625 61.210938 -0.03125 60.171875 -0.09375 C 59.429688 -6.957031 59.195312 -13.976562 59.46875 -21.15625 C 59.75 -28.332031 59.796875 -35.359375 59.609375 -42.234375 L 59.0625 -42.234375 C 58.269531 -38.546875 57.242188 -35.15625 55.984375 -32.0625 C 54.722656 -28.96875 53.34375 -25.929688 51.84375 -22.953125 C 50.34375 -19.972656 48.796875 -16.769531 47.203125 -13.34375 C 46.398438 -13.21875 45.550781 -13.03125 44.65625 -12.78125 C 43.769531 -12.539062 42.898438 -12.421875 42.046875 -12.421875 C 40.515625 -12.421875 39.285156 -12.4375 38.359375 -12.46875 C 37.441406 -12.5 36.566406 -12.632812 35.734375 -12.875 C 34.910156 -13.125 33.765625 -13.492188 32.296875 -13.984375 C 30.390625 -18.765625 28.5625 -23.332031 26.8125 -27.6875 C 25.070312 -32.039062 23.554688 -36.703125 22.265625 -41.671875 L 21.625 -41.765625 L 21.53125 -27.234375 C 21.53125 -22.753906 21.679688 -18.273438 21.984375 -13.796875 C 22.296875 -9.316406 22.328125 -4.8125 22.078125 -0.28125 C 21.285156 -0.21875 20.488281 -0.140625 19.6875 -0.046875 C 18.882812 0.046875 18.085938 0.09375 17.296875 0.09375 C 15.890625 0.09375 14.476562 0.09375 13.0625 0.09375 C 11.65625 0.09375 10.242188 0 8.828125 -0.1875 C 8.335938 -6.320312 8.09375 -12.5625 8.09375 -18.90625 C 8.09375 -25.25 8.179688 -31.609375 8.359375 -37.984375 C 8.546875 -44.367188 8.640625 -50.628906 8.640625 -56.765625 C 8.640625 -57.617188 8.65625 -58.472656 8.6875 -59.328125 C 8.71875 -60.191406 8.765625 -61.054688 8.828125 -61.921875 L 14.359375 -62.09375 L 20.96875 -62.09375 C 22.019531 -62.09375 23.082031 -61.96875 24.15625 -61.71875 C 25.226562 -61.476562 26.253906 -61.238281 27.234375 -61 C 29.066406 -55.050781 31.179688 -49.222656 33.578125 -43.515625 C 35.972656 -37.804688 38.273438 -32.039062 40.484375 -26.21875 C 42.140625 -30.445312 43.640625 -34.15625 44.984375 -37.34375 C 46.335938 -40.539062 47.566406 -43.457031 48.671875 -46.09375 C 49.773438 -48.726562 50.800781 -51.300781 51.75 -53.8125 C 52.695312 -56.332031 53.601562 -59.035156 54.46875 -61.921875 C 55.9375 -62.097656 57.375 -62.1875 58.78125 -62.1875 L 66.0625 -62.1875 C 67.101562 -62.1875 68.160156 -62.15625 69.234375 -62.09375 C 70.304688 -62.039062 71.363281 -61.984375 72.40625 -61.921875 C 73.144531 -55.960938 73.523438 -49.78125 73.546875 -43.375 C 73.578125 -36.96875 73.484375 -30.554688 73.265625 -24.140625 C 73.054688 -17.734375 72.953125 -11.492188 72.953125 -5.421875 Z M 72.953125 -5.421875 "/></g></g></g><g fill="#274c77" fill-opacity="1"><g transform="translate(699.590635, 427.878925)"><g><path d="M 21.625 -0.09375 L 19.96875 0 L 10.578125 0 C 10.210938 0 9.84375 -0.03125 9.46875 -0.09375 C 9.101562 -0.15625 8.738281 -0.21875 8.375 -0.28125 C 8.25 -1.625 8.15625 -2.953125 8.09375 -4.265625 C 8.03125 -5.585938 8 -6.925781 8 -8.28125 L 8 -53.359375 C 8 -54.765625 8.046875 -56.171875 8.140625 -57.578125 C 8.234375 -58.992188 8.3125 -60.410156 8.375 -61.828125 C 9.476562 -61.953125 10.582031 -62.039062 11.6875 -62.09375 C 12.789062 -62.15625 13.894531 -62.1875 15 -62.1875 L 20.796875 -62.015625 C 20.972656 -62.015625 21.226562 -61.953125 21.5625 -61.828125 C 21.90625 -61.703125 22.078125 -61.640625 22.078125 -61.640625 C 22.078125 -51.640625 22.109375 -41.378906 22.171875 -30.859375 C 22.234375 -20.347656 22.050781 -10.09375 21.625 -0.09375 Z M 21.625 -0.09375 "/></g></g></g><g fill="#274c77" fill-opacity="1"><g transform="translate(729.76408, 427.878925)"><g><path d="M 4.328125 -12.609375 C 4.453125 -12.847656 4.726562 -13.441406 5.15625 -14.390625 C 5.582031 -15.347656 6.191406 -16.363281 6.984375 -17.4375 C 7.785156 -18.507812 8.738281 -19.335938 9.84375 -19.921875 C 10.945312 -20.503906 12.203125 -20.519531 13.609375 -19.96875 C 14.660156 -17.082031 16.519531 -14.8125 19.1875 -13.15625 C 21.851562 -11.5 24.597656 -10.671875 27.421875 -10.671875 C 29.992188 -10.671875 31.9375 -11.328125 33.25 -12.640625 C 34.570312 -13.960938 35.234375 -15.578125 35.234375 -17.484375 C 35.234375 -19.503906 34.523438 -21.1875 33.109375 -22.53125 C 31.703125 -23.882812 29.910156 -25.066406 27.734375 -26.078125 C 25.554688 -27.085938 23.222656 -28.128906 20.734375 -29.203125 C 18.253906 -30.273438 15.910156 -31.515625 13.703125 -32.921875 C 11.492188 -34.335938 9.695312 -36.132812 8.3125 -38.3125 C 6.9375 -40.488281 6.25 -43.203125 6.25 -46.453125 C 6.25 -49.460938 6.847656 -52.039062 8.046875 -54.1875 C 9.242188 -56.332031 10.820312 -58.09375 12.78125 -59.46875 C 14.75 -60.851562 16.925781 -61.882812 19.3125 -62.5625 C 21.707031 -63.238281 24.101562 -63.578125 26.5 -63.578125 C 28.707031 -63.578125 30.957031 -63.285156 33.25 -62.703125 C 35.550781 -62.117188 37.679688 -61.242188 39.640625 -60.078125 C 41.609375 -58.910156 43.191406 -57.40625 44.390625 -55.5625 C 45.585938 -53.726562 46.1875 -51.519531 46.1875 -48.9375 C 45.9375 -48.820312 45.394531 -48.5625 44.5625 -48.15625 C 43.738281 -47.757812 42.789062 -47.332031 41.71875 -46.875 C 40.644531 -46.414062 39.660156 -46.015625 38.765625 -45.671875 C 37.878906 -45.335938 37.285156 -45.203125 36.984375 -45.265625 C 35.628906 -47.472656 34.03125 -49.21875 32.1875 -50.5 C 30.351562 -51.789062 28.269531 -52.4375 25.9375 -52.4375 C 23.675781 -52.4375 22.035156 -51.867188 21.015625 -50.734375 C 20.003906 -49.597656 19.5 -48.328125 19.5 -46.921875 C 19.5 -45.140625 20.1875 -43.632812 21.5625 -42.40625 C 22.945312 -41.1875 24.742188 -40.050781 26.953125 -39 C 29.160156 -37.957031 31.472656 -36.882812 33.890625 -35.78125 C 36.316406 -34.675781 38.632812 -33.328125 40.84375 -31.734375 C 43.050781 -30.140625 44.84375 -28.175781 46.21875 -25.84375 C 47.601562 -23.519531 48.296875 -20.640625 48.296875 -17.203125 C 48.296875 -13.523438 47.4375 -10.289062 45.71875 -7.5 C 44 -4.707031 41.578125 -2.53125 38.453125 -0.96875 C 35.328125 0.59375 31.648438 1.375 27.421875 1.375 C 24.046875 1.375 21.082031 0.914062 18.53125 0 C 15.988281 -0.914062 13.84375 -2.046875 12.09375 -3.390625 C 10.34375 -4.742188 8.914062 -6.109375 7.8125 -7.484375 C 6.707031 -8.867188 5.878906 -10.050781 5.328125 -11.03125 C 4.785156 -12.019531 4.453125 -12.546875 4.328125 -12.609375 Z M 4.328125 -12.609375 "/></g></g></g><g fill="#274c77" fill-opacity="1"><g transform="translate(783.303567, 427.878925)"><g><path d="M 4.328125 -12.609375 C 4.453125 -12.847656 4.726562 -13.441406 5.15625 -14.390625 C 5.582031 -15.347656 6.191406 -16.363281 6.984375 -17.4375 C 7.785156 -18.507812 8.738281 -19.335938 9.84375 -19.921875 C 10.945312 -20.503906 12.203125 -20.519531 13.609375 -19.96875 C 14.660156 -17.082031 16.519531 -14.8125 19.1875 -13.15625 C 21.851562 -11.5 24.597656 -10.671875 27.421875 -10.671875 C 29.992188 -10.671875 31.9375 -11.328125 33.25 -12.640625 C 34.570312 -13.960938 35.234375 -15.578125 35.234375 -17.484375 C 35.234375 -19.503906 34.523438 -21.1875 33.109375 -22.53125 C 31.703125 -23.882812 29.910156 -25.066406 27.734375 -26.078125 C 25.554688 -27.085938 23.222656 -28.128906 20.734375 -29.203125 C 18.253906 -30.273438 15.910156 -31.515625 13.703125 -32.921875 C 11.492188 -34.335938 9.695312 -36.132812 8.3125 -38.3125 C 6.9375 -40.488281 6.25 -43.203125 6.25 -46.453125 C 6.25 -49.460938 6.847656 -52.039062 8.046875 -54.1875 C 9.242188 -56.332031 10.820312 -58.09375 12.78125 -59.46875 C 14.75 -60.851562 16.925781 -61.882812 19.3125 -62.5625 C 21.707031 -63.238281 24.101562 -63.578125 26.5 -63.578125 C 28.707031 -63.578125 30.957031 -63.285156 33.25 -62.703125 C 35.550781 -62.117188 37.679688 -61.242188 39.640625 -60.078125 C 41.609375 -58.910156 43.191406 -57.40625 44.390625 -55.5625 C 45.585938 -53.726562 46.1875 -51.519531 46.1875 -48.9375 C 45.9375 -48.820312 45.394531 -48.5625 44.5625 -48.15625 C 43.738281 -47.757812 42.789062 -47.332031 41.71875 -46.875 C 40.644531 -46.414062 39.660156 -46.015625 38.765625 -45.671875 C 37.878906 -45.335938 37.285156 -45.203125 36.984375 -45.265625 C 35.628906 -47.472656 34.03125 -49.21875 32.1875 -50.5 C 30.351562 -51.789062 28.269531 -52.4375 25.9375 -52.4375 C 23.675781 -52.4375 22.035156 -51.867188 21.015625 -50.734375 C 20.003906 -49.597656 19.5 -48.328125 19.5 -46.921875 C 19.5 -45.140625 20.1875 -43.632812 21.5625 -42.40625 C 22.945312 -41.1875 24.742188 -40.050781 26.953125 -39 C 29.160156 -37.957031 31.472656 -36.882812 33.890625 -35.78125 C 36.316406 -34.675781 38.632812 -33.328125 40.84375 -31.734375 C 43.050781 -30.140625 44.84375 -28.175781 46.21875 -25.84375 C 47.601562 -23.519531 48.296875 -20.640625 48.296875 -17.203125 C 48.296875 -13.523438 47.4375 -10.289062 45.71875 -7.5 C 44 -4.707031 41.578125 -2.53125 38.453125 -0.96875 C 35.328125 0.59375 31.648438 1.375 27.421875 1.375 C 24.046875 1.375 21.082031 0.914062 18.53125 0 C 15.988281 -0.914062 13.84375 -2.046875 12.09375 -3.390625 C 10.34375 -4.742188 8.914062 -6.109375 7.8125 -7.484375 C 6.707031 -8.867188 5.878906 -10.050781 5.328125 -11.03125 C 4.785156 -12.019531 4.453125 -12.546875 4.328125 -12.609375 Z M 4.328125 -12.609375 "/></g></g></g><g fill="#274c77" fill-opacity="1"><g transform="translate(836.843054, 427.878925)"><g><path d="M 52.53125 0.1875 L 43.140625 0.1875 C 42.035156 0.1875 40.9375 0.09375 39.84375 -0.09375 C 39.226562 -2.601562 38.628906 -5.160156 38.046875 -7.765625 C 37.460938 -10.378906 36.832031 -12.941406 36.15625 -15.453125 L 29.8125 -15.453125 C 26.5 -15.453125 23.125 -15.363281 19.6875 -15.1875 C 18.707031 -10.21875 17.507812 -5.21875 16.09375 -0.1875 L 12.875 0 L 6.984375 0 C 6.316406 0 5.613281 -0.046875 4.875 -0.140625 C 4.132812 -0.234375 3.429688 -0.3125 2.765625 -0.375 C 3.804688 -6.9375 5.257812 -13.695312 7.125 -20.65625 C 9 -27.613281 10.960938 -34.601562 13.015625 -41.625 C 15.066406 -48.644531 16.832031 -55.441406 18.3125 -62.015625 C 19.351562 -62.066406 20.410156 -62.125 21.484375 -62.1875 C 22.554688 -62.25 23.613281 -62.28125 24.65625 -62.28125 C 27.164062 -62.28125 29.691406 -62.28125 32.234375 -62.28125 C 34.785156 -62.28125 37.320312 -62.21875 39.84375 -62.09375 C 40.269531 -60.5 40.863281 -58.078125 41.625 -54.828125 C 42.394531 -51.578125 43.269531 -47.863281 44.25 -43.6875 C 45.226562 -39.519531 46.207031 -35.242188 47.1875 -30.859375 C 48.175781 -26.472656 49.082031 -22.285156 49.90625 -18.296875 C 50.738281 -14.316406 51.414062 -10.882812 51.9375 -8 C 52.457031 -5.125 52.71875 -3.160156 52.71875 -2.109375 Z M 25.671875 -27.234375 L 26.953125 -27.234375 C 28.179688 -27.234375 29.5 -27.234375 30.90625 -27.234375 C 32.320312 -27.234375 33.613281 -27.351562 34.78125 -27.59375 C 34.59375 -29.625 34.285156 -31.617188 33.859375 -33.578125 C 33.429688 -35.546875 33 -37.507812 32.5625 -39.46875 C 32.5 -39.957031 32.390625 -40.691406 32.234375 -41.671875 C 32.085938 -42.648438 31.890625 -43.675781 31.640625 -44.75 C 31.398438 -45.832031 31.078125 -46.738281 30.671875 -47.46875 C 30.273438 -48.207031 29.742188 -48.578125 29.078125 -48.578125 C 28.828125 -48.578125 28.578125 -48.578125 28.328125 -48.578125 C 28.085938 -48.578125 27.84375 -48.546875 27.59375 -48.484375 C 26.988281 -44.921875 26.101562 -41.40625 24.9375 -37.9375 C 23.769531 -34.476562 23.03125 -30.941406 22.71875 -27.328125 C 23.207031 -27.265625 23.695312 -27.234375 24.1875 -27.234375 C 24.6875 -27.234375 25.179688 -27.234375 25.671875 -27.234375 Z M 42.59375 -75.15625 L 43.140625 -73.96875 C 43.085938 -72.738281 42.492188 -71.445312 41.359375 -70.09375 C 40.222656 -68.75 38.929688 -67.613281 37.484375 -66.6875 C 36.046875 -65.769531 34.710938 -65.3125 33.484375 -65.3125 C 32.015625 -65.3125 30.710938 -65.679688 29.578125 -66.421875 C 28.441406 -67.160156 27.398438 -67.894531 26.453125 -68.625 C 25.503906 -69.363281 24.476562 -69.734375 23.375 -69.734375 C 22.632812 -69.734375 22.019531 -69.425781 21.53125 -68.8125 C 21.039062 -68.195312 20.578125 -67.582031 20.140625 -66.96875 C 19.710938 -66.363281 19.222656 -66.0625 18.671875 -66.0625 C 18.367188 -66.0625 17.925781 -66.257812 17.34375 -66.65625 C 16.757812 -67.050781 16.191406 -67.492188 15.640625 -67.984375 C 15.085938 -68.472656 14.6875 -68.8125 14.4375 -69 L 13.796875 -70.46875 C 14.285156 -71.820312 15.019531 -73.125 16 -74.375 C 16.988281 -75.632812 18.15625 -76.691406 19.5 -77.546875 C 20.851562 -78.410156 22.265625 -78.84375 23.734375 -78.84375 C 25.148438 -78.84375 26.378906 -78.488281 27.421875 -77.78125 C 28.460938 -77.082031 29.472656 -76.363281 30.453125 -75.625 C 31.429688 -74.882812 32.503906 -74.515625 33.671875 -74.515625 C 34.472656 -74.515625 35.117188 -74.804688 35.609375 -75.390625 C 36.097656 -75.972656 36.539062 -76.554688 36.9375 -77.140625 C 37.332031 -77.722656 37.773438 -78.015625 38.265625 -78.015625 C 38.578125 -78.015625 39.023438 -77.828125 39.609375 -77.453125 C 40.191406 -77.085938 40.773438 -76.675781 41.359375 -76.21875 C 41.941406 -75.757812 42.351562 -75.40625 42.59375 -75.15625 Z M 42.59375 -75.15625 "/></g></g></g><g fill="#274c77" fill-opacity="1"><g transform="translate(892.314395, 427.878925)"><g><path d="M 32.296875 1.109375 C 27.390625 1.109375 23.203125 0.21875 19.734375 -1.5625 C 16.265625 -3.34375 13.457031 -5.765625 11.3125 -8.828125 C 9.164062 -11.898438 7.585938 -15.410156 6.578125 -19.359375 C 5.566406 -23.316406 5.0625 -27.472656 5.0625 -31.828125 C 5.0625 -35.453125 5.613281 -39.085938 6.71875 -42.734375 C 7.820312 -46.378906 9.445312 -49.734375 11.59375 -52.796875 C 13.738281 -55.867188 16.375 -58.335938 19.5 -60.203125 C 22.632812 -62.078125 26.222656 -63.015625 30.265625 -63.015625 C 36.398438 -63.015625 41.503906 -61.570312 45.578125 -58.6875 C 49.660156 -55.8125 52.742188 -51.992188 54.828125 -47.234375 C 56.910156 -42.484375 57.953125 -37.226562 57.953125 -31.46875 C 57.953125 -27.601562 57.429688 -23.753906 56.390625 -19.921875 C 55.347656 -16.085938 53.769531 -12.570312 51.65625 -9.375 C 49.539062 -6.1875 46.875 -3.640625 43.65625 -1.734375 C 40.4375 0.160156 36.648438 1.109375 32.296875 1.109375 Z M 31.5625 -11.953125 C 34.257812 -11.953125 36.492188 -12.550781 38.265625 -13.75 C 40.046875 -14.945312 41.441406 -16.507812 42.453125 -18.4375 C 43.460938 -20.375 44.179688 -22.507812 44.609375 -24.84375 C 45.046875 -27.175781 45.265625 -29.441406 45.265625 -31.640625 C 45.265625 -33.734375 45.0625 -35.894531 44.65625 -38.125 C 44.257812 -40.363281 43.585938 -42.4375 42.640625 -44.34375 C 41.691406 -46.25 40.359375 -47.78125 38.640625 -48.9375 C 36.921875 -50.101562 34.742188 -50.6875 32.109375 -50.6875 C 29.097656 -50.6875 26.65625 -49.96875 24.78125 -48.53125 C 22.914062 -47.09375 21.492188 -45.222656 20.515625 -42.921875 C 19.535156 -40.617188 18.875 -38.148438 18.53125 -35.515625 C 18.195312 -32.878906 18.03125 -30.394531 18.03125 -28.0625 C 18.03125 -25.363281 18.550781 -22.785156 19.59375 -20.328125 C 20.632812 -17.878906 22.148438 -15.867188 24.140625 -14.296875 C 26.140625 -12.734375 28.613281 -11.953125 31.5625 -11.953125 Z M 31.5625 -11.953125 "/></g></g></g><g fill="#274c77" fill-opacity="1"><g transform="translate(955.329086, 427.878925)"><g/></g></g><g fill="#274c77" fill-opacity="1"><g transform="translate(978.327132, 427.878925)"><g><path d="M 52.53125 0.1875 L 43.140625 0.1875 C 42.035156 0.1875 40.9375 0.09375 39.84375 -0.09375 C 39.226562 -2.601562 38.628906 -5.160156 38.046875 -7.765625 C 37.460938 -10.378906 36.832031 -12.941406 36.15625 -15.453125 L 29.8125 -15.453125 C 26.5 -15.453125 23.125 -15.363281 19.6875 -15.1875 C 18.707031 -10.21875 17.507812 -5.21875 16.09375 -0.1875 L 12.875 0 L 6.984375 0 C 6.316406 0 5.613281 -0.046875 4.875 -0.140625 C 4.132812 -0.234375 3.429688 -0.3125 2.765625 -0.375 C 3.804688 -6.9375 5.257812 -13.695312 7.125 -20.65625 C 9 -27.613281 10.960938 -34.601562 13.015625 -41.625 C 15.066406 -48.644531 16.832031 -55.441406 18.3125 -62.015625 C 19.351562 -62.066406 20.410156 -62.125 21.484375 -62.1875 C 22.554688 -62.25 23.613281 -62.28125 24.65625 -62.28125 C 27.164062 -62.28125 29.691406 -62.28125 32.234375 -62.28125 C 34.785156 -62.28125 37.320312 -62.21875 39.84375 -62.09375 C 40.269531 -60.5 40.863281 -58.078125 41.625 -54.828125 C 42.394531 -51.578125 43.269531 -47.863281 44.25 -43.6875 C 45.226562 -39.519531 46.207031 -35.242188 47.1875 -30.859375 C 48.175781 -26.472656 49.082031 -22.285156 49.90625 -18.296875 C 50.738281 -14.316406 51.414062 -10.882812 51.9375 -8 C 52.457031 -5.125 52.71875 -3.160156 52.71875 -2.109375 Z M 25.671875 -27.234375 L 26.953125 -27.234375 C 28.179688 -27.234375 29.5 -27.234375 30.90625 -27.234375 C 32.320312 -27.234375 33.613281 -27.351562 34.78125 -27.59375 C 34.59375 -29.625 34.285156 -31.617188 33.859375 -33.578125 C 33.429688 -35.546875 33 -37.507812 32.5625 -39.46875 C 32.5 -39.957031 32.390625 -40.691406 32.234375 -41.671875 C 32.085938 -42.648438 31.890625 -43.675781 31.640625 -44.75 C 31.398438 -45.832031 31.078125 -46.738281 30.671875 -47.46875 C 30.273438 -48.207031 29.742188 -48.578125 29.078125 -48.578125 C 28.828125 -48.578125 28.578125 -48.578125 28.328125 -48.578125 C 28.085938 -48.578125 27.84375 -48.546875 27.59375 -48.484375 C 26.988281 -44.921875 26.101562 -41.40625 24.9375 -37.9375 C 23.769531 -34.476562 23.03125 -30.941406 22.71875 -27.328125 C 23.207031 -27.265625 23.695312 -27.234375 24.1875 -27.234375 C 24.6875 -27.234375 25.179688 -27.234375 25.671875 -27.234375 Z M 25.671875 -27.234375 "/></g></g></g><g fill="#274c77" fill-opacity="1"><g transform="translate(1033.798473, 427.878925)"><g><path d="M 32.296875 1.109375 C 27.390625 1.109375 23.203125 0.21875 19.734375 -1.5625 C 16.265625 -3.34375 13.457031 -5.765625 11.3125 -8.828125 C 9.164062 -11.898438 7.585938 -15.410156 6.578125 -19.359375 C 5.566406 -23.316406 5.0625 -27.472656 5.0625 -31.828125 C 5.0625 -35.453125 5.613281 -39.085938 6.71875 -42.734375 C 7.820312 -46.378906 9.445312 -49.734375 11.59375 -52.796875 C 13.738281 -55.867188 16.375 -58.335938 19.5 -60.203125 C 22.632812 -62.078125 26.222656 -63.015625 30.265625 -63.015625 C 36.398438 -63.015625 41.503906 -61.570312 45.578125 -58.6875 C 49.660156 -55.8125 52.742188 -51.992188 54.828125 -47.234375 C 56.910156 -42.484375 57.953125 -37.226562 57.953125 -31.46875 C 57.953125 -27.601562 57.429688 -23.753906 56.390625 -19.921875 C 55.347656 -16.085938 53.769531 -12.570312 51.65625 -9.375 C 49.539062 -6.1875 46.875 -3.640625 43.65625 -1.734375 C 40.4375 0.160156 36.648438 1.109375 32.296875 1.109375 Z M 31.5625 -11.953125 C 34.257812 -11.953125 36.492188 -12.550781 38.265625 -13.75 C 40.046875 -14.945312 41.441406 -16.507812 42.453125 -18.4375 C 43.460938 -20.375 44.179688 -22.507812 44.609375 -24.84375 C 45.046875 -27.175781 45.265625 -29.441406 45.265625 -31.640625 C 45.265625 -33.734375 45.0625 -35.894531 44.65625 -38.125 C 44.257812 -40.363281 43.585938 -42.4375 42.640625 -44.34375 C 41.691406 -46.25 40.359375 -47.78125 38.640625 -48.9375 C 36.921875 -50.101562 34.742188 -50.6875 32.109375 -50.6875 C 29.097656 -50.6875 26.65625 -49.96875 24.78125 -48.53125 C 22.914062 -47.09375 21.492188 -45.222656 20.515625 -42.921875 C 19.535156 -40.617188 18.875 -38.148438 18.53125 -35.515625 C 18.195312 -32.878906 18.03125 -30.394531 18.03125 -28.0625 C 18.03125 -25.363281 18.550781 -22.785156 19.59375 -20.328125 C 20.632812 -17.878906 22.148438 -15.867188 24.140625 -14.296875 C 26.140625 -12.734375 28.613281 -11.953125 31.5625 -11.953125 Z M 31.5625 -11.953125 "/></g></g></g><g fill="#274c77" fill-opacity="1"><g transform="translate(1096.813164, 427.878925)"><g/></g></g><g fill="#274c77" fill-opacity="1"><g transform="translate(1119.811256, 427.878925)"><g><path d="M 36.15625 0 L 29.984375 0.09375 L 17.203125 0.09375 C 16.648438 -1.625 15.910156 -4.09375 14.984375 -7.3125 C 14.066406 -10.53125 13.070312 -14.191406 12 -18.296875 C 10.925781 -22.410156 9.867188 -26.660156 8.828125 -31.046875 C 7.785156 -35.429688 6.816406 -39.675781 5.921875 -43.78125 C 5.035156 -47.894531 4.300781 -51.53125 3.71875 -54.6875 C 3.144531 -57.851562 2.828125 -60.234375 2.765625 -61.828125 C 3.253906 -61.953125 3.773438 -62.023438 4.328125 -62.046875 C 4.878906 -62.078125 5.398438 -62.09375 5.890625 -62.09375 L 14.171875 -62.09375 C 16.679688 -57.4375 18.671875 -52.453125 20.140625 -47.140625 C 21.617188 -41.835938 22.878906 -36.457031 23.921875 -31 C 24.960938 -25.539062 26.035156 -20.238281 27.140625 -15.09375 L 28.15625 -15 C 28.394531 -16.34375 28.820312 -18.300781 29.4375 -20.875 C 30.050781 -23.457031 30.769531 -26.375 31.59375 -29.625 C 32.425781 -32.875 33.316406 -36.210938 34.265625 -39.640625 C 35.222656 -43.078125 36.175781 -46.328125 37.125 -49.390625 C 38.070312 -52.460938 38.972656 -55.132812 39.828125 -57.40625 C 40.691406 -59.675781 41.429688 -61.238281 42.046875 -62.09375 L 53.90625 -62.09375 C 53.90625 -60.5 53.550781 -58.171875 52.84375 -55.109375 C 52.144531 -52.046875 51.226562 -48.519531 50.09375 -44.53125 C 48.957031 -40.539062 47.710938 -36.382812 46.359375 -32.0625 C 45.015625 -27.738281 43.664062 -23.503906 42.3125 -19.359375 C 40.96875 -15.222656 39.757812 -11.46875 38.6875 -8.09375 C 37.613281 -4.71875 36.769531 -2.019531 36.15625 0 Z M 36.15625 0 "/></g></g></g><g fill="#274c77" fill-opacity="1"><g transform="translate(1176.478459, 427.878925)"><g><path d="M 21.625 -0.09375 L 19.96875 0 L 10.578125 0 C 10.210938 0 9.84375 -0.03125 9.46875 -0.09375 C 9.101562 -0.15625 8.738281 -0.21875 8.375 -0.28125 C 8.25 -1.625 8.15625 -2.953125 8.09375 -4.265625 C 8.03125 -5.585938 8 -6.925781 8 -8.28125 L 8 -53.359375 C 8 -54.765625 8.046875 -56.171875 8.140625 -57.578125 C 8.234375 -58.992188 8.3125 -60.410156 8.375 -61.828125 C 9.476562 -61.953125 10.582031 -62.039062 11.6875 -62.09375 C 12.789062 -62.15625 13.894531 -62.1875 15 -62.1875 L 20.796875 -62.015625 C 20.972656 -62.015625 21.226562 -61.953125 21.5625 -61.828125 C 21.90625 -61.703125 22.078125 -61.640625 22.078125 -61.640625 C 22.078125 -51.640625 22.109375 -41.378906 22.171875 -30.859375 C 22.234375 -20.347656 22.050781 -10.09375 21.625 -0.09375 Z M 21.625 -0.09375 "/></g></g></g><g fill="#274c77" fill-opacity="1"><g transform="translate(1206.651949, 427.878925)"><g><path d="M 36.15625 0 L 29.984375 0.09375 L 17.203125 0.09375 C 16.648438 -1.625 15.910156 -4.09375 14.984375 -7.3125 C 14.066406 -10.53125 13.070312 -14.191406 12 -18.296875 C 10.925781 -22.410156 9.867188 -26.660156 8.828125 -31.046875 C 7.785156 -35.429688 6.816406 -39.675781 5.921875 -43.78125 C 5.035156 -47.894531 4.300781 -51.53125 3.71875 -54.6875 C 3.144531 -57.851562 2.828125 -60.234375 2.765625 -61.828125 C 3.253906 -61.953125 3.773438 -62.023438 4.328125 -62.046875 C 4.878906 -62.078125 5.398438 -62.09375 5.890625 -62.09375 L 14.171875 -62.09375 C 16.679688 -57.4375 18.671875 -52.453125 20.140625 -47.140625 C 21.617188 -41.835938 22.878906 -36.457031 23.921875 -31 C 24.960938 -25.539062 26.035156 -20.238281 27.140625 -15.09375 L 28.15625 -15 C 28.394531 -16.34375 28.820312 -18.300781 29.4375 -20.875 C 30.050781 -23.457031 30.769531 -26.375 31.59375 -29.625 C 32.425781 -32.875 33.316406 -36.210938 34.265625 -39.640625 C 35.222656 -43.078125 36.175781 -46.328125 37.125 -49.390625 C 38.070312 -52.460938 38.972656 -55.132812 39.828125 -57.40625 C 40.691406 -59.675781 41.429688 -61.238281 42.046875 -62.09375 L 53.90625 -62.09375 C 53.90625 -60.5 53.550781 -58.171875 52.84375 -55.109375 C 52.144531 -52.046875 51.226562 -48.519531 50.09375 -44.53125 C 48.957031 -40.539062 47.710938 -36.382812 46.359375 -32.0625 C 45.015625 -27.738281 43.664062 -23.503906 42.3125 -19.359375 C 40.96875 -15.222656 39.757812 -11.46875 38.6875 -8.09375 C 37.613281 -4.71875 36.769531 -2.019531 36.15625 0 Z M 36.15625 0 "/></g></g></g><g fill="#274c77" fill-opacity="1"><g transform="translate(1263.319152, 427.878925)"><g><path d="M 32.296875 1.109375 C 27.390625 1.109375 23.203125 0.21875 19.734375 -1.5625 C 16.265625 -3.34375 13.457031 -5.765625 11.3125 -8.828125 C 9.164062 -11.898438 7.585938 -15.410156 6.578125 -19.359375 C 5.566406 -23.316406 5.0625 -27.472656 5.0625 -31.828125 C 5.0625 -35.453125 5.613281 -39.085938 6.71875 -42.734375 C 7.820312 -46.378906 9.445312 -49.734375 11.59375 -52.796875 C 13.738281 -55.867188 16.375 -58.335938 19.5 -60.203125 C 22.632812 -62.078125 26.222656 -63.015625 30.265625 -63.015625 C 36.398438 -63.015625 41.503906 -61.570312 45.578125 -58.6875 C 49.660156 -55.8125 52.742188 -51.992188 54.828125 -47.234375 C 56.910156 -42.484375 57.953125 -37.226562 57.953125 -31.46875 C 57.953125 -27.601562 57.429688 -23.753906 56.390625 -19.921875 C 55.347656 -16.085938 53.769531 -12.570312 51.65625 -9.375 C 49.539062 -6.1875 46.875 -3.640625 43.65625 -1.734375 C 40.4375 0.160156 36.648438 1.109375 32.296875 1.109375 Z M 31.5625 -11.953125 C 34.257812 -11.953125 36.492188 -12.550781 38.265625 -13.75 C 40.046875 -14.945312 41.441406 -16.507812 42.453125 -18.4375 C 43.460938 -20.375 44.179688 -22.507812 44.609375 -24.84375 C 45.046875 -27.175781 45.265625 -29.441406 45.265625 -31.640625 C 45.265625 -33.734375 45.0625 -35.894531 44.65625 -38.125 C 44.257812 -40.363281 43.585938 -42.4375 42.640625 -44.34375 C 41.691406 -46.25 40.359375 -47.78125 38.640625 -48.9375 C 36.921875 -50.101562 34.742188 -50.6875 32.109375 -50.6875 C 29.097656 -50.6875 26.65625 -49.96875 24.78125 -48.53125 C 22.914062 -47.09375 21.492188 -45.222656 20.515625 -42.921875 C 19.535156 -40.617188 18.875 -38.148438 18.53125 -35.515625 C 18.195312 -32.878906 18.03125 -30.394531 18.03125 -28.0625 C 18.03125 -25.363281 18.550781 -22.785156 19.59375 -20.328125 C 20.632812 -17.878906 22.148438 -15.867188 24.140625 -14.296875 C 26.140625 -12.734375 28.613281 -11.953125 31.5625 -11.953125 Z M 31.5625 -11.953125 "/></g></g></g><g clip-path="url(#9543601230)"><path fill="#ed1d24" d="M 307.191406 357.261719 C 304.921875 348.730469 298.238281 342.015625 289.746094 339.738281 C 274.363281 335.59375 212.660156 335.59375 212.660156 335.59375 C 212.660156 335.59375 150.960938 335.59375 135.574219 339.738281 C 127.085938 342.015625 120.402344 348.730469 118.132812 357.261719 C 114.007812 372.71875 114.007812 404.96875 114.007812 404.96875 C 114.007812 404.96875 114.007812 437.21875 118.132812 452.675781 C 120.402344 461.203125 127.085938 467.921875 135.574219 470.199219 C 150.960938 474.34375 212.660156 474.34375 212.660156 474.34375 C 212.660156 474.34375 274.363281 474.34375 289.746094 470.199219 C 298.238281 467.921875 304.921875 461.203125 307.191406 452.675781 C 311.316406 437.21875 311.316406 404.96875 311.316406 404.96875 C 311.316406 404.96875 311.316406 372.71875 307.191406 357.261719 " fill-opacity="1" fill-rule="nonzero"/></g><path fill="#ffffff" d="M 192.484375 434.25 L 244.050781 404.96875 L 192.484375 375.6875 Z M 192.484375 434.25 " fill-opacity="1" fill-rule="nonzero"/></svg>