<svg width="1366" height="80" viewBox="0 0 1366 80" fill="none" xmlns="http://www.w3.org/2000/svg">
<mask id="mask0_24_151" style="mask-type:luminance" maskUnits="userSpaceOnUse" x="0" y="0" width="1366" height="80">
<path d="M0 0H1365.33V80H0V0Z" fill="white"/>
</mask>
<g mask="url(#mask0_24_151)">
<path d="M0 0H1365.33V80H0V0Z" fill="white"/>
<path d="M0 0H1365.33V80H0V0Z" fill="#2F2F21"/>
</g>
<mask id="mask1_24_151" style="mask-type:luminance" maskUnits="userSpaceOnUse" x="724" y="18" width="73" height="52">
<path d="M724.307 18.6094H796.74V69.0156H724.307V18.6094Z" fill="white"/>
</mask>
<g mask="url(#mask1_24_151)">
<path fill-rule="evenodd" clip-rule="evenodd" d="M796.505 38.3854H796.74V38.6198C796.583 38.7708 796.505 38.9271 796.505 39.0833C796.349 39.0833 796.042 39.1615 795.578 39.3177H794.646C794.646 39.1615 793.87 38.6198 792.318 37.6875C790.766 36.599 789.37 35.75 788.13 35.1302C786.734 34.6615 785.495 34.1198 784.406 33.5C783.323 32.8802 782.156 32.1042 780.917 31.1719C779.521 30.2396 778.359 29.6198 777.427 29.3125C776.344 29 775.49 28.3802 774.87 27.4479L773.938 26.0521V25.8229H773.703V25.5885H773.474V25.3542H773.24V25.125H772.776V24.8906H772.542V24.6563H772.307L772.542 26.9844C772.698 28.3802 772.927 29.2344 773.24 29.5417C773.703 29.6979 774.245 29.9323 774.87 30.2396C775.646 30.5521 776.188 31.0937 776.495 31.8698C776.964 32.6458 777.427 33.1094 777.891 33.2656C778.203 33.4219 778.438 33.5 778.589 33.5H778.823L779.057 33.7292L779.286 33.9635H779.521V34.1979H779.755V34.4271H779.286L778.359 34.6615C777.74 34.8177 777.193 34.8958 776.729 34.8958C776.266 34.8958 775.411 34.974 774.172 35.1302L772.542 35.3594L772.307 35.1302L772.078 34.8958H771.844V34.4271C771.844 34.1198 772.078 33.8073 772.542 33.5L773.24 33.0313V32.5677H773.005L772.776 32.3333C772.62 32.1823 772.151 31.9479 771.38 31.6354C770.604 31.3281 770.057 30.474 769.75 29.0781L769.052 27.2188V26.9844H768.818L768.583 26.75H768.12V27.2188L767.885 27.4479L767.656 27.9167L766.49 32.1042C765.714 35.0521 764.708 37.375 763.469 39.0833C762.38 40.6354 761.297 42.2656 760.208 43.9688C759.276 45.5208 758.656 46.6823 758.349 47.4583C758.036 48.0781 757.88 48.625 757.88 49.0885V49.7865L757.651 50.0208L757.417 50.25H756.953V49.0885C756.953 48.3125 757.26 47.151 757.88 45.599C758.505 43.8906 759.354 42.1875 760.443 40.4792C761.526 38.7708 762.38 37.0677 763 35.3594L763.932 32.5677V31.1719H762.536L762.073 31.6354H761.839V31.8698H761.604L760.906 33.5C760.443 34.5833 759.589 36.7552 758.349 40.0156C757.109 43.2708 755.635 46.4531 753.927 49.5521C752.219 52.5 750.438 55.0625 748.578 57.2344C746.87 59.0938 745.318 60.4896 743.922 61.4219C742.526 62.349 740.974 63.125 739.271 63.7448C737.719 64.3646 736.865 64.7552 736.708 64.9115L736.474 65.1406H736.01V65.375H735.776V65.6094H735.078V65.8385V65.1406H735.313V64.9115H735.547V64.6771H735.776V64.4427H736.01V64.2135H736.245V63.9792C736.401 63.9792 737.948 62.9688 740.896 60.9531C744 58.7813 745.938 57.3073 746.714 56.5313C747.646 55.7604 748.729 54.2865 749.974 52.1146C751.214 49.9427 752.297 47.9271 753.229 46.0625C753.849 44.3594 753.615 42.8854 752.531 41.6406C751.292 40.2448 750.281 39.5469 749.505 39.5469C748.885 39.5469 748.188 39.7031 747.411 40.0156C746.635 40.3229 746.016 40.9427 745.552 41.875C745.083 42.8073 744.234 45.2865 742.99 49.3229L741.13 55.1354L740.896 55.3698L740.667 55.8333V56.5313H740.432V56.7656H740.198V55.8333L740.667 54.4375V53.7396H740.432V53.974H740.198V54.2083L739.734 54.6719V54.9063H739.5V55.1354H739.271L738.339 56.5313C737.563 57.6198 737.172 58.1615 737.172 58.1615H736.943V58.3958H736.708V58.6302H735.776L735.313 59.0938H734.849V58.8594H735.078V58.3958H735.313V58.1615H735.547V57.6979L735.776 57.4635C735.932 57.3073 736.708 55.9115 738.104 53.276C739.5 50.6406 740.354 48.8542 740.667 47.9271L741.13 46.7604V45.8281H740.896V45.599H740.432V45.8281H740.198V46.2969H739.969V46.5313H739.734V46.9948L735.547 54.4375C732.755 59.401 731.203 62.1198 730.891 62.5833L730.427 63.2813V63.5156H730.193V63.7448H729.964V64.2135H729.729V64.4427H729.495V64.9115H729.266V65.1406L728.099 66.0729L726.703 67.4688H726.474V67.7031H726.24V67.9323H726.005V68.1667H725.771V68.401H725.542L725.307 68.6354L725.073 68.8646H724.844L724.609 69.099H724.375V68.6354H724.844V68.1667L725.073 67.9323L725.307 67.7031V67.4688H725.542V67.2344C725.698 67.2344 726.24 66.5365 727.172 65.1406C728.099 63.5938 729.266 61.4219 730.661 58.6302L732.755 54.6719L732.984 54.4375L733.219 54.2083V53.7396H733.453V53.5104H733.682V53.276C733.682 53.1198 734.771 50.8698 736.943 46.5313C739.115 42.1875 740.432 39.7031 740.896 39.0833C741.516 38.4635 742.063 38.151 742.526 38.151C743.146 38.151 743.687 37.7656 744.156 36.9896C744.62 36.3698 745.318 35.3594 746.25 33.9635C747.177 32.5677 747.802 31.7135 748.109 31.4063L748.807 31.1719H749.276L749.974 31.4063C750.281 31.7135 751.057 32.6458 752.297 34.1979C753.229 35.75 753.849 36.7552 754.161 37.224C754.469 37.5313 754.703 37.6875 754.859 37.6875H755.089V37.9219L755.323 38.151L755.557 38.3854V38.6198H756.484V37.9219L758.115 34.4271C759.203 32.1042 760.052 30.5521 760.677 29.776C761.448 29.1563 762.224 28.4583 763 27.6823C763.932 26.9063 765.172 25.4323 766.724 23.2604C768.276 21.0885 769.208 19.849 769.516 19.5365C769.979 19.2292 770.604 18.9167 771.38 18.6094C772.151 18.6094 773.083 18.9948 774.172 19.7708C775.099 20.5469 776.188 21.401 777.427 22.3281C778.359 23.4167 779.365 24.6563 780.453 26.0521C781.536 27.6042 782.625 28.8437 783.708 29.776C784.948 30.7083 786.813 31.9479 789.292 33.5C791.776 35.0521 793.557 36.1354 794.646 36.7552C795.578 37.6875 796.12 38.151 796.276 38.151C796.427 38.151 796.505 38.2292 796.505 38.3854Z" fill="#676127"/>
</g>
<path d="M580.622 63.8978H569.518V63.6895L573.081 61.9186V16.2311L569.518 14.4603V14.252H580.622V14.4603L577.06 16.2311V61.9186L580.622 63.6895V63.8978Z" fill="#676127"/>
<path d="M584.1 39.0853C584.1 35.6999 584.564 32.4603 585.496 29.377C586.423 26.2832 587.808 23.5228 589.642 21.1061C591.475 18.6895 593.746 16.7832 596.454 15.377C599.173 13.9603 602.34 13.252 605.954 13.252C608.23 13.252 610.225 13.6165 611.933 14.3353C613.642 15.0436 615.272 16.0436 616.829 17.3353V24.7728H616.225C616.225 23.5228 615.959 22.2884 615.433 21.0645C614.902 19.8301 614.152 18.6895 613.183 17.6478C612.225 16.6061 611.131 15.7832 609.912 15.1686C608.689 14.5592 607.381 14.252 605.996 14.252C603.079 14.252 600.506 14.9603 598.287 16.377C596.079 17.7832 594.23 19.6634 592.746 22.0228C591.256 24.3874 590.131 27.0436 589.371 30.002C588.605 32.9499 588.225 35.9759 588.225 39.0853C588.225 42.1999 588.605 45.2259 589.371 48.1686C590.131 51.1165 591.256 53.7676 592.746 56.127C594.23 58.4915 596.079 60.377 598.287 61.7936C600.506 63.1999 603.079 63.8978 605.996 63.8978C607.381 63.8978 608.689 63.5957 609.912 62.9811C611.131 62.3717 612.225 61.5436 613.183 60.502C614.152 59.4603 614.902 58.3249 615.433 57.0853C615.959 55.8353 616.225 54.6009 616.225 53.377H616.829V60.8145C615.272 62.1061 613.642 63.1165 611.933 63.8353C610.225 64.5436 608.23 64.8978 605.954 64.8978C602.34 64.8978 599.173 64.1947 596.454 62.7936C593.746 61.377 591.475 59.4603 589.642 57.0436C587.808 54.627 586.423 51.877 585.496 48.7936C584.564 45.6999 584.1 42.4603 584.1 39.0853Z" fill="#676127"/>
<path d="M619.794 14.252H638.648C640.174 14.252 641.737 14.3874 643.336 14.6478C644.945 14.9134 646.424 15.3926 647.773 16.0853C649.133 16.7832 650.237 17.7728 651.086 19.0645C651.93 20.3561 652.357 22.0332 652.357 24.0853C652.357 25.6426 652.013 27.1009 651.336 28.4603C650.654 29.8092 649.752 30.9915 648.627 32.002C647.502 33.0176 646.237 33.8145 644.836 34.3978C643.43 34.9707 641.982 35.252 640.482 35.252C643.924 35.252 646.794 35.8509 649.086 37.0436C651.388 38.2415 653.112 39.8978 654.252 42.0228C655.404 44.1374 655.982 46.5801 655.982 49.3561C655.982 50.3145 655.862 51.429 655.627 52.6895C655.404 53.9395 654.95 55.2207 654.273 56.5228C653.591 57.8301 652.612 59.0436 651.336 60.1686C650.055 61.2936 648.388 62.1999 646.336 62.877C644.294 63.5592 641.763 63.8978 638.752 63.8978H619.794V63.6895L623.357 61.9186V16.2311L619.794 14.4603V14.252ZM627.336 36.002V61.9186C628.195 62.2103 629.279 62.429 630.586 62.5645C631.888 62.6895 633.242 62.7832 634.648 62.8353C636.065 62.877 637.336 62.8978 638.461 62.8978C641.43 62.8978 643.93 62.2832 645.961 61.0436C648.002 59.8092 649.549 58.179 650.607 56.1478C651.674 54.1061 652.211 51.877 652.211 49.4603C652.211 46.9342 651.799 44.6582 650.982 42.627C650.174 40.5853 648.825 38.9759 646.94 37.7936C645.049 36.6009 642.45 36.002 639.148 36.002H627.336ZM627.336 16.2311V35.002H636.773C638.19 35.002 639.596 34.7676 641.002 34.2936C642.419 33.8092 643.7 33.1165 644.857 32.2103C646.008 31.2936 646.93 30.1842 647.627 28.877C648.336 27.5749 648.69 26.0957 648.69 24.4395C648.69 22.679 648.305 21.2103 647.544 20.0436C646.779 18.8665 645.752 17.929 644.461 17.2311C643.169 16.5384 641.711 16.0384 640.086 15.7311C638.471 15.4134 636.805 15.252 635.086 15.252C634.513 15.252 633.779 15.2676 632.877 15.2936C631.987 15.3249 631.055 15.4082 630.086 15.5436C629.112 15.6686 628.195 15.8978 627.336 16.2311Z" fill="#676127"/>
<path d="M676.323 67.2728H676.511L678.094 73.127C678.396 73.2936 678.766 73.4186 679.198 73.502C679.626 73.5853 679.99 73.627 680.282 73.627C682.667 73.627 684.334 72.627 685.282 70.627C686.224 68.627 686.698 65.7207 686.698 61.9186V16.2311L683.115 14.4603V14.252H694.24V14.4603L690.657 16.2311V61.9186C690.657 66.0124 689.704 69.153 687.803 71.3353C685.896 73.528 683.308 74.627 680.032 74.627C679.334 74.627 678.662 74.5228 678.011 74.3145C677.37 74.1165 676.808 73.8561 676.323 73.5228V67.2728Z" fill="#676127"/>
<path d="M695.225 14.4603V14.252H707.684V14.4603L703.621 16.2311L718.85 58.9811L718.309 57.4395L730.121 16.2311L726.059 14.4603V14.252H738.413V14.4603L734.246 16.3353L718.85 58.9811L720.6 63.8978H716.371L699.392 16.3353L695.225 14.4603Z" fill="#676127"/>
</svg>
