<svg width="509" height="243" viewBox="0 0 509 243" fill="none" xmlns="http://www.w3.org/2000/svg">
<path d="M28.8829 94.3289C28.9377 94.4138 28.7514 95.0927 28.3131 96.3657C27.8967 97.6386 27.2831 99.1555 26.4723 100.906C26.0997 101.903 25.4642 103.059 24.5876 104.385C23.711 105.722 22.8344 106.91 21.9578 107.95C21.0812 108.968 20.4457 109.583 20.0293 109.774C19.9416 109.806 19.7663 109.88 19.5033 109.986C19.2403 110.103 18.8897 110.262 18.4514 110.453C15.3285 112.065 11.8769 111.928 8.10758 110.029C7.55971 109.721 7.05566 109.456 6.61736 109.222C6.15715 109 5.90513 108.841 5.87226 108.756C5.76268 108.565 5.55449 107.981 5.25864 107.016C4.94087 106.03 4.60119 104.852 4.25055 103.494C3.89991 102.136 3.58215 100.842 3.2863 99.5905C3.00141 98.3493 2.78225 97.4264 2.62885 96.8324C2.60693 96.4399 2.53023 95.9307 2.4097 95.3049C2.30013 94.6578 2.19055 94.1062 2.10289 93.65C2.08098 93.2045 2.01523 92.621 1.92757 91.9103C1.818 91.1784 1.70842 90.5419 1.62076 90.0009C1.56598 89.3856 1.48928 88.59 1.40162 87.6247C1.31396 86.6382 1.24821 85.7577 1.18247 84.9939C1.12768 84.0922 1.08385 83.1693 1.05098 82.2359C1.02906 81.2811 0.996191 80.5704 0.963318 80.1143C0.996191 79.6051 1.02906 78.8201 1.05098 77.7381C1.05098 76.6348 1.05098 75.5528 1.05098 74.4708C1.08385 72.1265 1.11672 70.3337 1.13864 69.082C1.17151 67.8409 1.2263 66.8331 1.31396 66.0693C1.40162 65.3055 1.52215 64.5418 1.66459 63.778C1.90566 62.5369 2.09194 61.7625 2.23438 61.4443C2.38779 61.1366 2.67268 60.829 3.11098 60.5107C3.52736 60.288 3.94374 60.1713 4.38204 60.1713C4.82034 60.1713 5.59832 60.2562 6.70502 60.4259L9.24715 60.7229L9.9046 61.8686C10.0799 62.208 10.2114 62.6323 10.2991 63.1415C10.3648 63.6295 10.3867 64.0538 10.3867 64.4145C10.3648 64.8706 10.3429 65.4328 10.3429 66.1118C10.3429 66.7907 10.321 67.4271 10.2552 68.0212C10.2552 68.594 10.2443 69.2729 10.2114 70.0579C10.1566 70.8217 10.1128 71.4157 10.0799 71.8401C10.0799 72.328 10.058 73.0069 9.99226 73.8768C9.93747 74.7572 9.89364 75.5741 9.86077 76.3378C9.83885 77.1865 9.77311 77.9927 9.68545 78.7564C9.57588 79.499 9.53204 80.0612 9.55396 80.4537C9.55396 80.7932 9.543 81.2917 9.51013 81.9388C9.48822 82.5965 9.49917 83.2118 9.55396 83.8058C9.55396 84.3468 9.57588 84.8984 9.59779 85.4607C9.59779 86.0335 9.55396 86.3942 9.4663 86.5639C9.41151 87.8156 9.48822 89.4493 9.68545 91.486C9.86077 93.5227 10.1018 95.5488 10.3867 97.5537C10.6826 99.5693 11.0332 101.224 11.4386 102.518C11.6468 103.537 11.6468 104.088 11.4386 104.173C11.088 104.322 10.9784 104.513 11.088 104.767C11.1537 104.916 11.2852 104.916 11.4825 104.767C11.6907 104.513 11.8989 104.513 12.0961 104.767C12.2714 105.001 12.3372 105.298 12.2714 105.658C12.1837 105.828 12.4467 106.358 13.0603 107.228L13.7178 108.374L14.9012 107.483C16.4243 106.443 18.2761 103.526 20.4676 98.7418C21.7277 96.2596 22.944 93.353 24.1055 90.0433C25.245 86.7124 26.3189 83.233 27.305 79.6051C28.3241 75.9878 29.2116 72.4553 29.9786 68.9971C30.7676 65.5177 31.3155 62.3778 31.6442 59.5773C31.7866 58.6437 31.9181 57.8163 32.0387 57.0738C32.1811 56.31 32.3016 55.9069 32.3893 55.8432C32.5865 55.7584 32.718 55.1643 32.7838 54.0611C32.8714 53.0746 32.97 52.5972 33.0906 52.6184C33.2659 52.5972 33.3316 52.8942 33.3097 53.5095C33.3097 54.1354 33.2659 54.7612 33.1782 55.3765C33.1125 55.9705 32.981 56.3418 32.7838 56.4797C32.455 56.6495 32.4441 56.798 32.7399 56.904C32.9152 56.904 32.981 57.2223 32.9591 57.8375C32.9262 58.4634 32.8495 59.1741 32.7399 59.9591C32.6194 60.8078 32.5208 61.5609 32.4331 62.208C32.3674 62.8339 32.3564 63.1733 32.3893 63.2264C32.5646 63.3431 32.6632 63.1203 32.6961 62.5475C32.7509 62.2717 32.7947 61.9534 32.8276 61.614C32.8824 61.2745 32.9152 61.0518 32.9152 60.9351C32.9152 60.7972 32.9372 60.4895 33.0029 60.0016C33.0906 59.5242 33.1454 58.9832 33.1782 58.3892C33.3207 57.148 33.4522 56.31 33.5727 55.8857C33.7151 55.4401 33.9014 55.3341 34.1425 55.5887C34.2849 55.7372 34.3288 56.013 34.274 56.4373C34.1863 56.5858 34.0767 57.0101 33.9672 57.7103C33.8466 58.3892 33.759 59.1317 33.7042 59.9167C33.5508 60.6593 33.3974 61.6776 33.2221 62.9718C33.0687 64.2766 32.8933 65.5177 32.6961 66.7058C32.4879 67.8939 32.3235 68.8486 32.214 69.5487C32.0934 70.0579 32.1044 70.461 32.2578 70.7368C32.3126 71.0232 32.3674 71.1187 32.4331 71.0338C32.4879 70.9278 32.6084 70.6732 32.7838 70.2701C32.9262 69.7079 33.1125 68.8592 33.3535 67.7242C33.6165 66.5997 33.8357 65.4541 34.011 64.2872C34.2082 63.0991 34.3726 62.0807 34.4931 61.2321C34.6356 60.3622 34.6465 59.9061 34.5369 59.8743C34.3616 59.7682 34.3726 59.6621 34.5808 59.5773C34.7232 59.6091 34.8109 59.3545 34.8438 58.8135C34.8985 58.2513 34.8218 57.9436 34.6246 57.88C34.3835 57.7103 34.3616 57.4026 34.5369 56.9465L34.5808 56.0554L35.1944 56.9889C35.4574 57.5299 35.5998 58.2831 35.6327 59.2378C35.6875 60.1713 35.5998 61.7731 35.3697 64.0326C35.1615 66.3027 34.7561 69.5912 34.1425 73.9192C33.9891 75.0012 33.8357 76.0302 33.6604 77.0167C33.507 77.9821 33.2659 79.1702 32.9152 80.581C32.5646 82.0025 32.0387 83.9968 31.3374 86.5639C30.8333 88.346 30.3841 89.9054 29.9786 91.2314C29.5623 92.5362 29.2555 93.3106 29.0582 93.5651C28.7952 93.7349 28.7295 93.9895 28.8829 94.3289ZM31.2497 73.0706C30.8333 73.1342 30.6909 73.2615 30.8114 73.4525C30.8991 73.654 31.173 73.6434 31.6442 73.41C31.8414 73.2721 31.9948 73.1767 32.0825 73.113C32.1701 73.0281 32.214 72.9857 32.214 72.9857C32.1263 73.0175 31.9948 73.0175 31.8195 72.9857C31.6442 72.9645 31.4469 72.9857 31.2497 73.0706ZM1.9714 47.1447C1.62076 47.1765 1.44545 47.0174 1.44545 46.678C1.42353 46.3173 1.40162 45.4793 1.40162 44.1745C1.55502 42.9015 1.818 41.2361 2.19055 39.1675C2.54119 37.0778 3.00141 34.9986 3.54928 32.9301C4.10811 30.8721 4.64502 29.2279 5.17098 28.008C5.95992 26.2895 6.56258 25.2923 6.968 25.0377C7.38439 24.7619 8.05279 25.0165 8.98417 25.8015C9.92651 26.4592 10.3648 26.9896 10.2991 27.4139C10.2991 27.9019 10.3867 28.3474 10.562 28.7717C10.6826 28.9733 10.7155 29.3976 10.6497 30.0447C10.562 30.6706 10.4634 31.2752 10.3429 31.8693C9.9046 33.7681 9.59779 35.5078 9.42247 37.0884C9.24715 38.6477 9.11566 40.2708 9.028 41.968C8.94034 44.2594 8.7979 45.8718 8.5897 46.8053C8.3596 47.7176 8.04183 48.0994 7.62545 47.9509C7.51587 47.8979 7.34055 47.9297 7.09949 48.0358C6.83651 48.1525 6.57353 48.2692 6.31055 48.3752C5.60928 48.6935 4.89704 48.6935 4.16289 48.3752C3.84513 48.2055 3.54928 48.057 3.2863 47.9085C3.00141 47.7706 2.82609 47.6539 2.76034 47.569C2.67268 47.516 2.57406 47.4417 2.45353 47.3569C2.31109 47.2508 2.14672 47.1765 1.9714 47.1447Z" fill="white"/>
<path d="M94.077 43.4472L94.6906 44.3383C95.4467 45.3354 95.8302 46.3962 95.8302 47.5207C95.8302 48.6239 95.4357 50.3848 94.6468 52.7822C94.3838 53.6309 94.1318 54.4583 93.9017 55.2433C93.6606 56.0389 93.573 56.5905 93.6387 56.8981C93.6058 57.3861 93.4853 58.0013 93.2881 58.7651C92.9594 59.3061 92.8498 59.7198 92.9374 59.9956C93.0251 60.229 92.7292 61.0989 92.0608 62.6264C91.4144 64.1327 90.6254 65.7451 89.694 67.4636C88.7846 69.1927 88.0066 70.593 87.3711 71.6644C86.3411 73.3086 85.5412 74.2103 84.9604 74.38C84.6098 74.4967 84.2811 74.7619 83.9962 75.1862C83.7003 75.5575 82.9223 75.6424 81.6732 75.4408C80.4131 75.2499 79.0982 74.868 77.7285 74.2952C76.6108 73.8496 75.1645 72.9267 73.3894 71.5371C71.6033 70.1581 70.1898 68.8427 69.1379 67.5909C68.2284 66.4665 67.4285 65.3845 66.7272 64.3661C66.0479 63.3477 65.3466 62.1172 64.6234 60.6745C63.8892 59.2106 62.9579 57.2376 61.8183 54.7765C60.9636 52.8246 60.2075 51.1592 59.5391 49.7696C58.8598 48.3587 58.4982 47.6267 58.4434 47.5631C58.4434 47.5631 58.3229 47.6798 58.0927 47.9026C57.8517 48.1041 57.6106 48.4011 57.3476 48.7936C56.1423 50.4697 54.7836 52.8034 53.2715 55.7949C51.7484 58.7651 50.2143 62.0748 48.6693 65.7239C47.1243 69.3518 45.667 73.0116 44.2864 76.7138C42.9167 80.3947 41.7771 83.8211 40.8676 86.9823C39.9691 90.154 39.4103 92.7848 39.2021 94.8746C38.8843 98.7253 38.2707 100.72 37.3612 100.857C36.8682 101.006 36.134 100.836 35.1698 100.348C34.2055 99.9028 33.57 99.3724 33.2412 98.7783C32.8906 98.1843 32.4742 97.8872 31.9702 97.8872C31.0717 98.0039 30.3266 97.1871 29.7349 95.4262C29.1541 93.6759 28.8802 91.2573 28.9021 88.1704C28.935 87.0141 29.0226 84.6697 29.1651 81.1267C29.2856 77.5624 29.5924 73.2131 30.0855 68.0577C30.5895 62.9128 31.3456 57.3224 32.3647 51.2971C33.3618 45.2718 34.7534 39.3101 36.5285 33.3909C36.7695 33.5924 37.1421 33.7621 37.6681 33.9001C38.2598 33.9849 38.6323 34.3138 38.8076 34.876C39.0158 35.4488 39.2678 35.7883 39.5527 35.8943C39.8157 36.0429 39.9034 36.2232 39.8157 36.446C39.8157 36.6157 40.1225 36.8172 40.7361 37.04C40.9443 37.1037 41.2183 37.2734 41.5689 37.5492C41.9195 37.8356 42.2044 38.1432 42.4017 38.4827C42.7304 38.9707 42.9057 39.3525 42.9276 39.6283C42.9276 39.9148 42.7523 40.477 42.4017 41.3256C42.1387 42.2061 41.7223 44.1579 41.1306 47.1812C40.517 50.2151 39.9362 53.5672 39.3774 57.2376C39.1802 58.5954 38.972 60.229 38.7638 62.1172C38.5337 63.9842 38.3255 65.8088 38.1502 67.5909C37.9529 69.3731 37.7995 70.8794 37.7119 72.0887C37.6023 73.2768 37.5585 73.9133 37.5804 73.9981C37.6133 74.03 37.9529 73.3192 38.5885 71.8765C39.2021 70.4126 39.9363 68.6517 40.78 66.615C43.8481 59.1258 45.5903 55.3175 45.9957 55.2008C46.0834 55.1796 46.3354 54.7765 46.7408 54.0127C47.1572 53.2277 47.6174 52.2942 48.1434 51.2122C48.6693 50.109 49.1296 49.1119 49.5459 48.1996C49.9842 46.9584 50.7403 45.6537 51.8251 44.2958C52.8989 42.9168 53.7098 42.1955 54.2357 42.1318C54.8713 41.9409 55.8246 41.9409 57.0847 42.1318C58.3338 42.3016 59.068 42.5455 59.2762 42.8532C59.2981 43.0017 59.5172 43.2244 59.9336 43.5321C60.339 43.8503 60.7883 44.1473 61.2923 44.4231C62.0813 44.8262 62.662 45.2293 63.0455 45.6537C63.4181 46.0568 63.8783 46.8312 64.4042 47.9874C64.7549 48.6451 65.3027 49.8014 66.0698 51.4668C66.8258 53.1429 67.5381 54.7977 68.2174 56.4314C69.62 59.6031 70.8143 62.1172 71.8115 63.9842C72.8305 65.83 73.7619 67.1984 74.6166 68.1001C75.1973 68.6729 75.6247 68.9806 75.8876 69.0336C76.1725 69.0654 76.8519 68.97 77.9038 68.7366C79.2735 68.291 80.4569 67.5273 81.454 66.4453C83.6126 64.016 86.2753 59.4228 89.4311 52.6549C90.1323 51.1274 90.7569 49.8438 91.3157 48.7936C91.8965 47.7222 92.2362 47.213 92.3238 47.2661C92.5211 47.1812 92.543 47.0539 92.3677 46.8842C92.1266 46.7463 92.2471 46.0992 92.7183 44.9323L93.5072 43.1926L93.3757 44.5929L93.0689 45.9931L93.5949 44.6777L94.077 43.4472Z" fill="white"/>
<path d="M148.282 25.9684C149.268 25.0349 150.101 24.6 150.78 24.653C151.482 24.6849 151.942 24.9501 152.183 25.4592C152.413 25.9684 152.238 26.5094 151.657 27.0717C151.482 27.1565 151.306 27.2626 151.131 27.3687C150.956 27.4535 150.791 27.5384 150.649 27.6233C150.528 27.74 150.101 28.1324 149.378 28.8114C148.644 29.4903 147.855 30.2434 147.011 31.0602C146.156 31.8558 145.4 32.5772 144.732 33.2243C144.052 33.882 143.68 34.2002 143.592 34.2002C143.527 34.3169 143.165 34.6669 142.497 35.261C141.85 35.855 141.138 36.5233 140.349 37.2553C139.56 37.966 138.881 38.5282 138.333 38.9526C137.511 39.6315 136.941 40.1831 136.623 40.6074C136.24 40.9787 135.703 41.5197 135.002 42.2198C134.3 42.8987 133.599 43.5246 132.898 44.0868C132.635 44.3414 132.164 44.7976 131.495 45.4446C130.849 46.0705 130.147 46.7388 129.391 47.4389C128.624 48.0648 127.781 48.8392 126.849 49.7727C125.907 50.685 125.107 51.4487 124.439 52.064C123.847 52.658 123.31 53.1672 122.817 53.5915C122.346 54.0159 122.05 54.2917 121.94 54.3978C121.875 54.4614 121.568 54.7372 121.02 55.2464C120.494 55.7344 119.891 56.3284 119.223 57.0285C114.665 61.2717 112.407 63.5842 112.473 63.9449C112.495 64.1783 112.824 64.5177 113.437 64.9633C117.557 67.5092 119.858 71.2644 120.362 76.2077C120.538 77.7671 120.625 78.9127 120.625 79.6447C120.625 80.3872 120.494 81.151 120.231 81.936C120.056 82.7316 119.727 83.1665 119.267 83.2514C118.796 83.315 118.664 83.4105 118.872 83.5484C119.048 83.5802 118.96 83.803 118.609 84.2273C118.346 84.5986 118.226 84.8532 118.259 84.9911C118.193 85.0547 117.886 85.5215 117.338 86.3913C116.779 87.24 116.155 88.1205 115.454 89.0221C114.511 90.2102 113.394 91.3877 112.079 92.544C110.764 93.679 109.274 94.8141 107.608 95.9385C105.734 97.1584 104.08 98.0813 102.655 98.6966C101.22 99.3225 99.5214 99.7998 97.571 100.139C96.1356 100.341 95.1823 100.436 94.722 100.436C94.2509 100.415 93.5825 100.256 92.7059 99.9695C92.2128 99.7149 91.7635 99.4922 91.3471 99.2906C90.9417 99.0997 90.6349 98.9406 90.4267 98.8239C90.1637 98.3996 89.8131 97.7949 89.3748 96.9993C88.9365 96.2143 88.7393 95.6733 88.7612 95.3869C88.7393 95.249 88.6626 95.005 88.542 94.6656C88.3996 94.3049 88.2571 93.9866 88.1037 93.7321C87.786 93.3077 87.5778 92.9046 87.4901 92.5015C87.4025 92.0772 87.3477 91.515 87.3148 90.8043C87.2052 88.5978 87.4353 87.4415 88.0161 87.3249C88.2571 87.3036 88.3667 87.0703 88.3667 86.6459C88.3996 86.2004 88.5859 85.8716 88.9365 85.67C89.2871 85.4791 89.6268 84.9699 89.9446 84.1425C90.2404 83.3257 90.361 82.5088 90.2952 81.6814C90.361 81.0874 90.4706 80.5782 90.6459 80.1539C90.7993 79.7083 91.2485 79.0082 92.0046 78.0747C92.7278 77.12 93.9002 75.6349 95.511 73.6194C96.6725 72.2085 97.3628 71.3917 97.571 71.1583C97.8011 70.9356 97.8449 71.1159 97.7025 71.7099C97.7025 71.9645 97.7025 72.1979 97.7025 72.3888C97.7244 72.5586 97.7682 72.5904 97.834 72.4737C98.0093 72.3888 98.4037 72.007 99.0174 71.3281C99.6529 70.6279 100.245 69.9278 100.771 69.2489C101.297 68.5488 101.559 68.1669 101.559 68.1032C101.527 67.8805 101.307 67.8699 100.902 68.0608C100.606 68.2093 100.256 68.2199 99.8501 68.1032C99.7625 67.9653 99.4118 67.7532 98.7982 67.4668C98.1846 67.1591 97.4614 66.8091 96.6506 66.406C95.0398 65.674 93.6701 64.9527 92.5306 64.2419C91.391 63.51 90.7664 62.9584 90.6459 62.5871C90.4158 62.2264 90.1528 62.0143 89.8569 61.9506C89.2762 61.7597 88.5859 61.1656 87.7969 60.1685C87.008 59.1501 86.3067 58.0893 85.6931 56.9861C85.0576 55.8829 84.7179 55.0661 84.685 54.525C84.7727 54.3871 84.7617 54.1432 84.6412 53.8037C84.4987 53.443 84.3125 53.1142 84.0714 52.8278C83.666 52.064 83.392 50.9502 83.2386 49.4757C83.0962 48.0118 83.1071 46.76 83.2825 45.7417C83.7208 43.026 85.1233 39.7376 87.4901 35.855C89.8569 31.9831 92.6511 28.3658 95.8616 24.9925C96.3218 24.5151 96.7492 24.1014 97.1327 23.762C97.5052 23.4013 97.7463 23.1679 97.834 23.0831C98.1517 22.6587 99.2365 21.6404 101.077 20.028C102.918 18.3943 104.803 16.7925 106.731 15.2332C108.539 13.8754 110.128 12.7191 111.509 11.7538C112.879 10.7672 114.018 10.0353 114.928 9.54731C115.804 9.12299 116.516 8.73049 117.075 8.35921C117.426 8.08341 117.777 7.88186 118.127 7.76517C118.5 7.65909 119.069 7.61666 119.837 7.63787C121.875 7.58483 122.872 8.06219 122.817 9.08055C122.696 9.48366 122.883 9.66399 123.387 9.63217C123.672 9.61095 124.11 9.82311 124.702 10.2686C125.162 10.6399 125.491 11.2021 125.666 11.9659C125.863 12.7297 125.852 13.345 125.622 13.7905C125.381 14.2997 125.381 14.6603 125.622 14.8513C125.819 15.021 125.885 15.1907 125.797 15.3605C125.71 15.5302 125.425 15.859 124.965 16.3364C124.198 17.0471 123.146 17.6518 121.809 18.161C120.845 18.5004 120.121 18.755 119.661 18.9247C119.19 19.0945 118.763 19.2854 118.39 19.4764C118.039 19.6779 117.437 20.028 116.593 20.5371C114.632 21.704 112.254 23.4013 109.449 25.629C106.644 27.8354 104.145 30.0419 101.954 32.2483C99.4666 34.7094 97.2313 37.2553 95.248 39.8861C93.2866 42.4956 91.7416 44.9142 90.602 47.1419C89.4406 49.3802 88.8379 51.1729 88.805 52.5308C88.7831 53.0399 88.8708 53.443 89.068 53.7188C89.2762 54.0053 89.7254 54.4614 90.4267 55.0767C91.2814 55.8404 92.1142 56.4769 92.925 56.9861C93.7687 57.4953 94.8755 58.0045 96.2561 58.5136C97.6258 59.0228 99.5981 59.7017 102.173 60.5504C104.014 61.1762 105.121 61.5051 105.504 61.5263C105.91 61.5263 106.359 61.2293 106.863 60.6352C108.616 58.9167 109.909 57.6438 110.764 56.8164C111.607 55.9996 112.484 55.1615 113.394 54.3129C114.029 53.7507 114.555 53.2521 114.971 52.8278C115.41 52.3822 115.629 52.1276 115.629 52.064C115.596 51.8943 115.815 51.6821 116.286 51.4275C116.571 51.2048 117.185 50.685 118.127 49.8575C119.091 49.0407 120.067 48.1391 121.064 47.1419C122.05 46.1235 122.751 45.4022 123.168 44.9779C123.398 44.6703 123.617 44.5748 123.825 44.6809C123.825 44.7657 123.442 45.3067 122.685 46.2933C121.371 47.736 120.472 48.7437 120.012 49.3059C119.574 49.8469 119.365 50.1758 119.398 50.2819C119.398 50.4304 119.442 50.494 119.53 50.494C119.584 50.494 120.067 50.0909 120.976 49.2635C121.875 48.4149 122.927 47.4283 124.132 46.2933C125.502 45.084 126.74 43.9595 127.857 42.9412C128.997 41.9228 129.676 41.2757 129.917 40.9893C130.268 40.7135 130.684 40.3316 131.188 39.8436C131.682 39.3344 132.131 38.9101 132.547 38.5707C133.007 38.1251 133.446 37.7008 133.862 37.2977C134.267 36.9052 134.563 36.6082 134.739 36.4067C135.352 35.9611 136.24 35.1973 137.412 34.1153C138.727 32.8424 139.67 32.0256 140.261 31.6543C140.875 31.2936 141.236 31.1875 141.357 31.3573C141.554 31.5906 141.861 31.5482 142.277 31.23C142.628 31.039 143.165 30.5935 143.899 29.9146C144.655 29.2357 145.05 28.8538 145.082 28.7689C145.17 28.6841 145.488 28.4613 146.047 28.09C146.507 27.7293 146.726 27.4535 146.704 27.2838C146.704 27.2308 146.901 27.0504 147.318 26.7322C147.723 26.3927 148.041 26.1382 148.282 25.9684ZM115.147 72.7283L111.859 71.5402C110.895 71.2326 109.986 70.9037 109.142 70.5643C108.287 70.2248 107.739 70.0551 107.477 70.0551L106.425 69.8429L103.839 72.9829C102.962 74.0013 101.932 75.253 100.771 76.7169C99.631 78.1596 98.4695 79.6341 97.308 81.1298C96.1684 82.6361 95.1603 83.9621 94.2837 85.1184C93.5496 86.0519 92.8921 87.2188 92.3114 88.5978C91.7307 89.9874 91.4129 91.0058 91.3471 91.6529C91.3471 92.109 91.391 92.4061 91.4786 92.544C91.5663 92.6925 91.8183 92.7986 92.2237 92.8834C93.5386 93.138 95.5548 92.8198 98.2723 91.9075C99.5872 91.515 100.957 90.9316 102.392 90.1678C103.85 89.404 104.781 88.81 105.197 88.3857C105.515 87.9613 106.085 87.6219 106.907 87.3673C107.805 87.1127 108.276 86.6778 108.309 86.0519C108.331 85.6594 108.539 85.1608 108.923 84.5668C109.328 83.9727 109.898 83.1665 110.632 82.1482C111.827 80.5676 112.824 78.9976 113.613 77.4382C114.424 75.8895 114.862 74.659 114.928 73.7467L115.147 72.7283Z" fill="white"/>
<path d="M201.114 13.8236C201.728 13.9403 202.407 14.4601 203.174 15.3936C203.93 16.3271 204.489 17.3031 204.84 18.3214C205.859 20.8461 205.519 24.2407 203.832 28.5051C202.133 32.7482 198.989 38.1265 194.408 44.6291C193.236 46.3582 191.57 48.4798 189.412 50.9939C187.242 53.5186 184.832 56.1176 182.18 58.8014C179.55 61.4958 176.964 64.0629 174.422 66.524C171.902 68.9638 169.656 70.9687 167.672 72.5493C165.097 74.533 162.292 76.3151 159.257 77.8957C156.211 79.4551 153.789 80.378 151.981 80.6538C150.283 80.9084 148.53 80.8659 146.722 80.5265C144.903 80.187 143.445 79.6354 142.339 78.8716L140.498 77.726L139.095 80.1446C138.635 80.9932 137.868 82.4783 136.816 84.5999C135.742 86.7003 134.657 88.8643 133.573 91.092C132.466 93.2985 131.6 95.0594 130.987 96.3536C130.636 97.0643 130.285 97.8705 129.935 98.7722C129.584 99.6526 129.255 100.363 128.927 100.894C127.645 103.525 126.56 106.516 125.683 109.889C124.807 113.252 124.138 116.869 123.667 120.752C123.667 120.752 123.481 120.731 123.097 120.709C122.725 120.709 122.221 120.709 121.607 120.709C120.237 120.625 119.405 120.381 119.109 119.988C118.879 119.617 118.397 119.267 117.662 118.927C116.819 118.641 116.369 118.27 116.304 117.824C116.216 117.623 116.074 117.336 115.865 116.975C115.668 116.636 115.449 116.318 115.208 116.042C114.77 115.299 114.66 114.355 114.857 113.199C115.033 112.064 115.537 110.059 116.348 107.174C116.764 105.901 117.356 104.044 118.145 101.615C118.933 99.1859 119.854 96.5021 120.906 93.5531C121.958 90.5828 122.999 87.655 124.018 84.7697C125.048 81.8843 125.99 79.3384 126.867 77.1319C127.721 74.9255 128.335 73.3873 128.708 72.5069C128.971 71.9765 129.365 71.0854 129.891 69.8337C130.395 68.5607 130.921 67.2877 131.469 66.0148C132.115 64.7418 132.696 63.5856 133.222 62.5354C133.748 61.464 134.088 60.9018 134.23 60.8381C134.614 60.5305 134.975 59.7985 135.326 58.6317C135.655 57.5602 136.016 56.5101 136.422 55.4917C136.597 55.0462 136.948 54.2612 137.473 53.1579C137.978 52.0335 138.503 50.8666 139.051 49.6785C139.95 47.7267 140.903 45.7218 141.9 43.6532C142.886 41.5953 143.807 39.7707 144.662 38.1795C145.505 36.5671 146.075 35.5063 146.371 34.9971C146.952 34.1273 147.248 33.5014 147.248 33.1301C147.248 32.9922 147.357 32.7058 147.598 32.2815C147.828 31.8572 148.102 31.3904 148.431 30.8812C148.749 30.4039 149.275 29.5234 150.009 28.2505C150.765 26.9775 151.51 25.6833 152.244 24.3467C153.033 23.1374 153.756 21.9281 154.436 20.74C155.104 19.5307 155.553 18.7776 155.794 18.4911C156.024 18.1305 156.298 17.6637 156.627 17.0909C156.945 16.5287 157.175 15.9771 157.328 15.436C157.504 14.8738 157.734 14.3753 158.03 13.9509C158.315 13.5054 158.49 13.2084 158.556 13.0599C158.698 12.922 159.016 12.4446 159.52 11.6172C160.046 10.7685 160.583 9.82444 161.142 8.77425C161.689 7.70285 162.172 6.76935 162.588 5.97375C163.081 4.95539 163.64 4.27648 164.254 3.93702C164.867 3.57635 165.766 3.47027 166.971 3.64C167.585 3.75669 168.111 3.85216 168.549 3.93702C169.009 4.00067 169.294 4.10675 169.382 4.27648C169.579 4.64776 170.05 5.06146 170.784 5.507C171.398 5.9101 171.77 6.22834 171.924 6.48293C172.066 6.73752 172.099 7.2361 172.011 7.96805C171.891 8.42419 171.726 8.89094 171.529 9.3683C171.354 9.82444 171.146 10.2169 170.916 10.5564C169.743 12.0309 168.286 14.0676 166.533 16.6666C164.779 19.2761 163.026 22.0448 161.273 24.9832C159.542 27.9004 158.008 30.6903 156.671 33.3423C155.882 34.8698 154.918 36.7793 153.778 39.0706C152.661 41.3619 151.587 43.632 150.535 45.8597C149.505 48.0661 148.65 49.9225 147.949 51.4182C147.269 52.8927 146.941 53.6671 146.941 53.752C146.996 53.8369 147.269 53.5611 147.774 52.9034C148.299 52.2563 148.88 51.4501 149.527 50.4847C150.951 48.5329 152.31 46.7826 153.603 45.2232C154.885 43.6744 155.794 42.6561 156.32 42.1681C156.55 42.0302 157.065 41.5316 157.854 40.683C158.643 39.8131 159.476 38.8372 160.353 37.7552C161.164 36.7368 162.215 35.5063 163.508 34.0636C164.823 32.5997 165.941 31.3798 166.883 30.4145C167.815 29.4279 168.636 28.5263 169.338 27.6988C170.039 26.8502 170.39 26.4047 170.39 26.341C170.39 26.1713 170.565 25.9379 170.916 25.6197C171.266 25.3121 171.672 24.9726 172.143 24.6013C172.603 24.2619 173.436 23.6148 174.641 22.6495C175.836 21.6947 177.019 20.7188 178.191 19.7217C180.755 17.6319 182.892 16.0513 184.591 14.9693C186.278 13.8979 188.031 13.0599 189.85 12.4658C191.012 12.0415 191.91 11.8081 192.524 11.7445C193.137 11.6914 194.08 11.7445 195.373 11.9142C197.268 12.2006 198.616 12.5719 199.405 13.0174C200.106 13.5584 200.676 13.8236 201.114 13.8236ZM146.108 36.1852C146.108 36.5565 146.119 36.7368 146.152 36.7368C146.207 36.7368 146.305 36.5989 146.459 36.3125C146.776 35.8882 146.941 35.57 146.941 35.3366C146.941 35.1456 146.831 35.1032 146.634 35.2093C146.305 35.3578 146.13 35.676 146.108 36.1852ZM133.923 72.9312C134.077 72.6554 134.077 72.4432 133.923 72.2947C133.814 72.1568 133.737 72.2947 133.704 72.719C133.704 73.0373 133.781 73.1009 133.923 72.9312ZM136.202 64.4024C136.29 64.1796 136.4 63.9144 136.509 63.5962C136.63 63.2567 136.772 62.9385 136.948 62.6202C137.243 62.1429 137.769 61.0397 138.525 59.3106C139.281 57.5602 140.081 55.6826 140.936 53.6671C141.813 51.6622 142.558 49.8907 143.171 48.3631C143.785 46.8356 144.048 46.0294 143.96 45.9445C143.873 45.8915 143.577 46.2734 143.084 47.0902C142.613 47.9176 142.054 48.9466 141.418 50.1877C140.805 51.4395 140.202 52.6806 139.621 53.9217C139.062 55.1416 138.679 56.1176 138.438 56.8495C138.262 57.4436 137.989 58.2073 137.605 59.1408C137.2 60.0743 136.498 61.5807 135.501 63.6386C135.216 64.2645 134.701 65.5693 133.967 67.5423C133.244 69.4942 132.433 71.5521 131.556 73.695C130.746 75.7953 130.001 77.6729 129.321 79.3384C128.62 81.0144 128.182 81.9161 128.006 82.054C127.688 82.7117 127.25 83.8786 126.691 85.5759C126.428 86.3184 126.187 87.0185 125.946 87.6975C125.683 88.3764 125.53 88.8325 125.464 89.0553C125.201 89.4796 125.146 89.766 125.289 89.9039C125.376 89.9039 125.596 89.5645 125.946 88.8856C126.297 88.2066 126.68 87.3898 127.086 86.4245C127.502 85.438 127.962 84.4514 128.488 83.4543C129.014 82.4677 129.398 81.7994 129.628 81.46C129.957 81.0993 130.242 80.5689 130.505 79.89C130.746 79.1899 130.888 78.4897 130.943 77.8108C131.063 77.2168 131.293 76.4424 131.644 75.4771C131.973 74.4905 132.28 73.6313 132.565 72.8887C133.616 70.799 134.493 68.932 135.194 67.2877C135.874 65.6541 136.202 64.6888 136.202 64.4024ZM139.227 72.2947C139.336 72.8039 139.928 72.1992 140.98 70.4701C141.418 69.7382 142.141 68.6031 143.171 67.0756C144.223 65.5268 145.242 63.9781 146.239 62.4505C152.398 53.0307 158.972 44.4382 165.963 36.652C172.976 28.8445 179.923 22.3418 186.826 17.1333C188.426 15.9452 189.653 15.086 190.508 14.545C191.351 14.0146 192.042 13.6963 192.568 13.6115C194.781 13.3039 195.986 13.1235 196.162 13.0599C196.359 13.0068 196.008 12.9644 195.11 12.9326C191.307 12.7628 185.785 15.3936 178.542 20.8249C177.282 21.7372 176.197 22.5646 175.299 23.3284C174.389 24.0709 173.94 24.4634 173.94 24.5165C173.874 24.6013 173.556 25.015 172.976 25.747C172.384 26.4577 171.661 27.2533 170.784 28.1232C168.384 30.563 166.445 32.5997 164.955 34.2333C163.465 35.8776 162.829 36.652 163.07 36.5671C163.355 36.5989 163.508 36.652 163.508 36.7368C163.684 36.8853 163.508 37.3203 162.982 38.0522C162.478 38.7629 162.117 39.1448 161.887 39.1979C161.591 39.2827 161.448 39.2615 161.448 39.113C161.448 38.9751 161.646 38.5614 162.062 37.8825C162.643 37.0126 162.73 36.758 162.325 37.1187C161.909 37.49 161.273 38.2113 160.396 39.2827C159.98 39.7919 159.619 40.2905 159.301 40.7679C159.005 41.224 158.884 41.521 158.95 41.6589C159.093 41.8074 158.687 42.2848 157.723 43.1016C157.076 43.5896 156.671 43.9502 156.496 44.2048C156.342 44.4594 156.255 44.9262 156.233 45.6051C156.2 46.6234 156.079 47.0265 155.882 46.7932C155.641 46.6234 155.542 46.3158 155.575 45.8597C155.63 45.6687 155.641 45.5626 155.619 45.5626C155.586 45.5626 155.455 45.6687 155.225 45.8597C154.896 46.3158 154.808 46.6553 154.962 46.878C155.016 47.0265 154.83 47.2387 154.392 47.5145C154.151 47.5994 153.932 47.7903 153.734 48.0661C153.526 48.3525 153.351 48.6814 153.208 49.0421C153.121 49.4133 152.902 49.9225 152.551 50.5696C152.2 51.2273 151.817 51.832 151.411 52.3942C151.116 52.9034 150.809 53.4338 150.491 53.9641C150.162 54.5052 150.009 54.8446 150.009 54.9825C149.976 55.3538 149.768 55.6508 149.395 55.8736C149.012 56.107 148.782 56.0751 148.694 55.7887C148.694 55.619 148.584 55.6084 148.387 55.7463C148.212 55.8948 148.015 56.107 147.817 56.3828C147.609 56.701 147.445 56.998 147.335 57.2738C147.248 57.5602 147.226 57.7406 147.291 57.8254C147.291 57.974 147.357 57.8997 147.511 57.6133C147.511 57.3057 147.62 57.1465 147.861 57.1465C148.234 57.2632 148.354 57.5072 148.212 57.8679C148.058 58.2073 147.708 58.568 147.16 58.9287C146.546 59.353 146.239 59.7137 146.239 59.9895C146.294 60.1062 146.174 60.4138 145.889 60.923C145.626 61.4109 145.253 61.9413 144.793 62.5354C144.41 63.1613 143.884 63.9781 143.215 64.9964C142.536 66.0148 141.955 66.9695 141.462 67.8394C140.52 69.7064 139.851 70.8308 139.446 71.1915C139.117 71.5097 139.051 71.8704 139.227 72.2947ZM164.21 69.4942C164.582 69.1335 164.648 69.0062 164.385 69.1123C164.122 69.1972 163.552 69.5685 162.676 70.2155C161.295 71.149 160.418 71.7855 160.046 72.125C159.958 72.125 159.651 72.3159 159.125 72.6766C158.621 73.016 158.084 73.3979 157.504 73.8223C156.244 74.6178 155.323 75.0952 154.742 75.2649C154.184 75.4347 154.019 75.2649 154.26 74.7557C154.578 74.3951 154.545 74.2784 154.173 74.4163C153.932 74.4799 153.8 74.8406 153.778 75.5195C153.833 76.1136 153.482 76.5379 152.726 76.7925C151.587 77.1319 151.17 77.1319 151.499 76.7925C151.696 76.5697 151.652 76.453 151.368 76.453C151.28 76.3682 151.192 76.4 151.105 76.5379C151.039 76.6864 151.017 76.8667 151.017 77.0895C151.017 77.5987 151.083 77.8533 151.236 77.8533C151.324 77.8851 151.609 77.7684 152.113 77.5138C152.606 77.2592 153.23 76.994 153.997 76.7076C154.984 76.2303 156.189 75.5832 157.591 74.7557C159.016 73.9389 160.287 73.1646 161.405 72.422C162.544 71.69 163.125 71.2127 163.158 70.9793C163.213 70.8414 163.311 70.6293 163.465 70.3428C163.64 70.0352 163.881 69.7488 164.21 69.4942ZM196.688 27.7413C196.972 27.2957 197.301 26.3622 197.652 24.9408C198.002 23.5299 198.276 22.0554 198.485 20.5279C198.715 18.9791 198.769 17.8971 198.66 17.3031C198.507 16.3483 198.287 15.7119 198.002 15.3936C197.915 15.3088 197.564 15.3406 196.951 15.4785C196.359 15.627 195.636 15.8392 194.759 16.115C193.619 16.5393 192.502 17.0697 191.428 17.6849C190.376 18.3108 188.886 19.3292 186.957 20.74C181.435 24.8135 175.912 29.8947 170.39 35.9731C164.889 42.0302 159.235 49.286 153.428 57.7406C151.696 60.2016 150.107 62.5354 148.65 64.7418C147.182 66.9483 146.261 68.3379 145.889 68.9002C144.223 71.5946 143.128 73.3555 142.602 74.2041C142.098 75.0316 141.856 75.4347 141.856 75.4347C141.856 75.5195 142.448 75.5407 143.654 75.4771C144.881 75.424 145.757 75.3816 146.283 75.3498C147.795 75.074 149.976 74.1829 152.814 72.6766C155.674 71.1809 158.534 69.3881 161.405 67.2877C163.092 66.0784 164.221 65.4844 164.779 65.5056C165.305 65.5905 165.568 65.3783 165.568 64.8691C165.59 64.36 165.875 64.0099 166.401 63.8083C166.774 63.6704 167.628 63.1294 168.943 62.1959C170.258 61.2624 171.759 60.0956 173.458 58.6741L174.597 57.6982L173.808 58.6741C173.25 59.3318 173.118 59.5864 173.414 59.4379C173.677 59.3 174.247 58.8014 175.123 57.9527C176.022 57.0829 176.887 56.1706 177.709 55.2371C178.52 54.2824 178.936 53.7308 178.936 53.5823C178.936 53.3065 179.21 52.8397 179.769 52.182C180.317 51.5349 180.909 50.9727 181.522 50.4847C182.224 49.8907 183.21 48.8087 184.503 47.2175C185.785 45.6369 187.133 43.8972 188.535 41.9984C189.96 40.0783 191.209 38.328 192.261 36.7368C193.335 35.1244 193.948 34.0848 194.102 33.5969C194.452 32.6103 194.869 31.4965 195.373 30.2448C195.899 29.0036 196.337 28.1656 196.688 27.7413Z" fill="white"/>
<path d="M217.138 69.7503C217.138 69.8351 216.59 70.3019 215.517 71.1505C214.432 71.9779 213.04 72.8796 211.353 73.8661C210.476 74.492 209.271 75.1179 207.759 75.7331C206.269 76.359 204.866 76.8682 203.551 77.2607C202.236 77.6638 201.338 77.8123 200.878 77.7274C200.812 77.7274 200.636 77.7168 200.352 77.685C200.056 77.632 199.672 77.5577 199.212 77.4728C195.64 77.0803 192.868 75.0861 190.884 71.49C190.599 70.9277 190.336 70.4292 190.095 70.0048C189.832 69.5593 189.723 69.3047 189.745 69.2411C189.778 69.0183 189.953 68.4136 190.271 67.4165C190.567 66.43 190.961 65.2843 191.454 63.9795C191.947 62.6535 192.418 61.3912 192.857 60.2031C193.317 59.015 193.668 58.1451 193.909 57.5723C194.139 57.2329 194.369 56.7661 194.61 56.1721C194.873 55.578 195.114 55.09 195.355 54.6869C195.552 54.2626 195.837 53.7428 196.188 53.117C196.538 52.4699 196.823 51.8864 197.064 51.3773C197.349 50.815 197.733 50.1043 198.204 49.2557C198.697 48.407 199.146 47.6433 199.563 46.9644C200.023 46.2006 200.527 45.4262 201.053 44.6306C201.579 43.8138 201.973 43.2197 202.236 42.8485C202.521 42.4241 202.992 41.7665 203.639 40.8542C204.274 39.9525 204.91 39.0614 205.523 38.181C206.926 36.2291 207.989 34.7652 208.723 33.7681C209.479 32.7497 210.104 31.9647 210.608 31.3919C211.134 30.7978 211.682 30.2038 212.273 29.6097C213.15 28.7081 213.731 28.167 214.026 27.9973C214.344 27.8276 214.772 27.7427 215.298 27.7427C215.791 27.7746 216.218 27.9019 216.569 28.1246C216.919 28.358 217.5 28.8354 218.322 29.5673L220.25 31.2221L220.119 32.4951C220.053 32.8664 219.911 33.2801 219.68 33.7256C219.472 34.1818 219.264 34.5955 219.067 34.9561C218.771 35.2744 218.42 35.7093 218.015 36.2715C217.631 36.8444 217.248 37.3535 216.875 37.7991C216.58 38.287 216.185 38.8387 215.692 39.4539C215.188 40.0798 214.793 40.5571 214.509 40.8966C214.213 41.3209 213.807 41.8725 213.281 42.5514C212.755 43.2304 212.24 43.888 211.747 44.5033C211.243 45.161 210.739 45.7763 210.213 46.3703C209.709 46.9644 209.359 47.4311 209.161 47.7706C208.953 48.0252 208.646 48.4283 208.241 48.9586C207.857 49.4997 207.518 50.0194 207.233 50.5286C206.904 50.9529 206.586 51.4091 206.269 51.8864C205.94 52.3744 205.699 52.6714 205.523 52.7775C204.756 53.7747 203.869 55.1537 202.85 56.9358C201.82 58.718 200.856 60.5319 199.957 62.3671C199.048 64.2129 198.379 65.7829 197.941 67.077C197.557 68.0105 197.251 68.4667 197.02 68.4349C196.637 68.3818 196.418 68.4985 196.363 68.7743C196.33 68.9228 196.451 68.9759 196.714 68.944C196.999 68.8592 197.163 68.9759 197.196 69.2835C197.218 69.5699 197.108 69.8351 196.845 70.0897C196.67 70.2382 196.582 70.8004 196.582 71.787L196.451 73.1448L197.985 73.0599C199.826 73.0387 203.036 71.6172 207.627 68.8167C210.104 67.4377 212.777 65.6768 215.648 63.5552C218.541 61.4124 221.445 59.1211 224.37 56.6812C227.318 54.2202 230.112 51.7592 232.742 49.2981C235.372 46.8371 237.618 44.5351 239.492 42.3817C240.16 41.6816 240.774 41.0557 241.332 40.5147C241.88 39.9525 242.209 39.6661 242.297 39.6661C242.527 39.6979 242.965 39.2842 243.612 38.4356C244.28 37.6506 244.642 37.2899 244.707 37.3748C244.85 37.4596 244.751 37.7566 244.401 38.2658C244.05 38.775 243.655 39.2736 243.217 39.7509C242.801 40.2071 242.483 40.4299 242.253 40.4299C241.869 40.3768 241.782 40.4935 241.99 40.7693C242.099 40.8542 241.968 41.1512 241.595 41.6604C241.212 42.1483 240.73 42.6787 240.149 43.2728C239.557 43.9305 239.064 44.5033 238.659 45.0125C238.242 45.5005 238.045 45.7657 238.045 45.8187C238.1 45.9884 238.308 45.8611 238.659 45.4368C238.834 45.214 239.031 44.9701 239.272 44.7155C239.503 44.4609 239.678 44.2911 239.798 44.2063C239.886 44.0684 240.083 43.8244 240.412 43.4849C240.763 43.1243 241.124 42.7106 241.508 42.2544C242.351 41.2679 242.954 40.6314 243.305 40.345C243.655 40.0692 243.842 40.0798 243.875 40.3874C243.896 40.6208 243.787 40.886 243.524 41.1936C243.316 41.2573 242.965 41.5331 242.472 42.0423C242.001 42.5514 241.519 43.1243 241.026 43.7395C240.467 44.3336 239.733 45.1292 238.834 46.1157C237.958 47.081 237.092 48.0039 236.248 48.8738C235.393 49.7542 234.714 50.4438 234.188 50.9529C233.838 51.3242 233.629 51.6531 233.575 51.9289C233.487 52.2153 233.487 52.332 233.575 52.2683C233.684 52.2153 233.925 52.0774 234.276 51.844C234.714 51.4833 235.372 50.8999 236.248 50.1043C237.125 49.2875 237.968 48.4389 238.79 47.5584C239.634 46.6885 240.368 45.9248 240.982 45.2671C241.595 44.62 241.858 44.2699 241.771 44.2063C241.65 44.0153 241.705 43.9305 241.946 43.9517C242.056 44.0684 242.275 43.9093 242.603 43.4849C242.954 43.0394 243.064 42.7424 242.954 42.5939C242.834 42.3393 242.998 42.0635 243.436 41.7452L244.006 41.0663L243.962 42.1696C243.842 42.7424 243.524 43.4319 242.998 44.2487C242.494 45.0761 241.508 46.3597 240.018 48.11C238.527 49.8709 236.292 52.3744 233.312 55.6204C232.545 56.4479 231.821 57.2116 231.12 57.9118C230.441 58.6225 229.542 59.4711 228.403 60.4577C227.285 61.4548 225.707 62.8339 223.669 64.616C222.234 65.8041 220.963 66.8437 219.856 67.7135C218.738 68.594 218.037 69.0926 217.752 69.1986C217.401 69.1986 217.193 69.3896 217.138 69.7503ZM231.383 53.3291C231 53.1912 230.791 53.2337 230.769 53.4564C230.737 53.6898 230.989 53.8277 231.515 53.8807C231.745 53.8595 231.92 53.8383 232.04 53.8383C232.183 53.8171 232.26 53.7959 232.26 53.7959C232.172 53.7747 232.051 53.711 231.909 53.6262C231.788 53.5201 231.613 53.414 231.383 53.3291ZM222.047 16.0315C221.784 15.8618 221.719 15.6391 221.872 15.3526C222.047 15.045 222.529 14.3343 223.318 13.231C224.195 12.2763 225.378 11.0246 226.869 9.49704C228.381 7.9695 229.959 6.51621 231.602 5.12656C233.268 3.71571 234.648 2.62309 235.766 1.85931C237.432 0.840948 238.494 0.352981 238.966 0.374198C239.459 0.374198 239.864 0.957636 240.193 2.1139C240.598 3.16409 240.653 3.843 240.368 4.15063C240.072 4.55374 239.886 4.97805 239.798 5.42359C239.765 5.65696 239.535 6.00702 239.097 6.48438C238.681 6.97235 238.242 7.4391 237.782 7.88463C236.347 9.22124 235.109 10.4942 234.057 11.7035C233.027 12.8916 231.975 14.1645 230.901 15.5224C229.498 17.3894 228.446 18.6517 227.745 19.2988C227.044 19.9247 226.54 20.0626 226.255 19.7231C226.222 19.6383 226.058 19.5852 225.773 19.5534C225.51 19.5003 225.225 19.4473 224.94 19.3837C224.206 19.2776 223.625 18.8957 223.187 18.238C223.012 17.9304 222.847 17.6333 222.705 17.3469C222.551 17.0711 222.486 16.8802 222.486 16.7953C222.453 16.7105 222.398 16.6044 222.31 16.4559C222.245 16.2861 222.157 16.1482 222.047 16.0315Z" fill="white"/>
<path d="M281.993 56.3808C283.834 55.3412 284.82 54.8957 284.973 55.0654C285.149 55.2351 284.809 56.0837 283.965 57.6113C283.374 58.3538 282.891 58.9161 282.519 59.3086C282.135 59.7117 281.27 60.3481 279.933 61.218C278.202 62.353 276.876 63.0426 275.944 63.2972C275.002 63.5305 273.808 63.5305 272.35 63.2972C270.882 62.9577 269.962 62.6395 269.589 62.3212C269.469 62.1515 269.282 61.9606 269.019 61.7272C268.778 61.5044 268.559 61.3241 268.362 61.1756C267.891 60.7831 267.332 59.945 266.696 58.6721C266.05 57.3991 265.535 56.0625 265.162 54.6411C264.812 53.1984 264.593 52.0103 264.505 51.0768C264.56 50.5994 264.658 49.8781 264.812 48.9128C264.954 47.9262 265.119 46.9503 265.294 45.985C265.699 43.927 265.886 42.6753 265.864 42.251C265.71 41.9752 265.294 41.9433 264.593 42.1661C263.913 42.2828 263.595 42.4525 263.628 42.6753C263.65 42.8238 263.595 42.845 263.453 42.7601C263.245 42.5692 262.85 42.6329 262.27 42.9723C261.711 43.2905 261.492 43.5557 261.612 43.7785C261.755 43.8952 261.711 43.9058 261.481 43.8209C261.305 43.7149 260.67 43.9376 259.596 44.4999C258.544 45.0409 257.58 45.6031 256.703 46.1971C256.199 46.6002 255.838 46.77 255.607 46.7063C255.366 46.7381 255.038 46.8972 254.599 47.1731C254.161 47.4276 253.865 47.6822 253.723 47.9368C253.635 48.2232 253.383 48.4354 252.978 48.5733C252.561 48.6051 252.32 48.8067 252.233 49.1674C252.233 49.3689 252.024 49.6553 251.619 50.016C250.677 50.61 248.858 52.18 246.14 54.7259C245.406 55.4367 244.716 56.0837 244.08 56.6778C243.434 57.2718 243.05 57.6431 242.941 57.781C242.645 57.8977 242.25 58.3326 241.757 59.0964C240.705 60.4542 239.84 61.5044 239.171 62.2364C238.492 62.9471 237.55 63.8806 236.322 65.0369C235.709 65.6309 235.051 66.2568 234.35 66.9039C233.649 67.5616 233.188 67.9965 232.991 68.2192C232.816 68.4738 232.421 68.8875 231.808 69.4498C231.194 70.0226 230.603 70.5742 230.055 71.1046C229.408 71.6987 228.795 72.2821 228.214 72.8443C227.622 73.3853 227.206 73.8202 226.943 74.1597C226.351 74.7856 225.518 75.4539 224.444 76.154C223.393 76.8329 222.691 77.1299 222.341 77.0451C222.253 77.0238 222.1 76.992 221.902 76.9602C221.727 76.9072 221.596 76.8117 221.508 76.6632C221.212 76.6101 221.026 76.4298 220.938 76.1116C220.938 75.8888 220.697 75.6342 220.237 75.3478C219.82 75.0932 219.59 74.8386 219.536 74.584C219.503 74.0536 219.327 73.4808 219.01 72.8867L218.79 71.6562L220.018 69.3649C221.124 67.2751 222.626 64.9096 224.532 62.2788C226.461 59.6268 228.751 56.6778 231.413 53.453C231.874 52.8589 232.432 52.1588 233.079 51.3314C233.714 50.5146 234.262 49.8357 234.701 49.2946C235.161 48.7855 235.731 48.1066 236.41 47.2579C237.078 46.4093 237.659 45.6773 238.163 45.0515C238.744 44.3726 239.401 43.5876 240.136 42.6753C240.859 41.7736 241.472 41.0098 241.976 40.384C243.05 39.111 244.003 38.0078 244.825 37.0743C245.669 36.1196 246.71 35.0376 247.937 33.8495C248.397 33.3403 248.967 32.7675 249.647 32.1098C250.315 31.4627 250.874 30.8686 251.312 30.3276C251.75 29.7972 252.211 29.2986 252.715 28.8425C253.208 28.3651 253.547 28.1106 253.723 28.0787C254.128 27.7393 254.358 27.5059 254.424 27.3574C254.479 27.1346 254.687 27.0604 255.038 27.1452C256.55 27.2619 257.448 27.3574 257.711 27.4423C257.974 27.5059 258.161 27.7393 258.281 28.1636C258.544 28.6197 258.785 28.8743 259.026 28.9274C259.289 29.0122 259.377 29.2456 259.289 29.6063C259.201 29.9457 258.939 30.3488 258.5 30.7944C258.15 31.1656 257.93 31.5369 257.843 31.8976C257.81 31.9825 257.624 32.2264 257.273 32.6189C256.922 33.022 256.484 33.457 255.958 33.9343C254.523 35.324 253.153 36.6924 251.838 38.0502C250.545 39.408 249.57 40.6386 248.901 41.7418C248.485 42.251 247.806 43.1208 246.841 44.3301C245.877 45.55 244.891 46.8124 243.905 48.1066C242.206 50.2918 241.034 51.7875 240.399 52.6043C239.752 53.4318 239.456 53.8561 239.522 53.8773C239.61 53.9091 239.796 53.7924 240.092 53.5378C240.409 53.2832 240.793 52.9226 241.231 52.4346C242.042 51.8406 242.612 51.4587 242.941 51.2889C243.258 51.1192 243.226 51.2889 242.853 51.7981C242.678 52.0527 242.469 52.2649 242.239 52.4346C242.119 52.4664 241.691 52.8377 240.968 53.5378C240.267 54.2167 239.533 54.9169 238.777 55.617C238.043 56.3277 237.517 56.8369 237.199 57.1445C236.41 57.9932 236.246 58.269 236.717 57.9507C237.21 57.6113 238.262 56.7096 239.873 55.2351C240.804 54.3865 241.823 53.4742 242.941 52.477C244.047 51.4905 244.935 50.7585 245.614 50.2706C246.863 49.231 248.518 47.9687 250.567 46.4941C252.638 45.0302 254.665 43.6406 256.659 42.3358C258.676 41.0417 260.089 40.193 260.911 39.7899C262.313 39.111 262.938 38.7609 262.796 38.7291C262.675 38.6761 261.985 38.8989 260.736 39.408C259.475 39.9172 258.588 40.3309 258.062 40.6386C257.207 41.1265 256.002 41.9009 254.424 42.9723C252.868 44.0225 251.323 45.1151 249.778 46.2396C248.222 47.3746 246.94 48.3611 245.921 49.2098C245.066 49.9523 244.365 50.4827 243.817 50.8222C243.258 51.1404 243.215 51.0344 243.686 50.5252C243.949 50.2175 244.803 49.4962 246.272 48.3611C247.729 47.2367 249.34 46.0274 251.093 44.7544C252.868 43.4815 254.347 42.4525 255.52 41.6569C257.361 40.4688 258.862 39.6096 260.034 39.0686C261.196 38.5064 262.237 38.1351 263.146 37.9654C263.99 37.7956 265.009 38.029 266.214 38.6443C267.441 39.2701 268.121 39.8748 268.274 40.4688C268.45 41.0947 268.603 41.4448 268.756 41.5296C269.129 41.9539 269.458 42.5798 269.721 43.3966C270.006 44.224 270.137 45.0515 270.115 45.9001C270.17 46.3244 270.159 47.1094 270.071 48.2339C269.984 49.3371 269.83 50.504 269.633 51.7133C269.249 55.8716 269.348 58.269 269.94 58.8842C270.137 59.0858 270.773 59.2449 271.824 59.351C272.526 59.4995 273.139 59.5207 273.665 59.4359C274.191 59.351 275.134 59.1176 276.514 58.7145C277.391 58.4387 278.355 58.0674 279.407 57.6113C280.481 57.1339 281.346 56.7202 281.993 56.3808ZM238.338 48.743C237.867 49.0825 237.681 49.2946 237.769 49.3795C237.736 49.4644 237.725 49.528 237.725 49.5492C237.725 49.5811 237.725 49.5705 237.725 49.5068C237.725 49.5068 237.911 49.3371 238.295 48.9976C238.525 48.743 238.645 48.6157 238.645 48.6157C238.645 48.6157 238.536 48.6582 238.338 48.743ZM223.261 70.0862C223.754 69.6407 223.743 69.5558 223.217 69.8317C222.834 70.0332 222.604 70.2454 222.516 70.4681C222.516 70.553 222.527 70.6166 222.56 70.6379C222.615 70.6379 222.647 70.6379 222.647 70.6379C222.647 70.6379 222.845 70.4575 223.261 70.0862ZM234.788 54.4289C235.106 54.2061 235.544 53.7818 236.103 53.1559C236.684 52.5089 237.221 51.8724 237.725 51.2465C238.218 50.6313 238.426 50.26 238.338 50.1433C238.36 50.0902 238.207 50.0054 237.856 49.8887C237.561 49.8357 237.221 50.0478 236.848 50.5252C236.695 50.7267 236.585 50.8858 236.498 50.9919C236.432 51.1086 236.41 51.1616 236.41 51.1616C236.552 51.2253 236.421 51.4375 236.016 51.7981C235.807 51.883 235.446 52.2437 234.92 52.8589C234.416 53.4848 233.912 54.1213 233.386 54.7684C232.882 55.3942 232.608 55.7761 232.553 55.914C232.641 55.9989 232.772 55.9989 232.947 55.914C233.123 55.861 233.178 55.9034 233.123 56.0413C232.882 56.2959 232.728 56.3277 232.641 56.1262C232.487 56.105 232.312 56.1686 232.115 56.3383C232.027 56.455 231.742 56.8369 231.282 57.484C230.811 58.1099 230.285 58.7782 229.704 59.4783C227.304 62.4273 226.34 63.8063 226.811 63.6366C226.921 63.5836 226.987 63.5836 226.987 63.6366C227.008 63.6684 226.987 63.7533 226.899 63.8912C226.746 64.0928 226.57 64.167 226.373 64.1034C226.34 63.9973 226.329 63.9336 226.329 63.9336C226.329 63.9336 226.329 64.0185 226.329 64.1882C226.439 64.3579 226.395 64.6125 226.198 64.952C225.989 65.2702 225.825 65.3763 225.716 65.2915C225.628 65.2702 225.595 65.3551 225.628 65.546C225.683 65.8855 225.518 66.0128 225.146 65.9279C224.905 65.8749 224.795 66.0022 224.795 66.3098C224.85 66.6281 224.642 67.0524 224.181 67.5828C223.272 68.6648 223.272 68.8133 224.181 68.0495C224.379 67.8798 224.817 67.36 225.496 66.4795C226.198 65.6097 226.921 64.6444 227.688 63.5942C228.477 62.5228 229.178 61.5893 229.792 60.7937C230.405 60.0087 230.756 59.595 230.844 59.5632C231.041 59.4783 231.26 59.2661 231.501 58.9267C231.731 58.566 231.95 58.1947 232.158 57.8234C232.421 57.4628 232.663 57.1233 232.904 56.8051C233.167 56.4656 233.342 56.3171 233.43 56.3383C233.627 56.1156 233.758 55.8928 233.824 55.6594C233.912 55.32 234.229 54.9169 234.788 54.4289ZM239.215 47.9793C239.27 47.7565 239.215 47.661 239.04 47.6822C238.864 47.7989 238.744 47.9262 238.689 48.0641C238.656 48.4354 238.832 48.4036 239.215 47.9793Z" fill="white"/>
<path d="M338.049 84.6436C338.685 84.8982 338.411 85.2271 337.216 85.6196C336.395 85.8211 335.77 86.2348 335.332 86.8501C335.069 87.4441 334.784 87.6881 334.499 87.5714C334.291 87.4866 334.148 87.5502 334.061 87.7411C334.028 87.8048 333.59 88.0594 332.746 88.5049C331.891 88.9292 330.839 89.4172 329.59 89.9476C328.385 90.4886 327.333 90.966 326.434 91.3903C325.525 91.8146 325.054 92.0586 325.032 92.1116C324.966 92.2601 324.561 92.4935 323.805 92.833C323.038 93.1512 322.194 93.4694 321.262 93.8089C320.353 94.1271 319.509 94.4029 318.72 94.6575C317.931 94.8909 317.504 94.944 317.449 94.8273C317.416 94.7742 317.362 94.7636 317.274 94.7848C317.186 94.8167 317.11 94.9015 317.055 95.0394C316.879 95.4425 315.882 95.9093 314.074 96.4397C312.255 96.9489 310.173 97.3944 307.807 97.7551C305.44 98.0945 303.402 98.2855 301.714 98.3067C299.139 98.2855 297.035 98.0097 295.403 97.5005C293.792 96.9913 292.433 96.132 291.327 94.9121C290.801 94.3817 290.33 93.6816 289.924 92.833C289.508 91.9843 289.365 91.3479 289.486 90.9235C289.595 90.7008 289.497 90.2234 289.179 89.4809C288.357 87.9321 288.478 85.9802 289.53 83.6253C289.935 82.7236 290.549 81.6946 291.37 80.5277C292.181 79.3396 292.828 78.5653 293.299 78.194C293.441 78.0879 293.737 77.8121 294.176 77.3878C294.636 76.9635 295.107 76.4861 295.578 75.9451C296.772 74.757 298.098 73.4628 299.567 72.0414C301.024 70.5987 302.459 69.2833 303.862 68.0952C305.286 66.8859 306.382 65.9312 307.149 65.2523L309.823 63.1731L308.508 63.4701C307.478 63.6187 306.371 64.043 305.177 64.7431C303.95 65.5705 302.996 65.8675 302.328 65.6342C301.824 65.5493 301.188 65.6236 300.399 65.8463C299.61 66.0797 298.383 66.504 296.718 67.1193C295.49 67.6285 294.395 68.0316 293.43 68.3074C292.466 68.562 291.907 68.668 291.765 68.6044C291.502 68.4983 291.294 68.6044 291.151 68.9438C291.031 69.1984 290.647 69.5273 290.012 69.9198C289.398 70.2911 289.146 70.3335 289.267 70.0471C289.289 69.994 289.201 70.0046 289.004 70.0895C288.828 70.1532 288.609 70.2804 288.346 70.4714C288.083 70.7048 287.524 71.023 286.681 71.4473C285.826 71.8504 284.949 72.296 284.051 72.8051C283.141 73.2295 281.827 73.8978 280.106 74.7994C278.375 75.7117 276.742 76.6028 275.197 77.4726C272.765 78.7244 270.946 79.6685 269.719 80.3156C268.513 80.9414 267.494 81.4188 266.65 81.7583C265.796 82.0765 264.766 82.416 263.539 82.7766C261.698 83.3707 260.427 83.6571 259.725 83.6253C259.046 83.5722 258.465 83.2434 257.972 82.6493C257.446 82.0022 257.096 81.4824 256.92 81.0793C256.887 80.655 256.767 80.4004 256.57 80.3156C256.329 80.2307 256.274 79.9761 256.394 79.5518C256.504 79.1063 256.635 78.8729 256.789 78.8729C257.139 78.8517 257.194 78.6819 256.964 78.3637C255.704 76.136 256.767 73.6113 260.164 70.8108C260.777 70.4184 261.281 70.0471 261.698 69.7076C262.136 69.3682 262.399 69.2197 262.487 69.2409C262.684 69.3576 262.728 69.4849 262.618 69.6228C262.53 69.7713 261.939 70.2592 260.865 71.1079C259.988 71.8504 259.167 72.7415 258.41 73.7811C257.643 74.8313 257.315 75.5632 257.402 75.9875C257.457 76.3588 257.578 76.3694 257.753 76.03C257.808 75.8921 257.983 75.6693 258.279 75.3511C258.564 75.0434 258.871 74.704 259.199 74.3327C260.043 73.7386 260.525 73.1446 260.646 72.5506C260.701 72.2429 260.865 71.9565 261.128 71.7019C261.413 71.4261 262.059 71.0018 263.056 70.429C264.163 69.7819 264.875 69.3151 265.204 69.0287C265.522 68.7211 265.347 68.6468 264.678 68.8165C264.207 68.8802 264.032 68.7953 264.152 68.562C264.207 68.3922 264.338 68.371 264.547 68.4771C264.634 68.5089 264.821 68.4241 265.116 68.2225C265.434 68.0316 265.752 67.83 266.081 67.6285C266.782 66.9495 267.549 66.3873 268.404 65.9312C269.16 65.6554 270.036 65.1992 271.033 64.5734C272.052 63.9263 272.809 63.4489 273.313 63.1307C274.123 62.5685 275.088 61.9638 276.205 61.3061C277.312 60.659 278.331 60.0968 279.273 59.6088C280.205 59.1315 280.698 58.8663 280.764 58.8026C281.202 58.6647 281.476 58.4526 281.596 58.1662C281.651 58.0283 281.947 57.7737 282.473 57.4024C283.021 57.0417 283.667 56.6386 284.402 56.2143C286.177 55.4505 287.13 54.9307 287.25 54.6443C287.25 54.5064 288.127 53.9972 289.88 53.1168C291.633 52.2469 293.748 51.2498 296.236 50.1465C299.128 48.9903 300.86 48.3962 301.451 48.3644C301.649 48.4493 302.021 48.4705 302.547 48.4068C303.073 48.3538 303.533 48.2689 303.95 48.1522C306.108 47.3354 308.07 47.5794 309.823 48.8736C310.195 49.107 310.546 49.404 310.875 49.7647C311.225 50.1041 311.412 50.3587 311.445 50.5284C311.532 50.6769 311.664 50.9103 311.839 51.2498C312.014 51.5892 312.201 51.8862 312.409 52.1408C312.639 52.5439 312.825 53.0213 312.979 53.5835C313.121 54.1245 313.209 54.7186 313.242 55.3657C313.263 55.9597 313.329 56.4901 313.417 56.9356C313.526 57.36 313.636 57.6782 313.724 57.8691C313.833 57.954 313.954 58.1556 314.074 58.4632C314.184 58.7496 314.293 59.0042 314.381 59.227C314.644 59.8847 314.907 60.2665 315.17 60.3726C315.521 60.5211 315.663 61.0409 315.608 61.9426C315.543 62.8231 315.345 63.6399 314.995 64.4036C314.787 64.8598 314.425 65.4432 313.899 66.1433C313.373 66.8223 312.727 67.5754 311.97 68.3922C311.379 69.0181 310.612 69.8243 309.648 70.8108C308.705 71.7762 307.938 72.5506 307.325 73.1446C306.711 73.8553 305.79 74.8313 304.563 76.0724C303.358 77.2923 302.196 78.438 301.057 79.5094C296.696 83.6465 294.011 86.8395 292.992 89.099C292.642 89.9264 292.444 90.4568 292.422 90.7114C292.422 90.9448 292.565 91.1675 292.861 91.3903C294 92.2177 295.896 92.5996 298.559 92.5359C301.649 92.4511 304.629 92.1753 307.5 91.6873C310.393 91.1781 313.833 90.3189 317.844 89.099C320.09 88.314 321.284 88.1124 321.438 88.5049C321.493 88.5898 321.92 88.5367 322.709 88.3352C323.498 88.1124 324.528 87.773 325.821 87.3168C328.713 86.1924 330.116 85.8105 330.028 86.1712C330.138 86.5424 329.853 86.8713 329.152 87.1471C328.505 87.3805 328.155 87.5714 328.1 87.7411C328.188 87.8048 328.472 87.7624 328.976 87.6138C329.502 87.4759 330.094 87.2638 330.773 86.9774C332.318 86.2772 333.414 85.959 334.061 86.0439C334.609 86.1287 334.992 86.0651 335.2 85.8317C335.485 85.471 335.967 85.1528 336.647 84.8982C337.348 84.6224 337.808 84.5375 338.049 84.6436ZM275.285 63.3428C275.164 63.2898 275.066 63.3641 274.978 63.555C274.77 64.043 275.044 64.043 275.811 63.555C276.271 63.2474 276.403 63.0352 276.205 62.9185C276.085 62.6958 275.953 62.7488 275.811 63.0883C275.69 63.3428 275.515 63.4277 275.285 63.3428ZM289.31 67.7982C289.365 68.1376 289.497 68.2862 289.705 68.2225C289.902 68.1376 290.034 67.9043 290.099 67.5012C290.187 67.0556 290.034 66.9071 289.661 67.0768C289.365 67.1405 289.245 67.3739 289.31 67.7982ZM297.813 62.961C298.131 62.77 296.805 63.2474 293.825 64.4036C291.601 65.2311 289.584 66.0585 287.776 66.9071C285.957 67.7558 285.103 68.2013 285.19 68.2225C285.212 68.2543 285.738 68.0422 286.768 67.586C287.82 67.1087 289.047 66.5889 290.45 66.016C293.956 64.4885 295.885 63.8096 296.236 63.9793C296.641 64.149 296.816 64.1066 296.762 63.852C296.904 63.5762 297.255 63.2792 297.813 62.961ZM305.177 56.4265C305.9 55.7475 306.492 55.1747 306.93 54.6867C307.39 54.2094 307.642 53.9442 307.675 53.8805C307.642 53.7745 307.083 53.8593 306.01 54.1351C304.958 54.4216 303.84 54.7504 302.679 55.1111C301.506 55.4505 300.728 55.7051 300.356 55.8748C299.939 56.1082 299.621 56.1719 299.391 56.087C299.183 55.9809 299.216 55.8112 299.479 55.5778C299.654 55.3551 299.621 55.2278 299.391 55.1959C299.15 55.1747 298.953 55.3657 298.778 55.79C298.657 56.0446 298.087 56.4477 297.068 56.9781C296.038 57.5191 294.197 58.3571 291.546 59.4815C290.757 59.7998 289.661 60.309 288.259 61.0091C286.856 61.7198 285.552 62.3987 284.358 63.0458C283.13 63.7566 282.013 64.3824 281.027 64.9128C280.03 65.4538 279.449 65.7615 279.273 65.8463C278.857 66.016 278.112 66.4722 277.038 67.2041C275.953 67.9149 274.781 68.7211 273.532 69.6228C272.305 70.5032 271.209 71.3094 270.245 72.0414C269.302 72.7839 268.809 73.2082 268.754 73.3143C268.601 73.6007 268.853 73.6113 269.499 73.3568C270.135 73.1022 271.581 72.4551 273.839 71.4049C278.046 69.3151 280.775 68.0103 282.035 67.5012C283.317 66.992 283.854 67.0556 283.656 67.6709C283.536 67.9573 283.624 67.9149 283.919 67.5436C284.358 67.3527 284.489 67.0556 284.314 66.6525C284.281 66.3979 285.716 65.6342 288.609 64.3612C290.538 63.5444 291.776 63.0458 292.335 62.8761C292.915 62.6852 293.365 62.6958 293.693 62.9185C294.219 63.2049 294.417 63.1201 294.307 62.6639C294.219 62.3881 294.395 62.1123 294.833 61.8577C295.271 61.6031 296.433 61.1258 298.339 60.415C299.709 59.8847 300.728 59.4391 301.408 59.0997C302.109 58.739 302.733 58.3677 303.292 57.9964C303.84 57.6358 304.476 57.1054 305.177 56.4265Z" fill="white"/>
<path d="M400.746 119.622C400.976 119.792 400.844 120.121 400.351 120.598C399.847 121.054 399.014 121.574 397.853 122.168C396.275 122.995 394.083 123.77 391.278 124.502C390.106 124.82 389.043 125.159 388.079 125.52C387.115 125.891 386.556 126.135 386.413 126.241C386.15 126.475 385.339 126.772 384.003 127.132C382.655 127.472 381.044 127.801 379.181 128.108C377.34 128.448 375.412 128.766 373.396 129.084C371.402 129.392 369.648 129.572 368.136 129.636C366.646 129.721 364.761 129.806 362.482 129.89C360.225 129.975 358.198 129.997 356.39 129.975C354.637 130.028 352.927 130.06 351.262 130.06C349.618 130.06 348.468 130.071 347.799 130.103C346.506 130.124 344.797 130.028 342.671 129.806C340.534 129.604 338.288 129.265 335.921 128.787C333.555 128.299 331.286 127.79 329.128 127.217C326.958 126.655 325.161 126.029 323.737 125.35C323.178 125.096 322.531 124.83 321.808 124.544C321.074 124.236 320.537 124.035 320.186 123.95C319.156 123.558 317.787 122.836 316.066 121.786C314.335 120.715 313.097 119.792 312.341 119.028C312.045 118.667 311.738 118.307 311.42 117.967C311.125 117.628 310.818 117.278 310.5 116.906C310.259 117.076 310.062 117.246 309.886 117.416C309.711 117.585 309.623 117.67 309.623 117.67C309.558 117.702 309.941 117.988 310.763 118.519C311.574 119.06 312.396 119.951 313.217 121.192C313.798 122.189 314.269 123.303 314.62 124.544C314.993 125.764 315.102 126.517 314.927 126.793C314.752 127.048 314.762 127.684 314.971 128.702C315.146 129.774 315.069 130.325 314.752 130.357C314.664 130.325 314.5 130.41 314.269 130.612C314.028 130.835 313.809 131.1 313.612 131.418C312.352 133.253 309.908 134.441 306.292 134.982C304.189 135.491 302.446 135.661 301.077 135.491C299.696 135.322 298.425 134.855 297.263 134.091L295.423 132.946L292.004 134.982C289.878 136.255 288.278 137.168 287.226 137.74C286.174 138.303 285.451 138.642 285.035 138.759C284.63 138.897 284.246 138.971 283.895 138.971C283.282 138.886 282.931 138.812 282.843 138.759C282.756 138.695 282.569 138.387 282.274 137.825C281.989 137.284 281.857 136.52 281.879 135.534C281.912 134.537 282.098 133.794 282.449 133.285C282.887 132.691 283.709 131.948 284.903 131.079C286.076 130.23 287.774 129.19 289.988 127.981C291.018 127.387 292.026 126.814 293.012 126.241C294.031 125.679 294.656 125.287 294.897 125.053C295.477 124.576 295.872 124.396 296.08 124.502C296.343 124.671 296.672 125.117 297.088 125.817C298.107 127.748 300.08 128.586 303.005 128.363C304.024 128.299 305.208 128.076 306.555 127.684C307.892 127.26 308.933 126.857 309.667 126.453L310.938 125.817L310.193 125.308C309.667 124.968 308.637 124.714 307.125 124.544C306.533 124.491 305.821 124.406 304.977 124.289C304.156 124.152 303.487 123.992 302.961 123.823L301.12 123.526L300.814 121.998C300.638 121.096 300.649 120.492 300.857 120.174C300.967 120.004 300.923 119.622 300.726 119.028C300.167 117.925 301.033 116.546 303.312 114.87C304.123 114.392 304.901 113.883 305.635 113.342C306.358 112.78 307.037 112.239 307.651 111.73C306.917 109.926 306.522 108.187 306.468 106.511C306.522 105.916 306.533 105.238 306.512 104.474C306.512 103.71 306.512 103.137 306.512 102.734C306.512 99.9336 307.037 97.4195 308.089 95.1812C309.141 92.9535 310.873 90.6728 313.305 88.3497C316.636 85.2946 321.238 82.3456 327.112 79.4814C332.985 76.5961 339.252 74.2835 345.915 72.5226C348.369 71.9074 350.889 71.3557 353.497 70.8678C356.127 70.3904 358.362 70.0404 360.203 69.807C362.044 69.5524 363.096 69.5418 363.359 69.7645C363.764 70.051 364.476 70.1252 365.506 69.9767C367.019 69.7221 369.144 69.8282 371.862 70.2737C374.601 70.698 377.056 71.3239 379.225 72.1407C381.877 73.1379 383.97 74.2941 385.493 75.6201C387.038 76.9249 388.166 78.4206 388.868 80.1179C389.416 81.5606 389.701 82.8123 389.701 83.8519C389.722 84.9021 389.459 86.0478 388.912 87.2889C388.473 88.1375 388.079 88.774 387.728 89.1983C387.399 89.6014 386.501 90.3334 385.011 91.4048C384.189 92.0307 383.225 92.699 382.118 93.3991C381.033 94.078 380.146 94.5872 379.444 94.9266C378.765 95.2661 378.173 95.5631 377.647 95.8177C377.121 96.0511 376.815 96.2208 376.727 96.3269C376.661 96.3905 376.08 96.6557 374.974 97.1331C373.889 97.5892 372.607 98.0984 371.117 98.6606C368.103 99.8275 365.309 100.697 362.745 101.291C360.203 101.864 358.121 102.129 356.521 102.098C355.053 102.013 353.65 101.461 352.314 100.443C350.966 99.4032 350.035 98.1302 349.509 96.6239C348.72 94.3326 348.829 92.5823 349.859 91.3624L350.692 90.344L352.401 91.4472C353.212 91.9882 353.738 92.4019 353.979 92.6777C354.242 92.9642 354.505 93.4733 354.768 94.2053C354.943 95.2024 355.163 95.7753 355.426 95.945C355.689 96.1147 356.587 96.1041 358.143 95.9026C359.721 95.6798 361.299 95.3509 362.877 94.9266C365.09 94.3644 367.698 93.4733 370.678 92.2534C373.681 91.0441 376.431 89.7499 378.918 88.3921C380.935 87.3207 382.217 86.5676 382.775 86.1432C383.356 85.7189 383.926 85.1143 384.485 84.3187C384.835 83.8413 385.12 83.3427 385.361 82.8336C385.591 82.3244 385.767 81.9637 385.887 81.7303C386.26 80.4892 385.318 79.1314 383.038 77.6569C381.022 76.3309 378.568 75.652 375.675 75.6201C374.185 75.7687 372.695 75.6838 371.204 75.3655C370.47 75.3443 369.67 75.3019 368.794 75.2383C367.939 75.1534 367.26 75.1746 366.734 75.2807C365.474 75.2595 364.816 75.217 364.761 75.1534C364.641 75.1004 363.808 75.1958 362.263 75.4504C360.707 75.6838 358.822 76.002 356.609 76.4263C354.385 76.8507 352.204 77.275 350.078 77.6993C347.975 78.1236 346.309 78.5267 345.082 78.8874C343.646 79.2587 341.97 79.7785 340.041 80.4574C338.113 81.1151 336.206 81.8046 334.343 82.5365C332.47 83.2473 330.848 83.9262 329.478 84.5733C328.098 85.231 327.177 85.7826 326.717 86.2281C326.542 86.3448 326.114 86.6524 325.446 87.1616C324.767 87.6496 324.043 88.1269 323.255 88.6043C322.608 89.0286 321.72 89.6651 320.581 90.5137C319.463 91.3411 318.488 92.0837 317.644 92.7626C316.417 93.781 315.497 94.6296 314.883 95.3085C314.269 95.9874 313.502 96.9634 312.604 98.2363C311.519 99.8275 310.774 101.196 310.369 102.352C309.985 103.519 309.766 104.792 309.711 106.171C309.678 106.882 310.04 107.953 310.807 109.396C312.177 108.187 312.867 107.529 312.867 107.444C312.867 107.274 313.141 106.998 313.7 106.595C314.28 106.203 314.883 105.832 315.497 105.492C316.132 105.153 316.516 105.015 316.636 105.068C316.833 105.216 317.042 105.577 317.25 106.171C317.513 106.914 317.754 107.349 317.995 107.486C318.258 107.656 318.236 107.9 317.951 108.208C317.622 108.462 317.622 108.696 317.951 108.887C319.058 109.597 317.863 111.337 314.357 114.106C315.847 115.411 317.655 116.641 319.792 117.797C321.951 118.932 324.23 119.834 326.629 120.513C331.889 122.019 337.631 123.091 343.855 123.738C350.078 124.396 356.478 124.618 363.052 124.417C369.626 124.226 375.982 123.6 382.118 122.55C383.663 122.21 385.241 121.892 386.852 121.574C388.451 121.266 389.536 120.98 390.095 120.725C390.763 120.418 391.552 120.121 392.462 119.834C393.393 119.558 394.193 119.325 394.872 119.155C395.574 118.901 396.242 118.678 396.889 118.476C397.524 118.285 397.984 118.126 398.247 118.01C398.773 117.67 399.146 117.575 399.387 117.713C399.584 117.861 400.099 117.734 400.921 117.331C401.885 117.023 402.378 116.938 402.411 117.076C402.433 117.225 401.995 117.575 401.096 118.137C400.329 118.54 399.924 118.763 399.869 118.816C399.836 118.879 400.022 118.858 400.439 118.773C400.965 118.688 401.25 118.646 401.315 118.646C401.403 118.625 401.272 118.72 400.921 118.943C400.658 119.314 400.592 119.537 400.746 119.622ZM343.329 74.8139C341.805 75.2383 340.984 75.5353 340.874 75.705C340.786 75.8535 341.181 75.8111 342.058 75.5777C342.934 75.3549 343.789 75.0897 344.643 74.7715C344.906 74.6654 344.917 74.623 344.687 74.6442C344.446 74.6442 343.997 74.7079 343.329 74.8139ZM336.754 77.0628C335.899 77.2113 335.395 77.4023 335.22 77.6569C335.1 77.8266 335.33 77.816 335.921 77.6144C336.535 77.4235 337.116 77.2113 337.675 76.978C337.872 76.787 337.565 76.8082 336.754 77.0628ZM334.343 78.1236C334.431 78.0175 334.059 78.1024 333.248 78.3782C332.426 78.6328 331.977 78.8237 331.889 78.9298C331.856 78.9935 331.955 79.0147 332.196 79.0147C332.459 78.9935 332.722 78.8874 332.985 78.7177C333.828 78.4419 334.278 78.2403 334.343 78.1236ZM316.461 88.1375C317.535 87.2677 318.828 86.3766 320.318 85.4643C321.83 84.5308 323.309 83.6822 324.745 82.9184C326.027 82.2395 327.024 81.6773 327.725 81.2211C328.448 80.7756 328.58 80.5634 328.12 80.5847C327.703 80.7014 326.783 81.1681 325.358 81.9849C323.923 82.7805 322.389 83.7034 320.756 84.743C319.113 85.7932 317.655 86.7797 316.373 87.7132C314.993 88.7634 313.842 89.8242 312.911 90.8956L311.64 92.5504L313.393 90.8107C313.853 90.3864 314.379 89.9197 314.971 89.4105C315.584 88.8801 316.077 88.4558 316.461 88.1375ZM380.014 127.005C384.277 125.966 386.698 125.138 387.29 124.544C387.52 124.205 386.019 124.406 382.775 125.138C381.46 125.425 380.08 125.722 378.655 126.029C377.22 126.316 376.08 126.538 375.237 126.708C373.571 127.048 372.673 127.302 372.563 127.472C372.497 127.811 372.432 127.811 372.344 127.472C372.311 127.281 371.862 127.249 370.985 127.387C370.602 127.387 369.868 127.429 368.794 127.514C367.742 127.578 366.668 127.663 365.594 127.769C363.249 127.886 361.386 128.002 359.984 128.151C358.603 128.32 357.858 128.501 357.749 128.702C357.661 128.808 357.277 128.925 356.609 129.042C355.875 129.18 355.798 129.265 356.39 129.296C357.003 129.318 358.231 129.318 360.072 129.296C360.97 129.296 362.066 129.233 363.359 129.127C364.641 129.042 365.726 128.968 366.602 128.915C368.531 128.766 369.813 128.681 370.459 128.66C371.128 128.628 372.443 128.448 374.404 128.108C376.354 127.801 378.228 127.429 380.014 127.005ZM391.629 123.398C391.98 123.292 392.254 123.176 392.462 123.059C392.692 122.921 392.812 122.847 392.812 122.847C392.747 122.826 392.396 122.91 391.76 123.101C391.114 123.303 390.489 123.515 389.876 123.738C389.262 123.971 388.923 124.141 388.868 124.247C388.714 124.449 388.966 124.449 389.613 124.247C390.248 124.056 390.928 123.77 391.629 123.398Z" fill="white"/>
<path d="M412.484 129.794C412.1 129.232 411.739 128.775 411.388 128.436C411.059 128.097 410.906 127.969 410.906 128.054C410.84 128.118 410.709 128.415 410.511 128.945C410.336 129.454 410.095 130.08 409.81 130.812C409.076 132.403 408.276 133.804 407.4 135.013C406.523 136.233 405.361 137.474 403.937 138.747C402.94 139.596 402.14 140.232 401.526 140.656C400.935 141.059 399.992 141.505 398.677 142.014C396.858 142.778 394.798 143.361 392.497 143.754C390.218 144.125 387.994 144.263 385.835 144.178C383.907 144.125 382.296 143.945 381.014 143.627C379.721 143.287 378.395 142.735 377.025 141.972C376.379 141.579 375.722 141.24 375.053 140.953C374.374 140.678 373.957 140.465 373.782 140.317C372.73 140.009 371.722 139.065 370.758 137.474C370.341 136.774 370.1 135.681 370.013 134.207C369.947 132.711 370.122 131.809 370.539 131.491C370.714 131.321 370.824 130.727 370.889 129.709C370.999 128.584 371.602 127.237 372.686 125.678C373.793 124.097 375.141 122.57 376.719 121.095C378.318 119.631 379.874 118.507 381.365 117.743C384.542 116.194 388.18 114.974 392.278 114.094C396.365 113.224 400.321 112.81 404.156 112.863L407.049 112.948L407.224 111.633C407.312 110.731 407.498 110.296 407.794 110.318C408.057 110.233 408.419 110.487 408.89 111.081C409.35 111.675 409.646 112.269 409.766 112.863C410.029 113.691 410.468 114.243 411.081 114.518C412.308 115.059 413.152 115.982 413.623 117.276C413.853 117.934 413.952 118.878 413.93 120.119C413.897 121.371 413.733 122.103 413.448 122.326C413.065 122.697 413.897 123.917 415.946 125.975C417.984 128.043 420.559 130.324 423.66 132.806C425.611 134.366 427.605 135.819 429.621 137.177C431.637 138.535 433.851 139.967 436.283 141.463C436.426 141.611 436.568 141.76 436.722 141.929C436.897 142.078 437.072 142.216 437.248 142.354C437.357 142.47 437.467 142.587 437.554 142.693C437.664 142.778 437.785 142.884 437.905 142.99C437.96 143.022 438.037 143.117 438.124 143.287C438.234 143.436 438.321 143.531 438.387 143.584C438.53 143.733 438.65 143.881 438.738 144.051C438.76 144.083 438.782 144.125 438.782 144.178C438.782 144.21 438.782 144.221 438.782 144.221C438.782 144.221 438.793 144.242 438.826 144.263C438.847 144.295 438.869 144.38 438.869 144.518C438.869 144.518 438.88 144.539 438.913 144.56C438.935 144.592 438.957 144.602 438.957 144.602C438.979 144.666 439.001 144.687 439.001 144.687C439.001 144.687 439.001 144.751 439.001 144.857C438.88 144.772 438.76 144.709 438.65 144.645C438.53 144.592 438.431 144.518 438.343 144.433C437.138 143.754 436.546 143.478 436.546 143.584C436.513 143.648 437.313 144.178 438.957 145.197C438.891 145.26 438.88 145.303 438.913 145.324C438.968 145.356 439.001 145.366 439.001 145.366C438.968 145.43 438.957 145.472 438.957 145.494C438.979 145.494 439.001 145.494 439.001 145.494C438.76 145.727 438.705 145.897 438.826 146.003C438.793 146.035 438.749 146.109 438.694 146.215C438.628 146.332 438.573 146.416 438.519 146.469C438.519 146.469 438.431 146.576 438.256 146.767C438.168 146.83 438.058 146.926 437.949 147.064C437.828 147.212 437.741 147.297 437.686 147.318C437.62 147.382 437.533 147.435 437.423 147.488C437.335 147.551 437.259 147.605 437.204 147.658C437.083 147.658 437.028 147.658 437.028 147.658C436.996 147.689 436.952 147.7 436.897 147.7C436.831 147.7 436.776 147.742 436.722 147.827C436.634 147.827 436.557 147.859 436.503 147.912C436.503 147.912 436.459 147.891 436.371 147.827C436.338 147.891 436.218 147.912 436.02 147.912C435.955 147.859 435.933 147.827 435.933 147.827C435.933 147.827 435.911 147.849 435.889 147.87C435.856 147.902 435.845 147.912 435.845 147.912C431.024 145.143 426.52 142.099 422.346 138.789C418.16 135.48 414.873 132.488 412.484 129.794ZM434.136 142.057C433.982 142.057 433.971 142.131 434.092 142.269C434.234 142.385 434.453 142.513 434.749 142.651C435.451 143.107 435.9 143.319 436.108 143.287C436.305 143.319 436.075 143.117 435.407 142.693C434.727 142.248 434.311 142.035 434.136 142.057ZM391.445 137.644C394.185 137.421 396.727 136.784 399.072 135.734C401.439 134.663 403.455 133.294 405.12 131.618C406.808 129.953 407.882 128.16 408.32 126.23C408.495 125.529 408.539 125.041 408.451 124.787C408.386 124.532 408.167 124.225 407.794 123.853C407.323 123.408 407.093 123.026 407.093 122.708C407.115 122.538 407.027 122.273 406.83 121.901C406.589 121.679 406.523 121.371 406.611 120.968C406.72 120.544 406.939 120.268 407.268 120.119C407.465 119.897 407.498 119.769 407.356 119.737C407.235 119.631 406.567 119.589 405.34 119.61C404.134 119.61 402.973 119.631 401.833 119.653C400.715 119.653 400.102 119.716 399.992 119.822C399.872 119.854 399.642 119.907 399.291 119.992C398.962 120.077 398.546 120.141 398.02 120.162C397.319 120.077 396.004 120.278 394.075 120.756C392.169 121.212 390.185 121.764 388.114 122.411C386.065 123.068 384.477 123.641 383.337 124.15C381.288 125.116 379.327 126.304 377.464 127.715C375.59 129.104 374.352 130.377 373.738 131.533C373.563 131.958 373.519 132.276 373.607 132.467C373.694 132.637 374.089 133.05 374.79 133.698C375.404 134.27 376.061 134.737 376.763 135.098C377.464 135.437 378.483 135.883 379.831 136.413C381.726 137.039 383.523 137.453 385.222 137.644C386.909 137.813 388.991 137.813 391.445 137.644ZM433.566 98.3942C433.478 98.5109 433.566 98.6912 433.829 98.9458C434.059 99.1792 434.245 99.7414 434.399 100.643C434.541 101.524 434.64 102.425 434.706 103.359C434.793 104.292 434.76 104.908 434.618 105.183C434.267 106.064 433.61 107.294 432.646 108.875C431.681 110.434 430.783 111.675 429.972 112.609C428.591 114.476 427.846 115.558 427.737 115.834C427.616 116.12 427.868 116.47 428.482 116.895C429.117 117.298 430.235 117.722 431.813 118.167C433.413 118.592 435.21 119.005 437.204 119.398C439.187 119.801 441.127 120.151 443.033 120.459C444.929 120.745 446.507 120.883 447.767 120.883C448.523 120.883 448.972 120.947 449.126 121.053C449.301 121.138 449.487 121.424 449.695 121.901C450.397 123.376 450.177 124.352 449.038 124.829C448.742 124.914 448.424 125.073 448.074 125.296C447.745 125.498 447.427 125.71 447.109 125.932C446.759 126.134 446.2 126.293 445.444 126.399C444.71 126.516 443.603 126.601 442.113 126.654C436.59 126.972 431.769 126.378 427.649 124.872C425.479 124.14 424.186 123.302 423.748 122.368C423.507 121.838 423.222 120.926 422.871 119.653C422.521 118.358 422.389 117.648 422.477 117.531C422.652 117.393 422.718 116.746 422.696 115.579C422.718 114.508 423.047 113.309 423.66 111.972C424.274 110.615 425.326 108.896 426.816 106.796C428.449 104.483 429.293 103.178 429.358 102.892C429.413 102.616 429.062 102.362 428.306 102.128C427.364 101.958 425.983 101.81 424.143 101.661C422.302 101.492 420.647 101.428 419.19 101.449C417.984 101.481 416.659 101.566 415.201 101.704C413.766 101.821 412.451 101.99 411.257 102.213C410.051 102.446 409.24 102.659 408.802 102.85C408.473 102.966 408.21 102.934 408.013 102.765C407.838 102.595 407.597 102.171 407.312 101.492C406.983 100.898 406.928 100.261 407.137 99.5823C407.246 99.1368 407.191 98.8398 406.961 98.6912C406.665 98.5533 406.654 98.3518 406.917 98.0972C407.18 97.8214 407.279 97.4819 407.224 97.0788C407.246 96.6545 407.706 96.2196 408.583 95.7634C409.46 95.2861 410.38 94.9785 411.344 94.8299C413.207 94.5223 415.267 94.342 417.524 94.2783C419.803 94.1935 422.05 94.2571 424.274 94.4481C426.487 94.6496 428.306 94.9466 429.709 95.3391C430.728 95.5725 431.429 95.7953 431.813 96.018C432.218 96.2196 432.569 96.559 432.865 97.0364C433.391 97.6941 433.621 98.1396 433.566 98.3942Z" fill="white"/>
<path d="M463.353 193.226C462.882 193.226 462.302 193.226 461.6 193.226C460.921 193.226 460.307 193.194 459.759 193.141C459.255 193.162 458.192 193.109 456.56 192.971C454.916 192.854 453.053 192.695 450.95 192.504C448.868 192.303 446.764 192.08 444.638 191.826C442.501 191.571 440.628 191.359 439.028 191.189C437.417 191.019 436.332 190.871 435.785 190.765C432.826 190.107 429.846 189.322 426.843 188.389C423.83 187.476 421.145 186.49 418.779 185.418C417.781 185.047 416.85 184.676 415.973 184.273C415.119 183.88 414.582 183.668 414.352 183.636C413.475 183.36 412.347 182.735 410.977 181.769C409.596 180.814 408.227 179.711 406.857 178.459C405.476 177.218 404.293 176.041 403.307 174.938C402.309 173.834 401.751 172.986 401.641 172.392C401.663 171.798 401.521 171.448 401.203 171.331C400.907 171.193 400.721 170.397 400.633 168.955C400.567 167.512 400.644 165.921 400.852 164.16C401.049 162.41 401.345 161.062 401.729 160.129C402.134 159.174 402.178 158.389 401.86 157.795C401.652 157.265 401.575 156.947 401.641 156.862C401.696 156.756 402.003 156.809 402.562 157.031C403.142 157.371 403.548 157.35 403.789 156.947C406.156 153.807 410.407 151.494 416.543 149.988C418.296 149.542 420.356 149.16 422.723 148.842C425.09 148.534 427.369 148.312 429.561 148.163C431.774 148.025 433.472 147.993 434.645 148.078C435.017 148.11 435.609 148.121 436.398 148.121C437.187 148.121 437.943 148.163 438.677 148.248C440.661 148.333 442.37 148.481 443.805 148.672C445.23 148.842 446.139 149.097 446.523 149.436C446.808 149.585 447.104 149.86 447.399 150.285C447.684 150.709 447.947 151.176 448.188 151.685C448.451 152.109 448.714 152.619 448.977 153.213C449.262 153.807 449.514 154.263 449.722 154.57C450.303 155.822 450.687 157.063 450.862 158.304C451.059 159.524 451.015 160.967 450.73 162.632C450.522 164.871 450.139 166.568 449.591 167.724C449.032 168.859 448.166 169.761 447.005 170.44C444.901 171.798 442.151 172.604 438.765 172.858C437.034 172.975 434.864 172.922 432.234 172.689C429.605 172.434 427.468 172.052 425.835 171.543C422.789 170.694 420.247 169.931 418.209 169.252C416.193 168.552 414.352 167.83 412.686 167.088C411.021 166.324 409.18 165.422 407.164 164.372C406.605 164.181 406.079 163.98 405.586 163.778C405.115 163.555 404.863 163.46 404.841 163.481C404.337 163.852 404.369 164.701 404.928 166.027C405.476 167.364 406.309 168.573 407.427 169.676C412.357 174.662 418.976 178.523 427.282 181.26C428.07 181.578 428.794 181.875 429.473 182.151C430.174 182.437 430.536 182.618 430.569 182.703C430.799 182.989 431.292 183.212 432.059 183.382C432.815 183.53 433.286 183.53 433.462 183.382C433.571 183.297 434.053 183.329 434.908 183.466C435.752 183.615 436.628 183.806 437.538 184.06C438.261 184.262 438.283 184.347 437.582 184.315C436.234 184.315 437.373 184.686 441 185.418C442.107 185.609 443.279 185.843 444.507 186.097C445.756 186.373 446.742 186.585 447.443 186.734C448.846 187.041 450.566 187.37 452.615 187.71C454.686 188.049 456.45 188.272 457.919 188.389C458.499 188.389 459.376 188.41 460.548 188.473C461.743 188.558 462.871 188.664 463.923 188.813C465.085 188.951 466.301 189.067 467.561 189.152C468.843 189.258 469.818 189.333 470.498 189.364C475.812 189.704 478.453 189.959 478.431 190.128C478.398 190.266 478.036 190.34 477.335 190.34C476.634 190.362 475.757 190.383 474.705 190.383C473.128 190.351 472.273 190.362 472.163 190.425C472.043 190.478 472.558 190.531 473.697 190.595C474.925 190.68 475.735 190.828 476.152 191.062C476.59 191.285 476.294 191.444 475.275 191.529C474.771 191.444 474.311 191.571 473.873 191.91C473.577 192.133 473.632 192.25 474.048 192.25C475.067 192.473 474.267 192.568 471.637 192.547C470.958 192.547 470.191 192.557 469.314 192.589C468.46 192.642 467.715 192.738 467.079 192.886C466.52 192.992 465.896 193.098 465.194 193.183C464.493 193.268 463.879 193.279 463.353 193.226ZM418.165 157.456C416.379 157.859 414.571 158.304 412.73 158.814C410.889 159.302 409.815 159.652 409.53 159.874C409.498 159.906 409.728 160.002 410.232 160.171C410.758 160.341 412.16 160.755 414.439 161.402C416.193 161.975 417.924 162.484 419.655 162.929C421.375 163.386 422.438 163.64 422.855 163.693C422.91 163.64 423.26 163.683 423.907 163.821C424.575 163.969 425.331 164.149 426.186 164.372C427.347 164.627 428.816 164.86 430.569 165.051C432.322 165.221 434.042 165.38 435.741 165.518C437.461 165.666 438.732 165.709 439.554 165.645C440.748 165.56 442.184 165.21 443.849 164.584C445.515 163.937 446.589 163.333 447.093 162.76C447.619 162.282 447.892 161.816 447.925 161.359C447.98 160.914 447.816 160.203 447.443 159.238C446.917 157.997 445.876 157.159 444.331 156.734C442.775 156.31 440.102 156.077 436.31 156.013C429.177 155.96 423.129 156.437 418.165 157.456ZM449.196 191.019C450.533 191.019 450.95 190.956 450.424 190.85C449.898 190.733 448.627 190.637 446.61 190.553C443.893 190.404 443.433 190.436 445.252 190.637C445.92 190.744 446.632 190.818 447.399 190.85C448.155 190.871 448.758 190.934 449.196 191.019Z" fill="white"/>
<path d="M500.583 238.666C501.865 239.228 502.6 239.822 502.775 240.448C502.972 241.095 502.873 241.615 502.468 242.018C502.052 242.411 501.471 242.421 500.715 242.061C500.561 241.944 500.408 241.827 500.233 241.721C500.079 241.604 499.948 241.488 499.838 241.382C499.685 241.318 499.148 241.085 498.217 240.66C497.274 240.236 496.266 239.78 495.192 239.303C494.14 238.846 493.176 238.422 492.3 238.03C491.445 237.658 491.007 237.446 490.985 237.393C490.864 237.361 490.382 237.149 489.538 236.757C488.716 236.385 487.829 235.961 486.865 235.484C485.9 235.028 485.122 234.635 484.542 234.296C483.545 233.839 482.788 233.542 482.263 233.405C481.791 233.15 481.09 232.821 480.159 232.429C479.249 232.025 478.405 231.633 477.617 231.24C477.266 231.092 476.663 230.837 475.82 230.477C474.965 230.105 474.077 229.692 473.146 229.246C472.269 228.822 471.217 228.334 469.99 227.804C468.763 227.294 467.722 226.838 466.878 226.446C466.089 226.127 465.399 225.83 464.818 225.555C464.227 225.268 463.865 225.088 463.722 225.003C463.635 224.971 463.251 224.801 462.583 224.494C461.904 224.207 461.115 223.879 460.216 223.518C454.452 220.908 451.417 219.699 451.1 219.869C450.891 219.975 450.683 220.389 450.486 221.099C449.522 225.735 446.727 229.172 442.114 231.41C440.679 232.11 439.616 232.598 438.915 232.853C438.214 233.129 437.425 233.288 436.548 233.32C435.693 233.458 435.156 233.33 434.926 232.938C434.718 232.535 434.587 232.45 434.532 232.683C434.532 232.853 434.28 232.853 433.787 232.683C433.316 232.598 433.02 232.577 432.91 232.641C432.822 232.609 432.253 232.492 431.201 232.301C430.171 232.1 429.119 231.856 428.045 231.58C426.555 231.156 425.021 230.54 423.443 229.755C421.865 228.992 420.243 228.058 418.578 226.955C416.704 225.682 415.214 224.504 414.107 223.433C412.989 222.351 411.916 220.993 410.864 219.36C410.184 218.15 409.768 217.323 409.593 216.899C409.417 216.474 409.33 215.817 409.33 214.904C409.384 214.374 409.428 213.886 409.461 213.462C409.516 213.016 409.56 212.677 409.593 212.443C409.91 212.051 410.36 211.531 410.951 210.873C411.565 210.226 412.014 209.834 412.31 209.685C412.453 209.632 412.672 209.494 412.968 209.261C413.252 209.006 413.505 208.752 413.713 208.497C413.998 208.073 414.326 207.754 414.677 207.521C415.028 207.298 415.554 207.033 416.255 206.715C418.326 205.866 419.509 205.697 419.805 206.206C419.915 206.407 420.2 206.418 420.638 206.248C421.076 206.078 421.449 206.142 421.777 206.418C422.095 206.651 422.698 206.747 423.574 206.715C424.473 206.694 425.306 206.524 426.073 206.206C426.686 206.015 427.223 205.93 427.694 205.951C428.155 205.951 428.976 206.11 430.149 206.418C431.343 206.736 433.195 207.256 435.715 207.988C437.523 208.529 438.575 208.868 438.871 209.006C439.156 209.155 439.002 209.261 438.389 209.346C438.148 209.409 437.951 209.473 437.775 209.558C437.6 209.643 437.567 209.706 437.688 209.728C437.83 209.844 438.345 210.056 439.222 210.364C440.098 210.682 440.975 210.958 441.851 211.213C442.728 211.467 443.177 211.584 443.21 211.552C443.407 211.446 443.342 211.213 442.991 210.873C442.783 210.682 442.662 210.385 442.64 209.982C442.728 209.844 442.794 209.452 442.86 208.794C442.914 208.147 442.969 207.373 443.035 206.46C443.21 204.742 443.44 203.235 443.736 201.963C444.021 200.668 444.317 199.915 444.613 199.714C444.898 199.321 445.018 198.992 444.963 198.738C444.963 198.144 445.292 197.316 445.971 196.234C446.673 195.163 447.429 194.144 448.251 193.179C449.061 192.224 449.741 191.63 450.267 191.397C450.442 191.397 450.672 191.291 450.968 191.058C451.253 190.835 451.505 190.57 451.713 190.251C452.294 189.636 453.258 189 454.606 188.342C455.976 187.663 457.192 187.217 458.244 186.984C461.016 186.39 464.698 186.475 469.289 187.239C473.869 187.981 478.362 189.212 482.745 190.93C483.413 191.185 483.983 191.418 484.454 191.609C484.914 191.811 485.21 191.938 485.331 191.991C485.824 192.14 487.182 192.755 489.407 193.858C491.653 194.94 493.855 196.086 496.025 197.295C497.975 198.398 499.674 199.406 501.109 200.308C502.567 201.22 503.695 201.994 504.484 202.641C505.186 203.267 505.821 203.766 506.413 204.127C506.785 204.36 507.092 204.615 507.333 204.89C507.596 205.177 507.837 205.686 508.078 206.418C508.889 208.232 508.79 209.293 507.771 209.6C507.333 209.632 507.202 209.855 507.377 210.279C507.519 210.534 507.487 211.032 507.289 211.764C507.081 212.273 506.643 212.761 505.974 213.207C505.328 213.631 504.747 213.833 504.221 213.801C503.662 213.78 503.323 213.907 503.213 214.183C503.125 214.416 502.972 214.522 502.775 214.522C502.567 214.501 502.161 214.374 501.548 214.14C500.583 213.695 499.597 212.952 498.611 211.934C497.965 211.17 497.471 210.608 497.121 210.237C496.77 209.876 496.43 209.579 496.113 209.346C495.784 209.091 495.247 208.667 494.491 208.073C492.65 206.715 490.152 205.177 486.996 203.448C483.862 201.697 480.838 200.223 477.923 199.035C474.68 197.677 471.437 196.574 468.193 195.725C464.95 194.876 462.035 194.346 459.471 194.113C456.929 193.858 455 193.964 453.685 194.41C453.16 194.558 452.809 194.781 452.634 195.089C452.458 195.375 452.173 195.927 451.801 196.743C451.362 197.847 451.034 198.854 450.837 199.756C450.628 200.668 450.53 201.835 450.53 203.278C450.552 204.699 450.617 206.736 450.705 209.388C450.793 211.287 450.891 212.422 451.012 212.783C451.121 213.122 451.549 213.409 452.283 213.631C454.584 214.597 456.282 215.318 457.367 215.795C458.474 216.251 459.613 216.729 460.786 217.238C461.542 217.609 462.199 217.917 462.758 218.171C463.339 218.394 463.657 218.49 463.722 218.469C463.865 218.384 464.139 218.511 464.555 218.85C464.873 219.041 465.607 219.423 466.747 219.996C467.908 220.558 469.135 221.099 470.428 221.608C471.743 222.139 472.686 222.521 473.277 222.754C473.65 222.86 473.825 223.019 473.803 223.221C473.716 223.274 473.036 223.115 471.787 222.754C469.946 222.128 468.675 221.704 467.974 221.481C467.273 221.248 466.856 221.184 466.747 221.269C466.626 221.322 466.593 221.375 466.659 221.439C466.681 221.492 467.251 221.778 468.368 222.287C469.475 222.818 470.801 223.433 472.357 224.112C473.99 224.897 475.491 225.618 476.871 226.276C478.274 226.923 479.151 227.316 479.501 227.464C479.907 227.655 480.444 227.888 481.123 228.143C481.791 228.419 482.35 228.695 482.788 228.949C483.402 229.204 483.95 229.437 484.454 229.671C484.98 229.893 485.374 230.063 485.637 230.18C486.306 230.572 487.369 231.092 488.837 231.75C490.524 232.513 491.653 233.086 492.212 233.489C492.793 233.882 493.023 234.168 492.913 234.338C492.76 234.561 492.913 234.815 493.351 235.102C493.636 235.378 494.25 235.717 495.192 236.12C496.124 236.544 496.639 236.757 496.726 236.757C496.836 236.81 497.187 237.022 497.778 237.393C498.304 237.701 498.633 237.817 498.786 237.733C498.841 237.701 499.093 237.817 499.531 238.072C499.97 238.327 500.32 238.518 500.583 238.666ZM443.648 225.47L443.605 222.033C443.572 221.067 443.561 220.134 443.561 219.232C443.561 218.32 443.528 217.768 443.473 217.535L443.298 216.559L439.309 215.286C438.016 214.925 436.471 214.469 434.663 213.928C432.844 213.398 431.004 212.867 429.141 212.358C427.267 211.849 425.612 211.404 424.188 211C423.048 210.693 421.701 210.523 420.156 210.491C418.6 210.47 417.493 210.534 416.825 210.703C416.386 210.873 416.123 211.032 416.036 211.17C415.948 211.287 415.926 211.531 415.992 211.892C416.189 213.228 417.219 214.936 419.06 217.026C419.937 218.076 420.999 219.116 422.26 220.166C423.509 221.205 424.418 221.842 424.977 222.075C425.503 222.213 426.029 222.606 426.555 223.263C427.103 223.963 427.705 224.218 428.352 224.027C428.702 223.942 429.239 223.953 429.974 224.069C430.697 224.207 431.683 224.43 432.91 224.748C434.861 225.258 436.734 225.576 438.52 225.724C440.328 225.894 441.687 225.862 442.597 225.639L443.648 225.47Z" fill="white"/>
</svg>
