<svg width="224" height="130" viewBox="0 0 224 130" fill="none" xmlns="http://www.w3.org/2000/svg">
<path d="M15.1412 11.5082C14.9001 10.999 14.7467 10.4686 14.6591 9.8958C14.5933 9.33357 14.5714 8.78196 14.5714 8.24095C14.5714 7.88028 14.5714 7.47718 14.5714 7.05286C14.5933 6.60733 14.6591 6.22544 14.7467 5.9072C14.8344 5.34498 14.9878 4.7085 15.2288 3.99777C15.4918 3.29765 15.7658 2.59752 16.0616 1.91861C16.3794 1.2397 16.6314 0.719912 16.8067 0.348633C17.2998 0.348633 17.8258 0.369847 18.3846 0.391065C18.9325 0.391065 19.4475 0.391065 19.9186 0.391065C19.8529 0.539575 19.7214 0.847208 19.5242 1.32456C19.3488 1.78071 19.1406 2.28989 18.9105 2.85211C18.6695 3.42494 18.4832 3.94473 18.3408 4.42209C18.1874 4.91006 18.1216 5.20708 18.1216 5.31316C18.1216 5.42985 18.1435 5.56775 18.2093 5.73748C18.2969 5.9072 18.3627 6.05571 18.4284 6.16179C19.0092 6.3103 19.5242 6.49064 19.9625 6.71341C20.4008 6.91496 20.6199 7.3711 20.6199 8.07123C20.6199 8.6971 20.5322 9.33357 20.3569 9.98066C20.1816 10.6384 19.9296 11.243 19.6118 11.8052C19.3488 11.8371 19.0639 11.8689 18.7791 11.8901C18.5161 11.8901 18.2531 11.8901 17.9901 11.8901C17.4861 11.8901 17.0039 11.8689 16.5437 11.8052C16.0726 11.7204 15.6014 11.6249 15.1412 11.5082ZM7.12032 11.5082C6.87926 10.999 6.72586 10.4686 6.6382 9.8958C6.57245 9.33357 6.55054 8.78196 6.55054 8.24095C6.55054 7.88028 6.55054 7.47718 6.55054 7.05286C6.57245 6.60733 6.6382 6.22544 6.72586 5.9072C6.83543 5.34498 7.01075 4.7085 7.25181 3.99777C7.48192 3.29765 7.7449 2.59752 8.04075 1.91861C8.35852 1.2397 8.61054 0.719912 8.78586 0.348633C9.27894 0.348633 9.8049 0.369847 10.3637 0.391065C10.9116 0.391065 11.4266 0.391065 11.8978 0.391065C11.832 0.539575 11.7005 0.847208 11.5033 1.32456C11.328 1.78071 11.1198 2.28989 10.8897 2.85211C10.6486 3.42494 10.4623 3.94473 10.3199 4.42209C10.1665 4.91006 10.1008 5.20708 10.1008 5.31316C10.1008 5.42985 10.1227 5.56775 10.1884 5.73748C10.2761 5.9072 10.3418 6.05571 10.4076 6.16179C10.9883 6.3103 11.5033 6.49064 11.9416 6.71341C12.3799 6.91496 12.5991 7.3711 12.5991 8.07123C12.5991 8.6971 12.5114 9.33357 12.3361 9.98066C12.1608 10.6384 11.9087 11.243 11.591 11.8052C11.328 11.8371 11.0431 11.8689 10.7582 11.8901C10.4952 11.8901 10.2322 11.8901 9.96926 11.8901C9.46522 11.8901 8.98309 11.8689 8.52288 11.8052C8.05171 11.7204 7.58054 11.6249 7.12032 11.5082Z" fill="#274C77"/>
<path d="M41.5117 17.2365V8.19847C41.5117 7.66808 41.4678 6.99978 41.3802 6.20418C41.3144 5.41919 41.2925 4.65542 41.2925 3.91286C41.3144 3.14909 41.424 2.51261 41.5993 2.00343C41.7966 1.49425 42.1801 1.26087 42.7389 1.28209L43.8346 1.36695L47.5602 1.40938C47.615 2.49139 47.6917 3.59462 47.7793 4.71906C47.867 5.82229 47.9108 6.94674 47.9108 8.07118C47.9108 9.57751 47.9218 11.2005 47.9547 12.9508C47.9766 14.6799 47.9218 16.4196 47.7793 18.17C47.6588 19.8991 47.3849 21.5645 46.9466 23.1769C46.5302 24.7681 45.9056 26.179 45.0619 27.4201C44.2072 28.6718 43.0567 29.6478 41.5993 30.3479C40.131 31.048 38.3121 31.4087 36.1206 31.4087C33.7209 31.4087 31.7815 30.995 30.2912 30.1782C28.8229 29.3614 27.6834 28.2475 26.8725 26.826C26.0836 25.4152 25.5247 23.8346 25.207 22.0737C24.9111 20.2915 24.7468 18.4458 24.7249 16.5151C24.7249 14.5951 24.7687 12.6962 24.8563 10.8292C24.9659 8.96225 25.0317 7.25437 25.0317 5.695C25.0317 4.99487 25.0317 4.28414 25.0317 3.57341C25.0317 2.87328 25.0536 2.16255 25.1193 1.45181L26.8725 1.36695H29.59L31.2555 1.45181L31.2993 3.14909C31.2993 3.94468 31.2336 5.0373 31.124 6.41634C31.0363 7.80598 30.9596 9.33353 30.9049 10.999C30.872 12.675 30.9049 14.3405 30.9925 16.0059C31.1021 17.682 31.3541 19.2201 31.7376 20.631C32.1102 22.0206 32.68 23.1345 33.447 23.9831C34.203 24.8318 35.2002 25.2561 36.4274 25.2561C37.567 25.2561 38.4655 25.0227 39.1449 24.5347C39.8461 24.0255 40.3502 23.3785 40.6789 22.5829C41.0295 21.7661 41.2487 20.8856 41.3363 19.9521C41.4459 19.0186 41.5117 18.1169 41.5117 17.2365Z" fill="#274C77"/>
<path d="M78.2472 30.8993L75.4859 30.9417C74.3682 30.9417 73.2506 30.9311 72.111 30.8993C70.9714 30.8462 69.8318 30.7614 68.6923 30.6447C66.9391 27.335 65.2845 24.0677 63.7395 20.8429C62.2164 17.6181 61.0001 14.2023 60.1016 10.5744H59.8386L59.7948 16.0057C59.7948 18.4455 59.8496 20.9172 59.9701 23.4313C60.0797 25.9241 60.0249 28.3958 59.7948 30.8568C59.2908 30.9417 58.8086 30.9841 58.3484 30.9841H54.0093L53.3518 30.9417C53.319 29.7324 53.2751 28.5125 53.2203 27.2925C53.1875 26.0832 53.1765 24.8527 53.1765 23.601V10.2774C53.1765 8.81349 53.1765 7.33898 53.1765 5.86447C53.1984 4.36875 53.2423 2.88364 53.308 1.40913L55.9816 1.3667H59.1374C59.6633 1.3667 60.1893 1.40913 60.7152 1.49399C61.2412 1.57886 61.7672 1.65311 62.2931 1.70615C63.7833 5.21739 65.3831 8.73923 67.1144 12.2717C68.8347 15.8147 70.2701 19.3578 71.4097 22.9221H71.7165C71.7384 21.9037 71.7713 20.8747 71.8042 19.8245C71.859 18.785 71.8918 17.7454 71.8918 16.727C71.8918 14.2129 71.8261 11.6989 71.7165 9.17416C71.596 6.62825 71.6069 4.10355 71.7604 1.57886C72.2206 1.49399 72.7356 1.44096 73.2944 1.40913C73.8423 1.38791 74.3573 1.3667 74.8284 1.3667C75.3544 1.3667 75.8804 1.38791 76.4063 1.40913C76.9542 1.40913 77.5021 1.45156 78.028 1.53643C78.3787 5.33408 78.5101 9.25902 78.4225 13.3325C78.3348 17.4059 78.291 21.3733 78.291 25.2134C78.291 26.1469 78.291 27.1016 78.291 28.0563C78.291 29.0216 78.2691 29.9658 78.2472 30.8993Z" fill="#274C77"/>
<path d="M90.697 30.9417L89.8643 30.9841H85.2622C85.0868 30.9841 84.8896 30.9735 84.6924 30.9417C84.517 30.9205 84.3417 30.8886 84.1664 30.8568C84.1007 30.2097 84.0568 29.5733 84.0349 28.9474C84.002 28.3321 83.9911 27.6957 83.9911 27.038V5.56745C83.9911 4.88854 84.002 4.23085 84.0349 3.57315C84.0897 2.89425 84.1335 2.21534 84.1664 1.53643C84.7143 1.48339 85.2622 1.44096 85.7881 1.40913C86.336 1.38791 86.8839 1.3667 87.4098 1.3667L90.2588 1.45156C90.3683 1.45156 90.4998 1.48339 90.6532 1.53643C90.8285 1.60008 90.9162 1.62129 90.9162 1.62129C90.9162 6.37366 90.9272 11.2745 90.96 16.3027C90.9819 21.3097 90.8943 26.1893 90.697 30.9417Z" fill="#274C77"/>
<path d="M96.7862 30.8571L96.7424 29.0325V15.5817C96.7424 14.0859 96.6985 12.516 96.6109 10.8717C96.5232 9.2381 96.5013 7.62569 96.567 6.03449C96.6218 4.42208 96.8738 2.91575 97.3121 1.49429L103.536 1.40942C107.448 1.40942 110.702 1.87617 113.31 2.80967C115.907 3.74317 117.846 5.3768 119.139 7.68933C120.421 10.0125 121.068 13.2691 121.068 17.4487C121.068 19.9733 120.695 22.0525 119.972 23.6861C119.238 25.3304 118.219 26.6564 116.904 27.6747C115.611 28.6719 114.121 29.4144 112.433 29.9236C110.735 30.4116 108.894 30.7192 106.911 30.8571C104.949 30.995 102.944 31.0693 100.906 31.0693C100.227 31.0693 99.5475 31.0481 98.8462 31.0268C98.1668 31.0268 97.4875 30.9738 96.7862 30.8571ZM103.755 25.1288C104.106 25.2455 104.456 25.2985 104.807 25.2985C105.158 25.2985 105.508 25.2985 105.859 25.2985C108.719 25.2985 110.856 24.5348 112.258 23.0072C113.683 21.4797 114.406 19.3581 114.406 16.6425C114.406 14.2981 114.099 12.4417 113.485 11.0839C112.894 9.72606 111.918 8.78196 110.549 8.24095C109.201 7.67873 107.36 7.39231 105.026 7.39231C104.818 7.39231 104.599 7.39231 104.369 7.39231C104.161 7.39231 103.952 7.42414 103.755 7.47718C103.514 10.1398 103.426 12.8554 103.492 15.6241C103.58 18.3715 103.624 21.0872 103.624 23.771C103.624 24.2271 103.667 24.6833 103.755 25.1288Z" fill="#274C77"/>
<path d="M147.037 31.0692H142.391C141.865 31.0692 141.317 31.0267 140.769 30.9419C140.473 29.7538 140.178 28.5445 139.893 27.2927C139.597 26.0516 139.29 24.8211 138.972 23.6012H135.86C134.217 23.6012 132.551 23.6648 130.864 23.7709C130.393 26.1259 129.812 28.5021 129.111 30.8994L127.533 30.9843H124.64C124.289 30.9843 123.917 30.9737 123.544 30.9419C123.194 30.8888 122.854 30.8464 122.536 30.8146C123.062 27.6746 123.774 24.4498 124.684 21.1401C125.615 17.8304 126.579 14.5102 127.577 11.1686C128.596 7.80593 129.472 4.5705 130.206 1.45176C130.699 1.43054 131.214 1.39872 131.74 1.36689C132.266 1.34568 132.792 1.32446 133.318 1.32446C134.545 1.32446 135.784 1.32446 137.044 1.32446C138.293 1.32446 139.542 1.35629 140.769 1.40933C140.999 2.1731 141.295 3.33997 141.646 4.88874C142.018 6.41628 142.446 8.18781 142.917 10.1927C143.41 12.1764 143.892 14.2131 144.363 16.3029C144.856 18.3715 145.306 20.3657 145.722 22.2858C146.128 24.1846 146.467 25.8288 146.73 27.2079C146.993 28.5657 147.125 29.4886 147.125 29.966L147.037 31.0692ZM133.8 18.0002H134.458C135.039 18.0002 135.685 18.0002 136.386 18.0002C137.088 18.0002 137.712 17.9471 138.271 17.8304C138.183 16.8757 138.019 15.921 137.789 14.9875C137.581 14.054 137.394 13.1205 137.219 12.187C137.011 11.1156 136.868 10.267 136.781 9.6411C136.693 8.99402 136.562 8.53787 136.386 8.28328C136.233 8.00747 135.926 7.85896 135.466 7.85896C135.345 7.85896 135.225 7.85896 135.115 7.85896C134.995 7.85896 134.874 7.88018 134.765 7.9014C134.469 9.59867 134.03 11.2747 133.45 12.9084C132.858 14.5526 132.496 16.2393 132.354 17.9577C132.584 17.9896 132.814 18.0002 133.055 18.0002C133.318 18.0002 133.559 18.0002 133.8 18.0002Z" fill="#274C77"/>
<path d="M150.361 30.8571L150.317 29.0325V15.5817C150.317 14.0859 150.273 12.516 150.186 10.8717C150.098 9.2381 150.076 7.62569 150.142 6.03449C150.197 4.42208 150.449 2.91575 150.887 1.49429L157.111 1.40942C161.023 1.40942 164.277 1.87617 166.885 2.80967C169.482 3.74317 171.421 5.3768 172.714 7.68933C173.996 10.0125 174.643 13.2691 174.643 17.4487C174.643 19.9733 174.27 22.0525 173.547 23.6861C172.813 25.3304 171.794 26.6564 170.479 27.6747C169.186 28.6719 167.696 29.4144 166.008 29.9236C164.31 30.4116 162.469 30.7192 160.486 30.8571C158.524 30.995 156.519 31.0693 154.481 31.0693C153.802 31.0693 153.122 31.0481 152.421 31.0268C151.742 31.0268 151.062 30.9738 150.361 30.8571ZM157.33 25.1288C157.681 25.2455 158.031 25.2985 158.382 25.2985C158.733 25.2985 159.083 25.2985 159.434 25.2985C162.294 25.2985 164.43 24.5348 165.833 23.0072C167.257 21.4797 167.981 19.3581 167.981 16.6425C167.981 14.2981 167.674 12.4417 167.06 11.0839C166.468 9.72606 165.493 8.78196 164.124 8.24095C162.776 7.67873 160.935 7.39231 158.601 7.39231C158.393 7.39231 158.174 7.39231 157.944 7.39231C157.735 7.39231 157.527 7.42414 157.33 7.47718C157.089 10.1398 157.001 12.8554 157.067 15.6241C157.155 18.3715 157.198 21.0872 157.198 23.771C157.198 24.2271 157.242 24.6833 157.33 25.1288Z" fill="#274C77"/>
<path d="M198.464 31.0268H191.495C189.534 31.0268 187.441 31.0693 185.228 31.1541C183.036 31.2602 180.998 31.1541 179.135 30.8147C178.927 28.9477 178.796 26.9322 178.741 24.7469C178.675 22.5723 178.675 20.3552 178.741 18.0851C178.796 15.8256 178.85 13.5874 178.916 11.3809C178.971 9.15323 179.004 7.04225 179.004 5.05856L179.091 1.53672C179.705 1.48368 180.297 1.45186 180.888 1.45186C181.502 1.43064 182.116 1.40942 182.729 1.40942H196.492L198.639 1.49429C198.749 2.37475 198.815 3.26582 198.815 4.16749C198.815 4.5706 198.815 4.9737 198.815 5.39802C198.815 5.82233 198.771 6.24665 198.683 6.67097C198.3 6.7028 197.894 6.74523 197.456 6.79827C197.04 6.83009 196.645 6.8407 196.273 6.8407C194.454 6.8407 192.646 6.81948 190.838 6.75583C189.019 6.7028 187.222 6.79827 185.447 7.05286C185.414 7.33927 185.381 7.62569 185.359 7.90149C185.359 8.18791 185.359 8.47433 185.359 8.75013L185.403 13.163C187.003 13.3116 188.57 13.354 190.093 13.2903C191.638 13.2055 193.38 13.163 195.308 13.163C195.363 13.163 195.418 13.2691 195.484 13.4601C195.538 13.6298 195.582 13.8313 195.615 14.0541L195.352 17.7457C195.352 18.0321 195.067 18.2018 194.519 18.2549C193.961 18.3185 193.424 18.3397 192.898 18.3397C191.692 18.3397 190.454 18.3397 189.172 18.3397C187.879 18.3185 186.641 18.3397 185.447 18.4246L185.359 20.8008V24.7469C185.907 25.0864 186.74 25.2985 187.857 25.3834C188.964 25.4471 190.158 25.4577 191.451 25.4258C192.766 25.3728 194.037 25.3198 195.265 25.2561C196.514 25.2031 197.598 25.2137 198.508 25.2985C198.596 25.7547 198.65 26.232 198.683 26.7412C198.705 27.2292 198.727 27.7172 198.727 28.2263C198.727 28.6825 198.694 29.1492 198.639 29.6266C198.574 30.1146 198.519 30.5813 198.464 31.0268Z" fill="#274C77"/>
<path d="M202.239 35.6944C202.327 35.5247 202.513 35.164 202.809 34.6336C203.094 34.0926 203.379 33.5516 203.642 33.0212C203.905 32.512 204.036 32.1938 204.036 32.0877C204.036 31.971 203.992 31.8119 203.905 31.6209C203.839 31.4512 203.784 31.3027 203.729 31.1966C203.138 31.0481 202.633 30.889 202.195 30.6874C201.757 30.4965 201.538 30.0403 201.538 29.3296C201.538 28.6825 201.603 28.046 201.757 27.4202C201.932 26.7731 202.195 26.1684 202.546 25.5956C202.809 25.5744 203.072 25.5532 203.335 25.5532C203.62 25.532 203.905 25.5107 204.168 25.5107C204.661 25.5107 205.143 25.5426 205.614 25.5956C206.074 25.6593 206.545 25.7441 207.016 25.8502C207.247 26.3912 207.389 26.9322 207.455 27.4626C207.51 28.0036 207.542 28.5658 207.542 29.1599C207.542 29.4993 207.52 29.9024 207.499 30.348C207.499 30.7723 207.455 31.133 207.367 31.4512C207.247 31.8755 206.973 32.3529 206.534 32.8939C206.118 33.4561 205.669 33.9971 205.176 34.5063C204.704 35.0155 204.31 35.4186 203.992 35.7368C203.696 35.7368 203.4 35.7156 203.116 35.6944C202.82 35.6944 202.524 35.6944 202.239 35.6944Z" fill="#274C77"/>
<path d="M0.48746 53.6471L0.575119 50.7618C1.21065 50.7087 1.8681 50.6663 2.54746 50.6345C3.21586 50.6133 3.87331 50.592 4.5198 50.592C5.15533 50.592 5.79087 50.6345 6.40448 50.7193C6.66746 53.3501 6.79895 56.0233 6.79895 58.739C6.79895 61.4334 6.79895 64.0854 6.79895 66.7161C6.79895 67.9679 6.79895 69.2196 6.79895 70.4926C6.82087 71.7443 6.85374 73.0173 6.88661 74.3114C8.9247 74.3963 10.9737 74.4175 13.0228 74.3539C15.0937 74.3008 17.1537 74.3751 19.2028 74.566C19.3124 75.1389 19.3891 75.8178 19.4219 76.6028C19.4767 77.3984 19.5096 78.0879 19.5096 78.6819C19.5096 79.1381 19.4658 79.6154 19.3781 80.1246C18.4686 80.2095 17.5592 80.2519 16.6607 80.2519C13.998 80.2519 11.3244 80.2519 8.6398 80.2519C5.97714 80.2731 3.31448 80.1882 0.662779 79.9549C0.3998 77.1013 0.268311 74.2054 0.268311 71.2563C0.268311 68.2861 0.290227 65.3159 0.35597 62.3457C0.44363 59.3754 0.48746 56.4795 0.48746 53.6471Z" fill="#274C77"/>
<path d="M28.695 80.167L27.8622 80.2095H23.2601C23.0848 80.2095 22.8875 80.1989 22.6903 80.167C22.515 80.1458 22.3397 80.114 22.1643 80.0822C22.0986 79.4351 22.0548 78.7986 22.0328 78.1727C22 77.5575 21.989 76.921 21.989 76.2633V54.7928C21.989 54.1139 22 53.4562 22.0328 52.7985C22.0876 52.1196 22.1315 51.4407 22.1643 50.7618C22.7122 50.7087 23.2601 50.6663 23.786 50.6345C24.3339 50.6133 24.8818 50.592 25.4077 50.592L28.2567 50.6769C28.3663 50.6769 28.4977 50.7087 28.6511 50.7618C28.8265 50.8254 28.9141 50.8466 28.9141 50.8466C28.9141 55.599 28.9251 60.4999 28.958 65.528C28.9799 70.535 28.8922 75.4147 28.695 80.167Z" fill="#274C77"/>
<path d="M51.8778 63.746L51.9655 64.1704C53.3023 64.9129 54.3981 65.804 55.2527 66.8436C56.1293 67.8619 56.5676 69.1667 56.5676 70.7473C56.5676 72.9325 56.1403 74.6722 55.2966 75.9664C54.4748 77.2712 53.3681 78.2365 51.9655 78.8518C50.5849 79.4776 49.0399 79.8914 47.3196 80.0823C45.6211 80.252 43.8789 80.3157 42.1038 80.2945C40.3506 80.2626 38.6632 80.252 37.0634 80.252C36.4169 80.252 35.9019 80.2308 35.5293 80.2096C35.1458 80.1884 34.8719 80.0399 34.6966 79.7853C34.5432 79.5307 34.4774 79.0852 34.4774 78.4275V52.2895C34.4774 51.6105 34.7952 51.1438 35.4417 50.8892C36.0772 50.6346 36.8661 50.5073 37.8085 50.5073C38.7727 50.4861 39.7041 50.4967 40.6136 50.5497C41.5121 50.6134 42.2462 50.6346 42.8051 50.6346C44.1419 50.6346 45.5335 50.7195 46.9689 50.8892C48.3934 51.0377 49.6973 51.3453 50.8698 51.8227C52.0313 52.3107 52.9846 53.0532 53.7187 54.0716C54.4419 55.0687 54.8144 56.4266 54.8144 58.145C54.8144 59.2483 54.5515 60.3091 54.0255 61.3274C53.4996 62.3246 52.7764 63.1308 51.8778 63.746ZM40.7012 74.948C40.8766 75.1814 41.1395 75.2875 41.4902 75.2875C42.3339 75.2875 43.2215 75.2769 44.1638 75.2451C45.1281 75.192 46.0266 75.0329 46.8813 74.7783C47.725 74.5237 48.4153 74.0994 48.9413 73.5054C49.4672 72.8901 49.7302 72.0415 49.7302 70.9595C49.7302 70.026 49.4343 69.3258 48.8536 68.8379C48.2619 68.3287 47.5387 67.9786 46.6621 67.7771C45.7855 67.5861 44.876 67.4694 43.9447 67.4376C43.0352 67.4164 42.2462 67.3952 41.5778 67.3952C41.1943 67.3952 40.9314 67.48 40.7889 67.6498C40.6355 67.7983 40.5698 68.0529 40.5698 68.4135C40.5698 69.4956 40.5807 70.5776 40.6136 71.6808C40.6684 72.7628 40.7012 73.8448 40.7012 74.948ZM41.4464 62.0488H44.12C45.2815 62.0488 46.3224 61.8366 47.2319 61.4123C48.1633 60.9668 48.6344 60.0863 48.6344 58.7815C48.6344 57.7101 48.2948 56.9145 47.6264 56.4053C46.9799 55.8749 46.18 55.5355 45.2157 55.387C44.2734 55.2491 43.3749 55.1748 42.4983 55.1748C41.9394 55.1748 41.5011 55.2066 41.1834 55.2597C40.8547 55.3233 40.7012 55.6628 40.7012 56.278C40.7012 56.9357 40.6793 57.5722 40.6574 58.1875C40.6574 58.8133 40.6574 59.4498 40.6574 60.0969V61.6669C40.6574 61.7836 40.756 61.879 40.9642 61.9639C41.1943 62.0276 41.3587 62.0488 41.4464 62.0488Z" fill="#274C77"/>
<path d="M80.1723 80.2517H73.2033C71.2419 80.2517 69.1491 80.2941 66.9357 80.379C64.7442 80.4851 62.7061 80.379 60.8433 80.0395C60.6351 78.1725 60.5036 76.157 60.4488 73.9718C60.3831 71.7972 60.3831 69.5801 60.4488 67.31C60.5036 65.0505 60.5584 62.8122 60.6242 60.6058C60.6789 58.3781 60.7118 56.2671 60.7118 54.2834L60.7995 50.7616C61.4131 50.7085 62.0048 50.6767 62.5965 50.6767C63.2101 50.6555 63.8237 50.6343 64.4374 50.6343H78.1999L80.3476 50.7191C80.4572 51.5996 80.5229 52.4907 80.5229 53.3923C80.5229 53.7955 80.5229 54.1986 80.5229 54.6229C80.5229 55.0472 80.4791 55.4715 80.3914 55.8958C80.0079 55.9276 79.6025 55.9701 79.1642 56.0231C78.7478 56.0549 78.3533 56.0656 77.9808 56.0656C76.1618 56.0656 74.3538 56.0443 72.5459 55.9807C70.7269 55.9276 68.9299 56.0231 67.1548 56.2777C67.1219 56.5641 67.0891 56.8505 67.0671 57.1263C67.0671 57.4128 67.0671 57.6992 67.0671 57.975L67.111 62.3879C68.7108 62.5364 70.2777 62.5788 71.8008 62.5152C73.3458 62.4303 75.088 62.3879 77.0165 62.3879C77.0713 62.3879 77.1261 62.494 77.1918 62.6849C77.2466 62.8546 77.2904 63.0562 77.3233 63.279L77.0603 66.9705C77.0603 67.2569 76.7754 67.4267 76.2276 67.4797C75.6687 67.5434 75.1318 67.5646 74.6059 67.5646C73.4005 67.5646 72.1624 67.5646 70.8803 67.5646C69.5874 67.5434 68.3492 67.5646 67.1548 67.6494L67.0671 70.0256V73.9718C67.615 74.3112 68.4478 74.5234 69.5654 74.6083C70.6721 74.6719 71.8665 74.6825 73.1595 74.6507C74.4744 74.5977 75.7454 74.5446 76.9727 74.481C78.2218 74.4279 79.3066 74.4385 80.2161 74.5234C80.3037 74.9795 80.3585 75.4569 80.3914 75.9661C80.4133 76.454 80.4352 76.942 80.4352 77.4512C80.4352 77.9073 80.4024 78.3741 80.3476 78.8514C80.2818 79.3394 80.227 79.8062 80.1723 80.2517Z" fill="#274C77"/>
<path d="M109.544 74.4387L109.719 74.7782C109.807 75.5738 109.916 76.3694 110.07 77.1544C110.245 77.9181 110.333 78.6819 110.333 79.4457C110.333 79.9018 110.048 80.2094 109.5 80.3792C108.974 80.5489 108.371 80.6444 107.703 80.6762C107.056 80.6974 106.563 80.7186 106.213 80.7186C104.569 80.7186 103.167 80.3367 102.005 79.573C100.833 78.8092 99.8355 77.7802 99.0247 76.4754C98.2029 75.1494 97.4906 73.7068 96.877 72.1474L95.8689 69.3045C95.5183 69.1135 95.1348 69.0074 94.7293 69.0074C94.3458 68.9862 93.9514 68.965 93.5459 68.965C93.1624 68.965 92.7789 68.965 92.4064 68.965C92.0228 68.965 91.6613 68.9968 91.3106 69.0499C91.2777 69.4742 91.2449 69.9197 91.223 70.3653C91.223 70.8214 91.223 71.2775 91.223 71.7231C91.2449 73.0597 91.2887 74.4281 91.3544 75.839C91.4092 77.2286 91.3654 78.6182 91.223 79.9973C90.4559 80.114 89.7327 80.1882 89.0315 80.2094C88.3302 80.2625 87.596 80.2943 86.84 80.2943L84.9553 80.2519C84.8348 80.0609 84.7361 79.4881 84.6485 78.5546C84.5608 77.6211 84.4841 76.4542 84.4293 75.0328C84.3965 73.5901 84.3636 72.0413 84.3417 70.3653C84.3417 68.668 84.3417 66.9601 84.3417 65.231C84.3636 63.5125 84.3855 61.8683 84.3855 60.3089C84.3855 58.7601 84.3855 57.4129 84.3855 56.2779C84.4074 55.1216 84.4293 54.273 84.4293 53.732C84.4293 53.2546 84.4293 52.756 84.4293 52.2469C84.4512 51.7165 84.517 51.2179 84.6047 50.7618C85.5689 50.592 86.5551 50.5284 87.5851 50.5496C88.637 50.5814 89.6232 50.592 90.5655 50.592C91.99 50.592 93.4802 50.6238 95.0361 50.6769C96.5811 50.7405 98.0823 50.9103 99.5506 51.1861C101.041 51.4725 102.356 51.9498 103.495 52.6288C104.657 53.3077 105.599 54.2412 106.3 55.4293C107.002 56.5961 107.352 58.1025 107.352 59.9695C107.352 61.8365 106.892 63.3852 105.994 64.5945C105.084 65.8144 103.714 66.9707 101.874 68.0739C102.158 69.0923 102.619 70.1319 103.232 71.1715C103.846 72.1898 104.525 73.0385 105.292 73.7174C106.048 74.3963 106.761 74.7251 107.44 74.6933C107.703 74.6721 107.988 74.6721 108.317 74.6933C108.667 74.6933 109.073 74.6084 109.544 74.4387ZM91.223 61.2V63.7883C91.3325 63.9368 91.4859 64.0323 91.6613 64.0853C91.8366 64.149 92.0228 64.1702 92.231 64.1702C93.0419 64.1702 93.9404 64.1596 94.9047 64.1278C95.8908 64.1066 96.8332 63.9793 97.7098 63.7459C98.5864 63.4913 99.2986 63.0882 99.8574 62.5154C100.438 61.9213 100.734 61.0939 100.734 60.0119C100.734 58.9723 100.449 58.1661 99.9013 57.5933C99.3753 57.0311 98.674 56.6492 97.7974 56.4476C96.9427 56.2249 96.0552 56.0976 95.1238 56.0657C94.1815 56.0445 93.3268 56.0233 92.5378 56.0233C91.7708 56.0233 91.3654 56.193 91.3106 56.5325C91.2777 56.8507 91.2668 57.2963 91.2668 57.8903C91.2668 58.4631 91.2449 59.0254 91.223 59.5876C91.223 60.1286 91.223 60.6696 91.223 61.2Z" fill="#274C77"/>
<path d="M112.884 80.082L112.84 78.2574V64.8065C112.84 63.3108 112.796 61.7408 112.709 60.0966C112.621 58.463 112.599 56.8505 112.665 55.2593C112.719 53.6469 112.972 52.1406 113.41 50.7191L119.634 50.6343C123.545 50.6343 126.8 51.101 129.408 52.0345C132.005 52.968 133.944 54.6017 135.237 56.9142C136.519 59.2373 137.166 62.494 137.166 66.6735C137.166 69.1982 136.793 71.2774 136.07 72.911C135.336 74.5552 134.317 75.8812 133.002 76.8996C131.709 77.8967 130.219 78.6393 128.531 79.1485C126.833 79.6364 124.992 79.9441 123.009 80.082C121.047 80.2199 119.042 80.2941 117.004 80.2941C116.324 80.2941 115.645 80.2729 114.944 80.2517C114.264 80.2517 113.585 80.1987 112.884 80.082ZM119.853 74.3537C120.203 74.4704 120.554 74.5234 120.905 74.5234C121.255 74.5234 121.606 74.5234 121.957 74.5234C124.817 74.5234 126.953 73.7596 128.356 72.2321C129.78 70.7045 130.503 68.5829 130.503 65.8673C130.503 63.5229 130.197 61.6666 129.583 60.3087C128.991 58.9509 128.016 58.0068 126.646 57.4658C125.299 56.9036 123.458 56.6172 121.124 56.6172C120.916 56.6172 120.697 56.6172 120.466 56.6172C120.258 56.6172 120.05 56.649 119.853 56.702C119.612 59.3646 119.524 62.0803 119.59 64.8489C119.677 67.5964 119.721 70.312 119.721 72.9959C119.721 73.452 119.765 73.9081 119.853 74.3537Z" fill="#274C77"/>
<path d="M163.135 80.2945H158.489C157.963 80.2945 157.415 80.2521 156.867 80.1672C156.571 78.9791 156.275 77.7698 155.99 76.5181C155.694 75.277 155.388 74.0464 155.07 72.8265H151.958C150.314 72.8265 148.649 72.8902 146.961 72.9962C146.49 75.3512 145.909 77.7274 145.208 80.1248L143.63 80.2097H140.737C140.387 80.2097 140.014 80.199 139.642 80.1672C139.291 80.1142 138.951 80.0718 138.634 80.0399C139.16 76.9 139.872 73.6752 140.781 70.3655C141.713 67.0558 142.677 63.7355 143.674 60.394C144.693 57.0313 145.57 53.7958 146.304 50.6771C146.797 50.6559 147.312 50.6241 147.838 50.5922C148.364 50.571 148.89 50.5498 149.416 50.5498C150.643 50.5498 151.881 50.5498 153.141 50.5498C154.39 50.5498 155.64 50.5816 156.867 50.6347C157.097 51.3984 157.393 52.5653 157.743 54.1141C158.116 55.6416 158.543 57.4132 159.015 59.4181C159.508 61.4017 159.99 63.4385 160.461 65.5282C160.954 67.5968 161.403 69.5911 161.82 71.5111C162.225 73.41 162.565 75.0542 162.828 76.4332C163.091 77.791 163.222 78.7139 163.222 79.1913L163.135 80.2945ZM149.898 67.2255H150.555C151.136 67.2255 151.783 67.2255 152.484 67.2255C153.185 67.2255 153.81 67.1725 154.369 67.0558C154.281 66.1011 154.117 65.1464 153.886 64.2129C153.678 63.2794 153.492 62.3459 153.317 61.4124C153.108 60.341 152.966 59.4923 152.878 58.8664C152.791 58.2194 152.659 57.7632 152.484 57.5086C152.33 57.2328 152.024 57.0843 151.563 57.0843C151.443 57.0843 151.322 57.0843 151.213 57.0843C151.092 57.0843 150.972 57.1055 150.862 57.1267C150.566 58.824 150.128 60.5001 149.547 62.1337C148.956 63.7779 148.594 65.4646 148.452 67.1831C148.682 67.2149 148.912 67.2255 149.153 67.2255C149.416 67.2255 149.657 67.2255 149.898 67.2255Z" fill="#274C77"/>
<path d="M166.459 80.082L166.415 78.2574V64.8065C166.415 63.3108 166.371 61.7408 166.283 60.0966C166.196 58.463 166.174 56.8505 166.24 55.2593C166.294 53.6469 166.546 52.1406 166.985 50.7191L173.208 50.6343C177.12 50.6343 180.375 51.101 182.983 52.0345C185.579 52.968 187.519 54.6017 188.812 56.9142C190.094 59.2373 190.74 62.494 190.74 66.6735C190.74 69.1982 190.368 71.2774 189.645 72.911C188.91 74.5552 187.891 75.8812 186.577 76.8996C185.284 77.8967 183.793 78.6393 182.106 79.1485C180.408 79.6364 178.567 79.9441 176.583 80.082C174.622 80.2199 172.617 80.2941 170.579 80.2941C169.899 80.2941 169.22 80.2729 168.519 80.2517C167.839 80.2517 167.16 80.1987 166.459 80.082ZM173.428 74.3537C173.778 74.4704 174.129 74.5234 174.48 74.5234C174.83 74.5234 175.181 74.5234 175.531 74.5234C178.391 74.5234 180.528 73.7596 181.931 72.2321C183.355 70.7045 184.078 68.5829 184.078 65.8673C184.078 63.5229 183.771 61.6666 183.158 60.3087C182.566 58.9509 181.591 58.0068 180.221 57.4658C178.873 56.9036 177.033 56.6172 174.699 56.6172C174.49 56.6172 174.271 56.6172 174.041 56.6172C173.833 56.6172 173.625 56.649 173.428 56.702C173.187 59.3646 173.099 62.0803 173.165 64.8489C173.252 67.5964 173.296 70.312 173.296 72.9959C173.296 73.452 173.34 73.9081 173.428 74.3537Z" fill="#274C77"/>
<path d="M214.562 80.2517H207.593C205.631 80.2517 203.538 80.2941 201.325 80.379C199.134 80.4851 197.095 80.379 195.233 80.0395C195.025 78.1725 194.893 76.157 194.838 73.9718C194.773 71.7972 194.773 69.5801 194.838 67.31C194.893 65.0505 194.948 62.8122 195.014 60.6058C195.068 58.3781 195.101 56.2671 195.101 54.2834L195.189 50.7616C195.803 50.7085 196.394 50.6767 196.986 50.6767C197.6 50.6555 198.213 50.6343 198.827 50.6343H212.589L214.737 50.7191C214.847 51.5996 214.912 52.4907 214.912 53.3923C214.912 53.7955 214.912 54.1986 214.912 54.6229C214.912 55.0472 214.868 55.4715 214.781 55.8958C214.397 55.9276 213.992 55.9701 213.554 56.0231C213.137 56.0549 212.743 56.0656 212.37 56.0656C210.551 56.0656 208.743 56.0443 206.935 55.9807C205.116 55.9276 203.319 56.0231 201.544 56.2777C201.511 56.5641 201.478 56.8505 201.457 57.1263C201.457 57.4128 201.457 57.6992 201.457 57.975L201.5 62.3879C203.1 62.5364 204.667 62.5788 206.19 62.5152C207.735 62.4303 209.477 62.3879 211.406 62.3879C211.461 62.3879 211.515 62.494 211.581 62.6849C211.636 62.8546 211.68 63.0562 211.713 63.279L211.45 66.9705C211.45 67.2569 211.165 67.4267 210.617 67.4797C210.058 67.5434 209.521 67.5646 208.995 67.5646C207.79 67.5646 206.552 67.5646 205.27 67.5646C203.977 67.5434 202.739 67.5646 201.544 67.6494L201.457 70.0256V73.9718C202.004 74.3112 202.837 74.5234 203.955 74.6083C205.062 74.6719 206.256 74.6825 207.549 74.6507C208.864 74.5977 210.135 74.5446 211.362 74.481C212.611 74.4279 213.696 74.4385 214.605 74.5234C214.693 74.9795 214.748 75.4569 214.781 75.9661C214.803 76.454 214.825 76.942 214.825 77.4512C214.825 77.9073 214.792 78.3741 214.737 78.8514C214.671 79.3394 214.616 79.8062 214.562 80.2517Z" fill="#274C77"/>
<path d="M218.337 84.9195C218.424 84.7498 218.611 84.3891 218.906 83.8587C219.191 83.3177 219.476 82.7767 219.739 82.2463C220.002 81.7371 220.134 81.4189 220.134 81.3128C220.134 81.1961 220.09 81.037 220.002 80.846C219.936 80.6763 219.882 80.5278 219.827 80.4217C219.235 80.2732 218.731 80.1141 218.293 79.9125C217.855 79.7216 217.635 79.2654 217.635 78.5547C217.635 77.9076 217.701 77.2711 217.855 76.6453C218.03 75.9982 218.293 75.3935 218.643 74.8207C218.906 74.7995 219.169 74.7783 219.432 74.7783C219.717 74.7571 220.002 74.7358 220.265 74.7358C220.758 74.7358 221.24 74.7677 221.712 74.8207C222.172 74.8843 222.643 74.9692 223.114 75.0753C223.344 75.6163 223.487 76.1573 223.552 76.6877C223.607 77.2287 223.64 77.7909 223.64 78.385C223.64 78.7244 223.618 79.1275 223.596 79.5731C223.596 79.9974 223.552 80.3581 223.465 80.6763C223.344 81.1006 223.07 81.578 222.632 82.119C222.216 82.6812 221.766 83.2222 221.273 83.7314C220.802 84.2406 220.408 84.6437 220.09 84.9619C219.794 84.9619 219.498 84.9407 219.213 84.9195C218.917 84.9195 218.622 84.9195 218.337 84.9195Z" fill="#274C77"/>
<path d="M62.4286 129.52H57.7826C57.2567 129.52 56.7088 129.477 56.1609 129.392C55.8651 128.204 55.5692 126.995 55.2843 125.743C54.9885 124.502 54.6817 123.272 54.3639 122.052H51.252C49.6084 122.052 47.9428 122.115 46.2554 122.221C45.7842 124.576 45.2035 126.952 44.5022 129.35L42.9243 129.435H40.0316C39.6809 129.435 39.3084 129.424 38.9358 129.392C38.5852 129.339 38.2455 129.297 37.9277 129.265C38.4537 126.125 39.1659 122.9 40.0754 119.591C41.0068 116.281 41.971 112.961 42.9682 109.619C43.9872 106.256 44.8638 103.021 45.5979 99.9022C46.091 99.881 46.606 99.8492 47.132 99.8173C47.658 99.7961 48.1839 99.7749 48.7099 99.7749C49.9371 99.7749 51.1753 99.7749 52.4354 99.7749C53.6845 99.7749 54.9337 99.8067 56.1609 99.8598C56.391 100.624 56.6869 101.79 57.0375 103.339C57.4101 104.867 57.8374 106.638 58.3086 108.643C58.8017 110.627 59.2838 112.664 59.755 114.753C60.2481 116.822 60.6973 118.816 61.1137 120.736C61.5191 122.635 61.8588 124.279 62.1218 125.658C62.3848 127.016 62.5163 127.939 62.5163 128.416L62.4286 129.52ZM49.192 116.451H49.8494C50.4302 116.451 51.0767 116.451 51.778 116.451C52.4792 116.451 53.1038 116.398 53.6626 116.281C53.575 115.326 53.4106 114.371 53.1805 113.438C52.9723 112.504 52.786 111.571 52.6107 110.637C52.4025 109.566 52.2601 108.717 52.1724 108.092C52.0848 107.444 51.9533 106.988 51.778 106.734C51.6245 106.458 51.3177 106.309 50.8575 106.309C50.737 106.309 50.6165 106.309 50.5069 106.309C50.3864 106.309 50.2658 106.331 50.1562 106.352C49.8604 108.049 49.4221 109.725 48.8414 111.359C48.2497 113.003 47.8881 114.69 47.7456 116.408C47.9757 116.44 48.2058 116.451 48.4469 116.451C48.7099 116.451 48.9509 116.451 49.192 116.451Z" fill="#274C77"/>
<path d="M97.3977 126.846L97.3539 129.392C96.8279 129.424 96.2801 129.435 95.7322 129.435C95.1734 129.456 94.6364 129.477 94.1105 129.477C93.6064 129.477 93.1134 129.456 92.6203 129.435C92.1162 129.435 91.6231 129.424 91.1301 129.392C90.7465 126.115 90.6151 122.773 90.7356 119.378C90.878 115.963 90.9109 112.611 90.8233 109.322H90.5603C90.1768 111.083 89.6618 112.695 89.0262 114.159C88.4126 115.634 87.7332 117.077 87.0101 118.487C86.2759 119.909 85.5198 121.436 84.7309 123.07C84.3474 123.134 83.942 123.229 83.5037 123.367C83.0654 123.484 82.6271 123.537 82.1888 123.537C81.4218 123.537 80.8081 123.537 80.3479 123.537C79.9096 123.516 79.4823 123.441 79.0769 123.325C78.6605 123.187 78.1126 123.006 77.4113 122.773C76.469 120.482 75.5705 118.307 74.6939 116.239C73.8392 114.181 73.0941 111.953 72.4586 109.577L72.1518 109.534L72.1079 116.451C72.1079 118.604 72.1737 120.736 72.3271 122.858C72.4695 124.979 72.4805 127.133 72.3709 129.308C71.9545 129.339 71.5601 129.382 71.1875 129.435C70.804 129.456 70.4095 129.477 70.0041 129.477C69.3028 129.477 68.6015 129.477 67.9003 129.477C67.2209 129.477 66.5415 129.435 65.8403 129.35C65.5992 126.443 65.4896 123.473 65.4896 120.439C65.4896 117.416 65.5335 114.393 65.6211 111.359C65.7088 108.304 65.7526 105.323 65.7526 102.406C65.7526 101.981 65.7526 101.578 65.7526 101.175C65.7745 100.751 65.8074 100.348 65.8403 99.9447L68.5577 99.8598H71.8449C72.338 99.8598 72.853 99.9235 73.379 100.03C73.9049 100.146 74.409 100.263 74.913 100.369C75.8115 103.201 76.8525 105.97 78.0249 108.686C79.1864 111.401 80.326 114.159 81.4437 116.96C82.2326 114.923 82.9558 113.162 83.6352 111.656C84.3036 110.128 84.9062 108.749 85.4322 107.498C85.9801 106.225 86.4951 104.994 86.9662 103.806C87.4264 102.597 87.8867 101.302 88.325 99.9447C89.0262 99.8598 89.7275 99.8174 90.4288 99.8174H94.0228C94.5159 99.8174 95.0309 99.8386 95.5569 99.8598C96.0828 99.8916 96.6088 99.9235 97.1347 99.9447C97.4854 102.777 97.6607 105.715 97.6607 108.77C97.6826 111.826 97.6388 114.881 97.5292 117.936C97.4416 120.991 97.3977 123.961 97.3977 126.846Z" fill="#274C77"/>
<path d="M115.194 129.944C112.762 129.944 110.691 129.52 108.971 128.671C107.272 127.822 105.902 126.677 104.851 125.234C103.799 123.77 103.021 122.094 102.528 120.227C102.024 118.339 101.782 116.355 101.782 114.287C101.782 112.568 102.045 110.839 102.571 109.11C103.119 107.36 103.93 105.747 104.982 104.273C106.034 102.809 107.327 101.631 108.883 100.751C110.428 99.8492 112.192 99.3931 114.186 99.3931C117.189 99.3931 119.709 100.093 121.725 101.472C123.741 102.83 125.253 104.655 126.283 106.946C127.302 109.216 127.817 111.72 127.817 114.456C127.817 116.302 127.554 118.137 127.028 119.973C126.524 121.786 125.757 123.452 124.705 124.979C123.654 126.486 122.339 127.684 120.761 128.586C119.183 129.488 117.32 129.944 115.194 129.944ZM114.8 123.749C116.137 123.749 117.254 123.473 118.131 122.9C119.008 122.306 119.687 121.564 120.191 120.651C120.684 119.718 121.035 118.7 121.243 117.596C121.44 116.493 121.55 115.422 121.55 114.372C121.55 113.385 121.44 112.356 121.243 111.274C121.068 110.203 120.739 109.216 120.279 108.304C119.807 107.402 119.15 106.681 118.306 106.14C117.452 105.578 116.389 105.291 115.107 105.291C113.617 105.291 112.4 105.631 111.469 106.309C110.559 106.988 109.858 107.879 109.365 108.983C108.894 110.086 108.576 111.274 108.401 112.547C108.225 113.799 108.138 114.966 108.138 116.069C108.138 117.342 108.401 118.572 108.927 119.76C109.453 120.927 110.198 121.882 111.162 122.646C112.148 123.388 113.364 123.749 114.8 123.749Z" fill="#274C77"/>
<path d="M157.074 123.664L157.249 124.004C157.337 124.799 157.446 125.595 157.6 126.38C157.775 127.143 157.863 127.907 157.863 128.671C157.863 129.127 157.578 129.435 157.03 129.605C156.504 129.774 155.901 129.87 155.233 129.902C154.586 129.923 154.093 129.944 153.743 129.944C152.099 129.944 150.696 129.562 149.535 128.798C148.363 128.035 147.365 127.006 146.555 125.701C145.733 124.375 145.021 122.932 144.407 121.373L143.399 118.53C143.048 118.339 142.665 118.233 142.259 118.233C141.876 118.212 141.481 118.19 141.076 118.19C140.692 118.19 140.309 118.19 139.936 118.19C139.553 118.19 139.191 118.222 138.841 118.275C138.808 118.7 138.775 119.145 138.753 119.591C138.753 120.047 138.753 120.503 138.753 120.948C138.775 122.285 138.819 123.653 138.884 125.064C138.939 126.454 138.895 127.844 138.753 129.223C137.986 129.339 137.263 129.414 136.561 129.435C135.86 129.488 135.126 129.52 134.37 129.52L132.485 129.477C132.365 129.286 132.266 128.713 132.178 127.78C132.091 126.846 132.014 125.68 131.959 124.258C131.926 122.815 131.893 121.267 131.872 119.591C131.872 117.893 131.872 116.185 131.872 114.456C131.893 112.738 131.915 111.094 131.915 109.534C131.915 107.985 131.915 106.638 131.915 105.503C131.937 104.347 131.959 103.498 131.959 102.957C131.959 102.48 131.959 101.981 131.959 101.472C131.981 100.942 132.047 100.443 132.135 99.9871C133.099 99.8174 134.085 99.7537 135.115 99.7749C136.167 99.8068 137.153 99.8174 138.095 99.8174C139.52 99.8174 141.01 99.8492 142.566 99.9022C144.111 99.9659 145.612 100.136 147.081 100.411C148.571 100.698 149.886 101.175 151.025 101.854C152.187 102.533 153.129 103.467 153.83 104.655C154.532 105.821 154.882 107.328 154.882 109.195C154.882 111.062 154.422 112.611 153.524 113.82C152.614 115.04 151.244 116.196 149.404 117.299C149.688 118.318 150.149 119.357 150.762 120.397C151.376 121.415 152.055 122.264 152.822 122.943C153.578 123.622 154.291 123.95 154.97 123.919C155.233 123.897 155.518 123.897 155.846 123.919C156.197 123.919 156.603 123.834 157.074 123.664ZM138.753 110.425V113.014C138.862 113.162 139.016 113.258 139.191 113.311C139.366 113.374 139.553 113.396 139.761 113.396C140.572 113.396 141.47 113.385 142.435 113.353C143.421 113.332 144.363 113.205 145.24 112.971C146.116 112.717 146.829 112.314 147.387 111.741C147.968 111.147 148.264 110.319 148.264 109.237C148.264 108.198 147.979 107.391 147.431 106.819C146.905 106.256 146.204 105.875 145.327 105.673C144.473 105.45 143.585 105.323 142.654 105.291C141.711 105.27 140.857 105.249 140.068 105.249C139.301 105.249 138.895 105.418 138.841 105.758C138.808 106.076 138.797 106.522 138.797 107.116C138.797 107.688 138.775 108.251 138.753 108.813C138.753 109.354 138.753 109.895 138.753 110.425Z" fill="#274C77"/>
<path d="M164.972 129.222C164.38 129.424 163.723 129.52 163 129.52C162.496 129.52 161.992 129.488 161.466 129.435C160.94 129.382 160.436 129.297 159.976 129.18C159.734 128.671 159.559 128.151 159.45 127.61C159.362 127.08 159.318 126.528 159.318 125.955C159.318 124.916 159.504 124.216 159.888 123.876C160.293 123.515 161.006 123.324 162.036 123.324C162.562 123.324 163.055 123.388 163.526 123.494C164.019 123.579 164.501 123.685 164.972 123.791C165.432 124.672 165.673 125.616 165.673 126.634C165.673 127.058 165.608 127.504 165.498 127.95C165.41 128.406 165.235 128.83 164.972 129.222Z" fill="#274C77"/>
<path d="M170.029 110.298C170.084 110.128 170.204 109.82 170.379 109.364C170.577 108.887 170.796 108.367 171.037 107.794C171.267 107.232 171.453 106.723 171.607 106.267C171.749 105.789 171.826 105.492 171.826 105.376C171.826 105.27 171.782 105.121 171.694 104.951C171.629 104.76 171.574 104.601 171.519 104.485C170.927 104.347 170.423 104.177 169.985 103.976C169.547 103.785 169.328 103.328 169.328 102.618C169.328 101.971 169.393 101.334 169.547 100.708C169.722 100.061 169.985 99.4565 170.336 98.8837C170.599 98.8625 170.862 98.8413 171.125 98.8413C171.409 98.82 171.694 98.7988 171.957 98.7988C172.45 98.7988 172.933 98.8307 173.404 98.8837C173.864 98.9473 174.335 99.0322 174.806 99.1383C175.036 99.6793 175.179 100.22 175.245 100.751C175.299 101.292 175.332 101.854 175.332 102.448C175.332 102.787 175.31 103.191 175.288 103.636C175.288 104.06 175.245 104.432 175.157 104.739C175.091 105.28 174.938 105.917 174.675 106.649C174.434 107.391 174.171 108.091 173.886 108.77C173.59 109.428 173.338 109.948 173.141 110.34C172.637 110.34 172.111 110.34 171.563 110.34C171.037 110.319 170.522 110.298 170.029 110.298ZM178.006 110.298C178.061 110.128 178.192 109.82 178.4 109.364C178.598 108.887 178.806 108.367 179.014 107.794C179.244 107.232 179.43 106.723 179.584 106.267C179.759 105.789 179.847 105.492 179.847 105.376C179.847 105.27 179.803 105.121 179.715 104.951C179.649 104.76 179.595 104.601 179.54 104.485C178.948 104.347 178.444 104.177 178.006 103.976C177.568 103.785 177.348 103.328 177.348 102.618C177.348 101.971 177.414 101.334 177.568 100.708C177.743 100.061 178.006 99.4565 178.356 98.8837C178.619 98.8625 178.882 98.8413 179.145 98.8413C179.43 98.82 179.715 98.7988 179.978 98.7988C180.438 98.7988 180.91 98.8307 181.381 98.8837C181.841 98.9473 182.323 99.0322 182.827 99.1383C183.057 99.6793 183.2 100.22 183.265 100.751C183.32 101.292 183.353 101.854 183.353 102.448C183.353 102.787 183.331 103.191 183.309 103.636C183.309 104.06 183.265 104.432 183.178 104.739C183.112 105.28 182.959 105.917 182.696 106.649C182.455 107.391 182.192 108.091 181.907 108.77C181.611 109.428 181.359 109.948 181.162 110.34C180.658 110.34 180.132 110.34 179.584 110.34C179.058 110.319 178.532 110.298 178.006 110.298Z" fill="#274C77"/>
</svg>
