<svg xmlns="http://www.w3.org/2000/svg" xmlns:xlink="http://www.w3.org/1999/xlink" width="229" zoomAndPan="magnify" viewBox="0 0 171.75 62.249996" height="83" preserveAspectRatio="xMidYMid meet" version="1.0"><defs><g/><clipPath id="6231f056ca"><path d="M 16 15 L 149 15 L 149 47 L 16 47 Z M 16 15 " clip-rule="nonzero"/></clipPath><clipPath id="aad1ce8636"><path d="M 20.445312 5.179688 L 148.378906 21.316406 L 143.371094 61.019531 L 15.4375 44.882812 Z M 20.445312 5.179688 " clip-rule="nonzero"/></clipPath><clipPath id="e9402089e0"><path d="M 20.445312 5.179688 L 148.378906 21.316406 L 143.371094 61.019531 L 15.4375 44.882812 Z M 20.445312 5.179688 " clip-rule="nonzero"/></clipPath></defs><g clip-path="url(#6231f056ca)"><g clip-path="url(#aad1ce8636)"><g clip-path="url(#e9402089e0)"><path fill="#274c77" d="M 29.609375 35.117188 C 31.023438 35.832031 32.328125 36.53125 33.671875 37.167969 C 35.011719 37.804688 36.015625 38.839844 36.96875 39.921875 C 37.644531 40.691406 37.78125 41.609375 37.304688 42.546875 C 36.992188 43.164062 36.660156 43.796875 36.257812 44.359375 C 34.773438 46.40625 32.679688 46.871094 30.371094 45.914062 C 27.359375 44.667969 26.558594 43.324219 26.5 39.429688 C 26.488281 38.609375 26.691406 37.789062 26.8125 36.832031 C 26.261719 36.835938 25.703125 36.773438 25.152344 36.839844 C 23.007812 37.082031 20.945312 37.53125 19.101562 38.792969 C 18.460938 39.226562 17.613281 39.390625 16.84375 39.578125 C 16.332031 39.703125 16.214844 39.492188 16.449219 39.007812 C 17.027344 37.777344 18 36.757812 19.214844 36.125 C 21.816406 34.753906 24.53125 33.917969 27.527344 34.4375 C 27.695312 34.46875 27.992188 34.328125 28.074219 34.175781 C 30.125 30.617188 32.921875 27.777344 36.082031 25.175781 C 39.6875 22.210938 43.855469 19.992188 48.335938 18.660156 C 52.226562 17.484375 56.167969 16.199219 60.238281 15.847656 C 66.480469 15.3125 72.628906 16 78.65625 17.8125 C 84.933594 19.695312 91.023438 22.074219 97.140625 24.375 C 101.195312 25.902344 105.253906 27.46875 109.519531 28.257812 C 112.800781 28.871094 116.136719 29.238281 119.464844 29.550781 C 122.113281 29.800781 124.78125 29.914062 127.449219 29.890625 C 130.648438 29.863281 133.703125 28.914062 136.757812 28.09375 C 140.734375 27.039062 144.113281 25.007812 146.785156 21.855469 C 147.070312 21.519531 147.375 21.191406 147.835938 21.457031 C 148.296875 21.71875 148.183594 22.191406 148.039062 22.570312 C 147.625 23.707031 146.914062 24.714844 145.976562 25.488281 C 143.347656 27.640625 140.53125 29.433594 137.191406 30.300781 C 133.933594 31.148438 130.707031 32.164062 127.308594 32.230469 C 125.105469 32.269531 122.890625 32.222656 120.6875 32.0625 C 117.441406 31.8125 114.191406 31.546875 110.964844 31.078125 C 106.203125 30.386719 101.695312 28.710938 97.195312 27.082031 C 92.167969 25.277344 87.1875 23.289062 82.136719 21.535156 C 77.988281 20.097656 73.777344 18.816406 69.355469 18.402344 C 66.242188 18.117188 63.074219 17.628906 60.003906 18.195312 C 53.699219 19.363281 47.289062 20.335938 41.601562 23.585938 C 37.101562 26.160156 33.117188 29.375 30.308594 33.84375 C 30.054688 34.246094 29.855469 34.679688 29.609375 35.117188 Z M 28.71875 37.460938 C 28.195312 38.835938 28.304688 40.125 28.542969 41.425781 C 28.871094 43.121094 30.277344 44.316406 32.09375 44.464844 C 33.671875 44.589844 34.703125 43.832031 35.371094 42.042969 C 35.378906 42.027344 35.402344 42.003906 35.394531 41.984375 C 35.328125 41.714844 35.355469 41.359375 35.191406 41.183594 C 33.425781 39.324219 31.148438 38.34375 28.71875 37.460938 Z M 28.71875 37.460938 " fill-opacity="1" fill-rule="nonzero"/></g></g></g><g fill="#ffffff" fill-opacity="1"><g transform="translate(57.499002, 27.183751)"><g><path d="M 12.734375 -0.046875 L 11.734375 0 L 4.328125 0 C 3.648438 0 2.972656 -0.0234375 2.296875 -0.078125 L 2.25 -3.703125 L 6.078125 -3.671875 L 6.140625 -11.78125 C 6.140625 -11.914062 6.125 -12.109375 6.09375 -12.359375 C 6.070312 -12.609375 5.984375 -12.769531 5.828125 -12.84375 C 5.171875 -12.582031 4.59375 -12.316406 4.09375 -12.046875 C 3.601562 -11.785156 3.132812 -11.523438 2.6875 -11.265625 C 2.382812 -11.710938 2.128906 -12.1875 1.921875 -12.6875 C 1.710938 -13.1875 1.570312 -13.703125 1.5 -14.234375 C 2.019531 -14.753906 2.65625 -15.21875 3.40625 -15.625 C 4.15625 -16.03125 4.953125 -16.390625 5.796875 -16.703125 C 6.640625 -17.023438 7.441406 -17.289062 8.203125 -17.5 C 8.441406 -17.5 8.679688 -17.5 8.921875 -17.5 C 9.171875 -17.5 9.40625 -17.484375 9.625 -17.453125 L 9.6875 -16.3125 L 9.6875 -10.203125 L 9.625 -3.703125 L 12.796875 -3.578125 L 12.796875 -1.8125 C 12.796875 -1.519531 12.796875 -1.222656 12.796875 -0.921875 C 12.796875 -0.628906 12.773438 -0.335938 12.734375 -0.046875 Z M 12.734375 -0.046875 "/></g></g></g><g fill="#ffffff" fill-opacity="1"><g transform="translate(69.925847, 27.183751)"><g><path d="M 10.234375 -6.96875 L 10.078125 -7.09375 C 9.816406 -6.90625 9.460938 -6.734375 9.015625 -6.578125 C 8.566406 -6.421875 8.101562 -6.296875 7.625 -6.203125 C 7.144531 -6.117188 6.734375 -6.078125 6.390625 -6.078125 C 5.671875 -6.078125 5.007812 -6.238281 4.40625 -6.5625 C 3.8125 -6.894531 3.296875 -7.328125 2.859375 -7.859375 C 2.421875 -8.398438 2.078125 -9 1.828125 -9.65625 C 1.585938 -10.3125 1.46875 -10.976562 1.46875 -11.65625 C 1.46875 -12.738281 1.707031 -13.742188 2.1875 -14.671875 C 2.664062 -15.609375 3.332031 -16.359375 4.1875 -16.921875 C 5.039062 -17.492188 6.023438 -17.78125 7.140625 -17.78125 C 8.421875 -17.78125 9.476562 -17.539062 10.3125 -17.0625 C 11.15625 -16.59375 11.8125 -15.953125 12.28125 -15.140625 C 12.757812 -14.328125 13.097656 -13.410156 13.296875 -12.390625 C 13.492188 -11.378906 13.59375 -10.332031 13.59375 -9.25 C 13.59375 -8.144531 13.472656 -7.03125 13.234375 -5.90625 C 12.992188 -4.78125 12.597656 -3.75 12.046875 -2.8125 C 11.503906 -1.882812 10.785156 -1.132812 9.890625 -0.5625 C 8.992188 0 7.890625 0.28125 6.578125 0.28125 C 6.234375 0.28125 5.773438 0.210938 5.203125 0.078125 C 4.628906 -0.0546875 4.050781 -0.253906 3.46875 -0.515625 C 2.894531 -0.773438 2.410156 -1.085938 2.015625 -1.453125 C 1.617188 -1.816406 1.421875 -2.210938 1.421875 -2.640625 C 1.421875 -2.722656 1.460938 -2.867188 1.546875 -3.078125 C 1.640625 -3.285156 1.742188 -3.503906 1.859375 -3.734375 C 1.984375 -3.972656 2.097656 -4.175781 2.203125 -4.34375 C 2.304688 -4.519531 2.375 -4.609375 2.40625 -4.609375 C 2.875 -4.609375 3.28125 -4.53125 3.625 -4.375 C 3.96875 -4.21875 4.296875 -4.03125 4.609375 -3.8125 C 4.921875 -3.601562 5.238281 -3.421875 5.5625 -3.265625 C 5.894531 -3.109375 6.269531 -3.03125 6.6875 -3.03125 C 7.476562 -3.03125 8.125 -3.207031 8.625 -3.5625 C 9.125 -3.925781 9.5 -4.40625 9.75 -5 C 10 -5.601562 10.160156 -6.257812 10.234375 -6.96875 Z M 7.484375 -9.1875 C 8.222656 -9.1875 8.78125 -9.441406 9.15625 -9.953125 C 9.539062 -10.460938 9.734375 -11.0625 9.734375 -11.75 C 9.734375 -12.1875 9.648438 -12.617188 9.484375 -13.046875 C 9.328125 -13.484375 9.082031 -13.847656 8.75 -14.140625 C 8.425781 -14.429688 8.015625 -14.578125 7.515625 -14.578125 C 6.628906 -14.578125 5.984375 -14.328125 5.578125 -13.828125 C 5.171875 -13.335938 4.96875 -12.664062 4.96875 -11.8125 C 4.96875 -11.007812 5.1875 -10.367188 5.625 -9.890625 C 6.070312 -9.421875 6.691406 -9.1875 7.484375 -9.1875 Z M 7.484375 -9.1875 "/></g></g></g><g fill="#ffffff" fill-opacity="1"><g transform="translate(83.59538, 27.183751)"><g><path d="M 11.46875 -13.71875 C 10.65625 -14.257812 9.660156 -14.53125 8.484375 -14.53125 C 7.867188 -14.53125 7.316406 -14.304688 6.828125 -13.859375 C 6.347656 -13.421875 5.960938 -12.882812 5.671875 -12.25 C 5.378906 -11.625 5.210938 -11.007812 5.171875 -10.40625 C 5.191406 -10.425781 5.222656 -10.421875 5.265625 -10.390625 C 5.304688 -10.367188 5.328125 -10.335938 5.328125 -10.296875 C 5.878906 -10.648438 6.457031 -10.925781 7.0625 -11.125 C 7.664062 -11.320312 8.304688 -11.421875 8.984375 -11.421875 C 10.109375 -11.421875 11.035156 -11.148438 11.765625 -10.609375 C 12.503906 -10.078125 13.054688 -9.367188 13.421875 -8.484375 C 13.796875 -7.609375 13.984375 -6.65625 13.984375 -5.625 C 13.984375 -4.476562 13.722656 -3.453125 13.203125 -2.546875 C 12.679688 -1.640625 11.972656 -0.921875 11.078125 -0.390625 C 10.179688 0.128906 9.164062 0.390625 8.03125 0.390625 C 6.820312 0.390625 5.789062 0.15625 4.9375 -0.3125 C 4.09375 -0.789062 3.410156 -1.4375 2.890625 -2.25 C 2.378906 -3.0625 2.003906 -3.972656 1.765625 -4.984375 C 1.535156 -5.992188 1.421875 -7.023438 1.421875 -8.078125 C 1.421875 -8.867188 1.503906 -9.707031 1.671875 -10.59375 C 1.847656 -11.488281 2.109375 -12.351562 2.453125 -13.1875 C 2.804688 -14.03125 3.253906 -14.789062 3.796875 -15.46875 C 4.335938 -16.15625 4.988281 -16.695312 5.75 -17.09375 C 6.507812 -17.5 7.375 -17.703125 8.34375 -17.703125 C 9.550781 -17.703125 10.539062 -17.5625 11.3125 -17.28125 C 12.09375 -17.007812 12.773438 -16.570312 13.359375 -15.96875 C 13.097656 -15.382812 12.804688 -14.894531 12.484375 -14.5 C 12.171875 -14.101562 11.832031 -13.84375 11.46875 -13.71875 Z M 8.234375 -3.078125 C 9.046875 -3.078125 9.648438 -3.332031 10.046875 -3.84375 C 10.441406 -4.351562 10.640625 -4.988281 10.640625 -5.75 C 10.640625 -6.46875 10.441406 -7.066406 10.046875 -7.546875 C 9.660156 -8.023438 9.09375 -8.265625 8.34375 -8.265625 C 7.789062 -8.265625 7.3125 -8.117188 6.90625 -7.828125 C 6.5 -7.546875 6.179688 -7.175781 5.953125 -6.71875 C 5.734375 -6.257812 5.625 -5.765625 5.625 -5.234375 C 5.625 -4.765625 5.75 -4.367188 6 -4.046875 C 6.257812 -3.734375 6.59375 -3.492188 7 -3.328125 C 7.40625 -3.160156 7.816406 -3.078125 8.234375 -3.078125 Z M 8.234375 -3.078125 "/></g></g></g><g fill="#ffffff" fill-opacity="1"><g transform="translate(97.653248, 27.183751)"><g><path d="M 8.03125 0.3125 C 6.820312 0.3125 5.789062 0.078125 4.9375 -0.390625 C 4.09375 -0.867188 3.410156 -1.515625 2.890625 -2.328125 C 2.378906 -3.140625 2.003906 -4.050781 1.765625 -5.0625 C 1.535156 -6.070312 1.421875 -7.101562 1.421875 -8.15625 C 1.421875 -8.945312 1.503906 -9.785156 1.671875 -10.671875 C 1.847656 -11.566406 2.109375 -12.429688 2.453125 -13.265625 C 2.804688 -14.109375 3.253906 -14.867188 3.796875 -15.546875 C 4.335938 -16.222656 4.988281 -16.765625 5.75 -17.171875 C 6.507812 -17.578125 7.375 -17.78125 8.34375 -17.78125 C 9.632812 -17.78125 10.703125 -17.539062 11.546875 -17.0625 C 12.390625 -16.59375 13.046875 -15.957031 13.515625 -15.15625 C 13.984375 -14.351562 14.3125 -13.441406 14.5 -12.421875 C 14.6875 -11.410156 14.78125 -10.351562 14.78125 -9.25 C 14.78125 -8.1875 14.660156 -7.097656 14.421875 -5.984375 C 14.191406 -4.878906 13.816406 -3.847656 13.296875 -2.890625 C 12.785156 -1.929688 12.097656 -1.15625 11.234375 -0.5625 C 10.367188 0.0195312 9.300781 0.3125 8.03125 0.3125 Z M 8.03125 -2.90625 C 8.5625 -2.90625 9.003906 -3.054688 9.359375 -3.359375 C 9.710938 -3.671875 10 -4.078125 10.21875 -4.578125 C 10.445312 -5.078125 10.617188 -5.613281 10.734375 -6.1875 C 10.859375 -6.769531 10.941406 -7.328125 10.984375 -7.859375 C 11.035156 -8.398438 11.0625 -8.863281 11.0625 -9.25 C 11.0625 -9.707031 11.035156 -10.238281 10.984375 -10.84375 C 10.941406 -11.445312 10.832031 -12.035156 10.65625 -12.609375 C 10.488281 -13.179688 10.21875 -13.648438 9.84375 -14.015625 C 9.476562 -14.390625 8.976562 -14.578125 8.34375 -14.578125 C 7.820312 -14.578125 7.378906 -14.410156 7.015625 -14.078125 C 6.648438 -13.753906 6.347656 -13.335938 6.109375 -12.828125 C 5.867188 -12.316406 5.675781 -11.765625 5.53125 -11.171875 C 5.394531 -10.585938 5.296875 -10.023438 5.234375 -9.484375 C 5.179688 -8.941406 5.15625 -8.5 5.15625 -8.15625 C 5.15625 -7.6875 5.1875 -7.15625 5.25 -6.5625 C 5.320312 -5.96875 5.457031 -5.390625 5.65625 -4.828125 C 5.851562 -4.265625 6.140625 -3.800781 6.515625 -3.4375 C 6.898438 -3.082031 7.40625 -2.90625 8.03125 -2.90625 Z M 8.03125 -2.90625 "/></g></g></g></svg>